<mxfile host="app.diagrams.net" modified="2023-08-01T15:49:44.894Z" agent="Mozilla/5.0 (Windows NT 10.0; Win64; x64) AppleWebKit/537.36 (KHTML, like Gecko) Chrome/114.0.0.0 Safari/537.36" etag="w9NF7VUFBpHuQsENrVKB" version="21.6.2" type="device">
  <diagram name="Page-1" id="1zhhYhUmOP9WoU2w0u3_">
    <mxGraphModel dx="1232" dy="1081" grid="1" gridSize="10" guides="1" tooltips="1" connect="1" arrows="1" fold="1" page="1" pageScale="1" pageWidth="850" pageHeight="1100" math="0" shadow="0">
      <root>
        <mxCell id="0" />
        <mxCell id="1" parent="0" />
        <mxCell id="Bts73GTdKF_WyHnC4_nE-10" value="" style="shape=corner;whiteSpace=wrap;html=1;fillColor=#d5e8d4;strokeColor=#82b366;rotation=90;dx=167;dy=149;" vertex="1" parent="1">
          <mxGeometry x="371.32" y="169.31" width="437.38" height="521" as="geometry" />
        </mxCell>
        <mxCell id="Bts73GTdKF_WyHnC4_nE-8" value="" style="rounded=0;whiteSpace=wrap;html=1;fillColor=#dae8fc;strokeColor=#6c8ebf;" vertex="1" parent="1">
          <mxGeometry x="330" y="390" width="360" height="261" as="geometry" />
        </mxCell>
        <mxCell id="Bts73GTdKF_WyHnC4_nE-7" value="" style="rounded=0;whiteSpace=wrap;html=1;fillColor=#ffe6cc;strokeColor=#d79b00;" vertex="1" parent="1">
          <mxGeometry x="35" y="210" width="285" height="441" as="geometry" />
        </mxCell>
        <mxCell id="u2gEvJjWZywR1e83eSXG-51" value="" style="rounded=0;whiteSpace=wrap;html=1;fontSize=13;fontStyle=0;strokeWidth=2;" parent="1" vertex="1">
          <mxGeometry x="172" y="520" width="120" height="30" as="geometry" />
        </mxCell>
        <mxCell id="u2gEvJjWZywR1e83eSXG-3" value="" style="edgeStyle=orthogonalEdgeStyle;rounded=0;orthogonalLoop=1;jettySize=auto;html=1;exitX=0.75;exitY=1;exitDx=0;exitDy=0;entryX=0.75;entryY=0;entryDx=0;entryDy=0;fontSize=13;fontStyle=0;strokeWidth=2;" parent="1" source="u2gEvJjWZywR1e83eSXG-1" target="u2gEvJjWZywR1e83eSXG-2" edge="1">
          <mxGeometry relative="1" as="geometry" />
        </mxCell>
        <mxCell id="u2gEvJjWZywR1e83eSXG-1" value="USPTO website" style="rounded=0;whiteSpace=wrap;html=1;fontSize=13;fontStyle=0;strokeWidth=2;" parent="1" vertex="1">
          <mxGeometry x="172" y="310" width="120" height="20" as="geometry" />
        </mxCell>
        <mxCell id="u2gEvJjWZywR1e83eSXG-7" style="edgeStyle=orthogonalEdgeStyle;rounded=0;orthogonalLoop=1;jettySize=auto;html=1;exitX=0.25;exitY=0;exitDx=0;exitDy=0;entryX=0.25;entryY=1;entryDx=0;entryDy=0;fontSize=13;fontStyle=0;strokeWidth=2;" parent="1" source="u2gEvJjWZywR1e83eSXG-2" target="u2gEvJjWZywR1e83eSXG-1" edge="1">
          <mxGeometry relative="1" as="geometry" />
        </mxCell>
        <mxCell id="u2gEvJjWZywR1e83eSXG-11" value="" style="edgeStyle=orthogonalEdgeStyle;rounded=0;orthogonalLoop=1;jettySize=auto;html=1;entryX=0.5;entryY=0;entryDx=0;entryDy=0;fontSize=13;fontStyle=0;strokeWidth=2;" parent="1" source="u2gEvJjWZywR1e83eSXG-2" target="u2gEvJjWZywR1e83eSXG-34" edge="1">
          <mxGeometry relative="1" as="geometry">
            <mxPoint x="230" y="490" as="targetPoint" />
          </mxGeometry>
        </mxCell>
        <mxCell id="u2gEvJjWZywR1e83eSXG-2" value="Downloading" style="rounded=0;whiteSpace=wrap;html=1;fontSize=13;fontStyle=0;strokeWidth=2;" parent="1" vertex="1">
          <mxGeometry x="172" y="380" width="120" height="20" as="geometry" />
        </mxCell>
        <mxCell id="u2gEvJjWZywR1e83eSXG-5" style="edgeStyle=orthogonalEdgeStyle;rounded=0;orthogonalLoop=1;jettySize=auto;html=1;entryX=0;entryY=0.5;entryDx=0;entryDy=0;fontSize=13;fontStyle=0;strokeWidth=2;" parent="1" target="u2gEvJjWZywR1e83eSXG-2" edge="1">
          <mxGeometry relative="1" as="geometry">
            <mxPoint x="100" y="390" as="sourcePoint" />
          </mxGeometry>
        </mxCell>
        <mxCell id="u2gEvJjWZywR1e83eSXG-6" value="Date" style="text;html=1;align=center;verticalAlign=middle;resizable=0;points=[];autosize=1;strokeColor=none;fillColor=none;fontSize=13;fontStyle=0;strokeWidth=2;" parent="1" vertex="1">
          <mxGeometry x="50" y="375" width="50" height="30" as="geometry" />
        </mxCell>
        <mxCell id="u2gEvJjWZywR1e83eSXG-8" value="request" style="text;html=1;align=center;verticalAlign=middle;resizable=0;points=[];autosize=1;strokeColor=none;fillColor=none;fontSize=13;fontStyle=0;strokeWidth=2;" parent="1" vertex="1">
          <mxGeometry x="137" y="340" width="70" height="30" as="geometry" />
        </mxCell>
        <mxCell id="u2gEvJjWZywR1e83eSXG-9" value="Zip file" style="text;html=1;align=center;verticalAlign=middle;resizable=0;points=[];autosize=1;strokeColor=none;fillColor=none;fontSize=13;fontStyle=0;strokeWidth=2;" parent="1" vertex="1">
          <mxGeometry x="258.5" y="340" width="60" height="30" as="geometry" />
        </mxCell>
        <mxCell id="u2gEvJjWZywR1e83eSXG-31" style="edgeStyle=orthogonalEdgeStyle;rounded=0;orthogonalLoop=1;jettySize=auto;html=1;exitX=0.5;exitY=1;exitDx=0;exitDy=0;entryX=0.5;entryY=0;entryDx=0;entryDy=0;fontSize=13;fontStyle=0;strokeWidth=2;" parent="1" source="u2gEvJjWZywR1e83eSXG-51" target="u2gEvJjWZywR1e83eSXG-32" edge="1">
          <mxGeometry relative="1" as="geometry">
            <mxPoint x="420" y="632.6666666666665" as="targetPoint" />
            <mxPoint x="342" y="700" as="sourcePoint" />
          </mxGeometry>
        </mxCell>
        <mxCell id="u2gEvJjWZywR1e83eSXG-13" value="" style="shape=image;html=1;verticalAlign=top;verticalLabelPosition=bottom;labelBackgroundColor=#ffffff;imageAspect=0;aspect=fixed;image=https://cdn1.iconfinder.com/data/icons/bootstrap-vol-3/16/filetype-xml-128.png;fontSize=13;fontStyle=0;strokeWidth=2;" parent="1" vertex="1">
          <mxGeometry x="182" y="460" width="18" height="18" as="geometry" />
        </mxCell>
        <mxCell id="u2gEvJjWZywR1e83eSXG-14" value="" style="shape=image;html=1;verticalAlign=top;verticalLabelPosition=bottom;labelBackgroundColor=#ffffff;imageAspect=0;aspect=fixed;image=https://cdn1.iconfinder.com/data/icons/bootstrap-vol-3/16/filetype-xml-128.png;fontSize=13;fontStyle=0;strokeWidth=2;" parent="1" vertex="1">
          <mxGeometry x="212" y="460" width="18" height="18" as="geometry" />
        </mxCell>
        <mxCell id="u2gEvJjWZywR1e83eSXG-15" value="" style="shape=image;html=1;verticalAlign=top;verticalLabelPosition=bottom;labelBackgroundColor=#ffffff;imageAspect=0;aspect=fixed;image=https://cdn1.iconfinder.com/data/icons/bootstrap-vol-3/16/filetype-xml-128.png;fontSize=13;fontStyle=0;strokeWidth=2;" parent="1" vertex="1">
          <mxGeometry x="266" y="460" width="18" height="18" as="geometry" />
        </mxCell>
        <mxCell id="u2gEvJjWZywR1e83eSXG-17" value="" style="shape=image;html=1;verticalAlign=top;verticalLabelPosition=bottom;labelBackgroundColor=#ffffff;imageAspect=0;aspect=fixed;image=https://cdn2.iconfinder.com/data/icons/boxicons-solid-vol-2/24/bxs-file-txt-128.png;fontSize=13;fontStyle=0;strokeWidth=2;" parent="1" vertex="1">
          <mxGeometry x="180" y="520" width="22" height="22" as="geometry" />
        </mxCell>
        <mxCell id="u2gEvJjWZywR1e83eSXG-20" value="" style="shape=image;html=1;verticalAlign=top;verticalLabelPosition=bottom;labelBackgroundColor=#ffffff;imageAspect=0;aspect=fixed;image=https://cdn2.iconfinder.com/data/icons/boxicons-solid-vol-2/24/bxs-file-txt-128.png;fontSize=13;fontStyle=0;strokeWidth=2;" parent="1" vertex="1">
          <mxGeometry x="210" y="520" width="22" height="22" as="geometry" />
        </mxCell>
        <mxCell id="u2gEvJjWZywR1e83eSXG-21" value="" style="shape=image;html=1;verticalAlign=top;verticalLabelPosition=bottom;labelBackgroundColor=#ffffff;imageAspect=0;aspect=fixed;image=https://cdn2.iconfinder.com/data/icons/boxicons-solid-vol-2/24/bxs-file-txt-128.png;fontSize=13;fontStyle=0;strokeWidth=2;" parent="1" vertex="1">
          <mxGeometry x="238.5" y="520" width="22" height="22" as="geometry" />
        </mxCell>
        <mxCell id="u2gEvJjWZywR1e83eSXG-53" value="" style="edgeStyle=orthogonalEdgeStyle;rounded=0;orthogonalLoop=1;jettySize=auto;html=1;entryX=0;entryY=0.5;entryDx=0;entryDy=0;fontSize=13;fontStyle=0;strokeWidth=2;" parent="1" source="u2gEvJjWZywR1e83eSXG-32" target="u2gEvJjWZywR1e83eSXG-54" edge="1">
          <mxGeometry relative="1" as="geometry">
            <mxPoint x="372" y="590" as="targetPoint" />
          </mxGeometry>
        </mxCell>
        <mxCell id="u2gEvJjWZywR1e83eSXG-32" value="Embedding" style="rounded=0;whiteSpace=wrap;html=1;fontSize=13;fontStyle=0;strokeWidth=2;" parent="1" vertex="1">
          <mxGeometry x="172" y="580" width="120" height="20" as="geometry" />
        </mxCell>
        <mxCell id="u2gEvJjWZywR1e83eSXG-34" value="Splitting" style="whiteSpace=wrap;html=1;fontSize=13;fontStyle=0;strokeWidth=2;" parent="1" vertex="1">
          <mxGeometry x="172" y="420" width="120" height="20" as="geometry" />
        </mxCell>
        <mxCell id="u2gEvJjWZywR1e83eSXG-38" value="" style="shape=image;html=1;verticalAlign=top;verticalLabelPosition=bottom;labelBackgroundColor=#ffffff;imageAspect=0;aspect=fixed;image=https://cdn1.iconfinder.com/data/icons/bootstrap-vol-3/16/filetype-xml-128.png;fontSize=13;fontStyle=0;strokeWidth=2;" parent="1" vertex="1">
          <mxGeometry x="240.5" y="460" width="18" height="18" as="geometry" />
        </mxCell>
        <mxCell id="u2gEvJjWZywR1e83eSXG-40" value="" style="endArrow=classic;html=1;rounded=0;exitX=0.5;exitY=1;exitDx=0;exitDy=0;entryX=0.418;entryY=-0.169;entryDx=0;entryDy=0;entryPerimeter=0;fontSize=13;fontStyle=0;strokeWidth=2;" parent="1" source="u2gEvJjWZywR1e83eSXG-34" target="u2gEvJjWZywR1e83eSXG-13" edge="1">
          <mxGeometry width="50" height="50" relative="1" as="geometry">
            <mxPoint x="390" y="490" as="sourcePoint" />
            <mxPoint x="440" y="440" as="targetPoint" />
          </mxGeometry>
        </mxCell>
        <mxCell id="u2gEvJjWZywR1e83eSXG-41" value="" style="endArrow=classic;html=1;rounded=0;exitX=0.5;exitY=1;exitDx=0;exitDy=0;entryX=0.5;entryY=0;entryDx=0;entryDy=0;fontSize=13;fontStyle=0;strokeWidth=2;" parent="1" source="u2gEvJjWZywR1e83eSXG-34" target="u2gEvJjWZywR1e83eSXG-14" edge="1">
          <mxGeometry width="50" height="50" relative="1" as="geometry">
            <mxPoint x="242" y="450" as="sourcePoint" />
            <mxPoint x="202" y="487" as="targetPoint" />
          </mxGeometry>
        </mxCell>
        <mxCell id="u2gEvJjWZywR1e83eSXG-42" value="" style="endArrow=classic;html=1;rounded=0;exitX=0.5;exitY=1;exitDx=0;exitDy=0;entryX=0.5;entryY=0;entryDx=0;entryDy=0;fontSize=13;fontStyle=0;strokeWidth=2;" parent="1" source="u2gEvJjWZywR1e83eSXG-34" target="u2gEvJjWZywR1e83eSXG-38" edge="1">
          <mxGeometry width="50" height="50" relative="1" as="geometry">
            <mxPoint x="242" y="450" as="sourcePoint" />
            <mxPoint x="233" y="490" as="targetPoint" />
          </mxGeometry>
        </mxCell>
        <mxCell id="u2gEvJjWZywR1e83eSXG-43" value="" style="endArrow=classic;html=1;rounded=0;exitX=0.5;exitY=1;exitDx=0;exitDy=0;entryX=0.5;entryY=0;entryDx=0;entryDy=0;fontSize=13;fontStyle=0;strokeWidth=2;" parent="1" source="u2gEvJjWZywR1e83eSXG-34" target="u2gEvJjWZywR1e83eSXG-15" edge="1">
          <mxGeometry width="50" height="50" relative="1" as="geometry">
            <mxPoint x="242" y="450" as="sourcePoint" />
            <mxPoint x="262" y="490" as="targetPoint" />
          </mxGeometry>
        </mxCell>
        <mxCell id="u2gEvJjWZywR1e83eSXG-44" value="" style="shape=image;html=1;verticalAlign=top;verticalLabelPosition=bottom;labelBackgroundColor=#ffffff;imageAspect=0;aspect=fixed;image=https://cdn2.iconfinder.com/data/icons/boxicons-solid-vol-2/24/bxs-file-txt-128.png;fontSize=13;fontStyle=0;strokeWidth=2;" parent="1" vertex="1">
          <mxGeometry x="264" y="520" width="22" height="22" as="geometry" />
        </mxCell>
        <mxCell id="u2gEvJjWZywR1e83eSXG-46" value="" style="endArrow=classic;html=1;rounded=0;exitX=0.5;exitY=1;exitDx=0;exitDy=0;entryX=0.5;entryY=0;entryDx=0;entryDy=0;fontSize=13;fontStyle=0;strokeWidth=2;" parent="1" source="u2gEvJjWZywR1e83eSXG-13" target="u2gEvJjWZywR1e83eSXG-17" edge="1">
          <mxGeometry width="50" height="50" relative="1" as="geometry">
            <mxPoint x="242" y="450" as="sourcePoint" />
            <mxPoint x="200" y="467" as="targetPoint" />
          </mxGeometry>
        </mxCell>
        <mxCell id="u2gEvJjWZywR1e83eSXG-47" value="" style="endArrow=classic;html=1;rounded=0;exitX=0.5;exitY=1;exitDx=0;exitDy=0;entryX=0.5;entryY=0;entryDx=0;entryDy=0;fontSize=13;fontStyle=0;strokeWidth=2;" parent="1" source="u2gEvJjWZywR1e83eSXG-14" target="u2gEvJjWZywR1e83eSXG-20" edge="1">
          <mxGeometry width="50" height="50" relative="1" as="geometry">
            <mxPoint x="201" y="488" as="sourcePoint" />
            <mxPoint x="201" y="530" as="targetPoint" />
          </mxGeometry>
        </mxCell>
        <mxCell id="u2gEvJjWZywR1e83eSXG-48" value="" style="endArrow=classic;html=1;rounded=0;exitX=0.5;exitY=1;exitDx=0;exitDy=0;entryX=0.5;entryY=0;entryDx=0;entryDy=0;fontSize=13;fontStyle=0;strokeWidth=2;" parent="1" source="u2gEvJjWZywR1e83eSXG-38" target="u2gEvJjWZywR1e83eSXG-21" edge="1">
          <mxGeometry width="50" height="50" relative="1" as="geometry">
            <mxPoint x="211" y="498" as="sourcePoint" />
            <mxPoint x="211" y="540" as="targetPoint" />
          </mxGeometry>
        </mxCell>
        <mxCell id="u2gEvJjWZywR1e83eSXG-49" value="" style="endArrow=classic;html=1;rounded=0;entryX=0.5;entryY=0;entryDx=0;entryDy=0;exitX=0.5;exitY=1;exitDx=0;exitDy=0;fontSize=13;fontStyle=0;strokeWidth=2;" parent="1" source="u2gEvJjWZywR1e83eSXG-15" target="u2gEvJjWZywR1e83eSXG-44" edge="1">
          <mxGeometry width="50" height="50" relative="1" as="geometry">
            <mxPoint x="270" y="480" as="sourcePoint" />
            <mxPoint x="260" y="530" as="targetPoint" />
          </mxGeometry>
        </mxCell>
        <mxCell id="u2gEvJjWZywR1e83eSXG-50" value="Parsing and converting &lt;br style=&quot;font-size: 13px;&quot;&gt;patents to txt" style="text;html=1;align=center;verticalAlign=middle;resizable=0;points=[];autosize=1;strokeColor=none;fillColor=none;fontSize=13;fontStyle=0;strokeWidth=2;" parent="1" vertex="1">
          <mxGeometry x="35" y="478" width="160" height="40" as="geometry" />
        </mxCell>
        <mxCell id="u2gEvJjWZywR1e83eSXG-57" style="edgeStyle=orthogonalEdgeStyle;rounded=0;orthogonalLoop=1;jettySize=auto;html=1;fontSize=13;fontStyle=0;strokeWidth=2;" parent="1" source="u2gEvJjWZywR1e83eSXG-54" target="u2gEvJjWZywR1e83eSXG-56" edge="1">
          <mxGeometry relative="1" as="geometry" />
        </mxCell>
        <mxCell id="u2gEvJjWZywR1e83eSXG-54" value="" style="shape=image;verticalLabelPosition=bottom;labelBackgroundColor=default;verticalAlign=top;aspect=fixed;imageAspect=0;image=data:image/png,iVBORw0KGgoAAAANSUhEUgAABBoAAAKgCAMAAAACg+5EAAAABGdBTUEAALGPC/xhBQAAAAFzUkdCAK7OHOkAAAAgY0hSTQAAeiYAAICEAAD6AAAAgOgAAHUwAADqYAAAOpgAABdwnLpRPAAAAcVQTFRF////MID/MID/MID/MID/MH3/Mn3/Mn7/M37/Mn//Mn//MX//MX7/Mn7/MX7//2hA/2VF/2RE/2JF/2RG/2VH/2VF/2VG/2RF/2RG/2NG/94t/94u/94t/98t/90s/90u/90w/98w/98w/98wMHz//2BA/2JE/2RF/90u/9ww/98w/94u/2NG/94t/94tMn7/M3///2RG/90tMn//Mn3//2NDMID//2RF/2RG/2BAM37/Mn///2VG/2BFM4H/M3//enW//98u/98sMn3//9wt/98qM4H//90t/98t/+EuM3z/MX//NH///90uM37//94sM37/MoD//94tMn7/MX7/M3//MX7/Mn//MID/MID//94u/90s/90r/98t/90t/9wtM3///98q/25E/2VH/94t/2RG/98t/2VH/2BI/98t/98oW3rcv2yAv2x/WHncs26L2Wlp/6E5/7A2/78z/88w/9cv/2xE/3ND/4JA/4o+/5o7/6k4/7g1/3tB/8cx/5I8sm6LjHKumXGjf3S68mVR/94tZXjQ5WddTHvo/8cyf3S52WlozGp0ZXjRP330WHndmXGipm+XcnXFMn7//2RGP3zzcnbFmqSPJAAAAGx0Uk5TABAgMEBgcICQn6+/3+/PIDBAYICQn6+/z9/v37+fkIBgQDAgUBBw73BQEM9Qr9/fn39gf2BQUM+gIKCP3zBvrzB/QNBQMF+fj19Qz4+QsM/PcLCQoL+w32Bw74Bwr9Cgz2DP36Dvv58gUCCfbiMBTAAAIABJREFUeJzt3el7nNd53/EBMFwhiiJIiiYWwiJFFiYiUgZkOnbaqEHJLHaU2IKaSnDopo2ohErj1nFMKbZVRYnhKImjxLHqv7cz2GafeZbze+5z7vP9vLP9xsKl873O+kyrhbrm5hfap06dPnP23Lnzi4uLz3X9st+F7n/zfOd/Onfu7Jkzp0+12wvz1v+nk3Hx4guXlpYuX75y9eqL16594XrX5wc+3j+wvNKx2rG2dmN9/YtffOmlm7es/08jY/MLL586c+7c4lAFSniuk4qzZ061F+as/1mic/vipaU7lzspuP4fPp/sKA1jLXdisba+8aWXbt61/odBHuYWTp0+e/75yj2YVInzZ063F6z/4cxdfGGpE4QvTOtBwTT0V2KzE4kvvnTT+h8OTs2/3EnCcxfCJmHYhU4iXm5nOIu4+Gt3rrx4vVgRyqbhxEonEV9iFoFQOvOEs+fUTRguxNlc5hC3X1gq34SKaTgpxI2NlwgE6pg/1ZkoNNmEoUCcP+14BlEnCrXScGiZQKCKuYXT555vdKYwyYXFMy97m0DcvnTnaq0oBEjDoc1X1ukDiupWwToIQzorjJd9HHcGqkKoNBy4Rx8wS2cFsRjFXGGc+531hfUfqJaLS1e+EKgKQdNwYPOVDc4wMFZnsmC3r1BYotOHzmThxYJHkkZp6FpeZfqAQe3T56OdLIx6/tWk8nD70pevBc+CJA0HVm98iTyga+F0vGuIyVLJgyoLujR0bd5g9pC5+dPnEszCsefPxr338MIdXRa0aejqLC6s/4CwMdc+m8DewiyLp+M82by9dFWaBX0aOpZf2eKhVm7mk1xFjHf/1dgmDy98+Zo6C42koauztrD+c6Ix7e3Y7i3Udv61WHYebl+6Ip8uNJmGjntrbExmoLOMcDNdGLR42r4OTSwjmk9D1ypLC9fm2invOs72/FnLjYfb4l1H0zRQB8e8d+HQfaM6dLrQaBYM0tCtwwZ18CaPLhy6f7bplYVFF0zSsM/cwRm3+wuTPN/gvsPtrzS8jrBNA3Xwo72dWRcOLTZzZtHceUQ8aeh45UtN/HEhNHd60XqM2nn1ZfFf94Uv23XBNg3dE03uOySsnXEXDtx/VTd1MNpgiCUN3TqwsEjTQp4LiWGLr0m+IWe5kIglDfssLBI09yD3CUPPhVdDn2fe/vJXrbPQFUEaOlOHG0wdEsKEYcjzrwX86176dfsJw4Eo0rDP1CEd2e8wjBNq18F+h6EnljSw65CEOSYMkyzWP7D4mu2RxJB40tDBgUXcsrvbVM79encdLsUzYTgQVRr29ze3Qv1rjNBYScx0ofK64vadKLYe+0WWBtYVkZo7fd963KWh0odfbke1kjgSXRo61ohDZNhiKGGx7HnF1yK4xDBGjGlg0yEu82wxlHO/TBxi22I4EWcaus+vZP+mo5T2161HWoIK70hGG4Z409DddND+K48i2Hus6P52gThEHIaY00Ac7BGGGu7/xow4RB2GuNNAHGwRhrqmnWUu/UfrsT9D3GkgDnYIQwiT4hB9GOJPA3GwQRgCGbvnEPlS4lD8aSAOzSMMAd3fHvqkQxJhSCMNxKFZ8xxXhjVwzyGRMKSSBuLQnLnfsB5JDp3E4T+lEoZ00tCJAzckG8CVaJGDOHzt163HewnppIG3FQ34TcIg8/p/jvER1WQppYE4iLV5XSn0yU+tB3s5aaVhf/+3+L1tlQWOJYR+9g/WQ72s1NLAfqQIu49Kn/7ceqCXl1waOnG4aT2MHGKTQeizf7Me5lUkmAa2HIJjk0EptU2GI0mmYX//t6wHkyfzr1sPHs9+luBa4kCiaWDLIRxuMgh99gvrEV5ZqmlgVREIawmlRNcSB9JNA6uKADiXUErxXKIn5TTs39uxHlqJ41xCKM1ziZ6k08CqopZ57jgJpXfHaUjiaWA7sjq2H4US3n48lnoamDhUtPBfrEePZ79KfcrwuYc07C9vWA+z9LD9qPTZX1oP6xAcpKGzqmDiUA4nlkq/SvjEso+LNHCOWQpTBiUfU4bP3aSBiUNxC0wZhJxMGT73kwYmDkVtWw8ezxwcTJzwk4b9VSYOs81zMCGU/F2Gfo7SsL/MHYdZuP4o5GnK8LmvNHDHYYY5rj8Kfe//WA/msHylYf/eQ+vhFzGOLJVSfmQ5lrM0sBs5EUeWSp8l/chyLHdp4BhzPPYflVztPx7xlwYuTo/D/qOSr/3HIw7TsL+/xo9VDGIxoZT2F1smcpkGFhWD5tl/FPqZt/3HIz7TsL/PoqKHxYSSy8VEl9c0sKg4xmJCyeliosttGlhUHOJkQsnjycQxv2ngpKKrzWJC6BPr4avkOA1cf+KZpdRnf2s9eqVcp2F/M+9FxRy/WCf0qbM3E8N8p2H/3iPr4WmIM0slr2eWJ5ynIedTTLYZlFxvMxxwn4ZsNxy2rQePa25vM/T4T0OmGw7cZhDyvs1wIIM05HjDgdsMSp86vs3Qk0Ma9pdz+8ALG5BKfj4aPVUWachtw4ENSKW/sx6zDckkDVm14TetB49rGWxAHsolDfuvZPPcatt68Hjm8ENvk2SThlw2I+fOWY8ez7I4mjiSTxryaMMcRxNCeRxNHMkoDfvLO9YDV46jCaXv5XE0cSSnNPi/NU0ZlP4+qzJklgbnBxULHFoK+X81MSizNLhuw29bDx7XcrnOcCK3NOz/jvUAluE6g1J2ZcgvDfurTi84bFsPHtd8f9BprPzS4PQl5rb14PHM+afexsswDS4vOGxbjx7PPsvoolNPjmlw2AauQArlWYY80+CuDZRBKKsrkH3yTIOzNlAGoVzLkGsaPLWBZxNK2ZYh2zTsL3v5DD1lUMq3DPmmwUsbKINSxmXIOA0+2kAZlHIuQ85p8NAGyqCUdRmyTkP6baAMSnmXIe80JN8GyiCUeRkyT0PibeA+g1DuZcg9DUnfb6AMQtmXIfs0JNwGftVSKNN3E/2yT0Oybdi2Hj2eUQbSsJ9qG7atR49rf2k9LiNAGtJsw7b14HEtxy+3jCANHZvJfROO70Aq5fcdyHFIQ9eq9VAviW9HK1GGA6ThQFrfmV6wHjyuUYZDpOHQ71oP9xLm+SUaob+3HpKxIA1H0vntGn69Tul71iMyGqThWCq/hzlHGYS4BHmCNJx4aD3oi+FJlRBl6CENJ9J4asX1aKHPKEMPaehJ4erTtvXocY1LkH1IQ5970V994qqTEseW/UhDv9ivPnGhQYkyDCANA+K+3sCxpdKvrMdiZEjDoJivN1AGpU9/aj0WI0MahvyedQAmW7QePZ5xbDmMNAyJ9whz23r0uMa3W4aRhmGxHmFyOKH0C+uBGB/SMGLTOgJjcTihxOHEKNIwKsZjCrYglX5mPQxjRBrGiPClFWUQYgtyHNIwzo51CYbxckKJMoxDGsaJbSty23rwuMYW5FikYay4tiLZglT6xHoMRoo0jBfTViRbkEqfWg/BWJGGCSLaiuQWpBBbkJOQhgmWo9lu2LYePa7xiYZJSMMksXy84RvWg8c17jpNRBomiuO3KdhoUOKu02SkYbIothv4SqwQGw1TkIbJYniEuW09elz7ufXwixlpmMJ+u4GNBiU2GqYhDdNYbzew0aDEjYapSMNUxtsNr1uPHs/YaJiONExle7th23r0uPa31mMvcqRhOsvHFPPWg8e1f7IeerEjDTMYPqZgo0GID0jPQhpmMft2A99oUGKjYRbSMIvVCSbnlkqcW85EGmZ6xaQMnFsqcW45G2mYzeRXa75uPXpcYzkxG2mYzeIE8zXrweMay4kCSEMBzf+ANssJJZYTRZCGIhq/FMlyQonlRBGkoYimlxQsJ5RYThRCGgppdknBckKJ5UQxpKGYRpcULCeUWE4UQxqKaXJJwXJCieVEQaShoOaWFCwnlFhOFEUainrYVBpYTiixnCiKNBS13NBbirb14HGN5URhpKGwhp5ns5wQ4il2caShuEaeZ29bjx7X+LJTcaShuCaeZ/NlJyW+7FQCaShhXZ+G89ajxzM+FFsGaShBf7mBKw1Kv7AebUkhDWWoLzdwpUGJKw2lkIZSxJcb+Byk0j9bD7a0kIZStDuR7EEqsQdZDmkoR7oT+U3r0eMZe5AlkYaShDuR7EEqsQdZEmkoSbgTyR6kEHuQZZGGsmR3IretR49r3IMsizSUpdqJZA9SiT3I0khDaaKdSN5iK7EHWRppKE3zOptJgxKThvJIQ3mS19kcXApxcFkBaajgUfgycHCpxAdcKiANFQgOMDm4FOLgsgrSUEXwA0wmDUocXFZBGqoIPW3gxaUSk4ZKSEMlW2HTsG09elxj0lAJaajkXtAyzF+wHj2e/Yv1GEsUaagm6A/dcdtJ6efWYyxRpKGakPeeuO2kxG2nikhDRQGvSzNpUOK2U0WkoaJw0wYmDUpMGqoiDVUFmzYwaVBi0lAVaagq1LSBSYMSk4bKSENlgaYNTBqUmDRURhoqCzNtYNKgxKShOtJQXZBpA5MGJSYN1ZGG6kJMG5g0KDFpqIE01BBg2sCkQYlJQw2koYb60wYmDUpMGuogDXXUnjYwaVDiRy7rIA111J02MGlQ4sllLaShlprTht+3Hj2u8eSyFtJQy3KtMszxcSchPu5UD2mop9bnnvgipBIfd6qHNNRT6yuRTBqEmDTURBpqqvFxaSYNSkwaaiINNdWYNjBpEPr0p9ZDK3Wkoa7K04a29ehxjetOdZGGutaqpoHrTkrcka6LNNRV9doT152UmDTURhpqq3jtiUmDEtedaiMNtVWbNnDdSelfrceVA6ShvkrXnji5VOLksj7SUF+l80smDUJcdwqANARQ4fySk0slNiEDIA0BVDi/ZBNSiZPLAEhDAOU3Ijm5VOJDDSGQhhBKn1+yCanEJmQIpCGEe2XTwCakEJuQQZCGIEpuRLIJqfSJ9aDygTQE8Uq5NLAJqcQmZBCkIYhyG5FsQiqxCRkGaQij1EYkm5BKbEKGQRrCKHUjkk1IITYhAyENgZTYiGQTUombkIGQhkDeKJ4GNiGV+MmqQEhDICU2IllPCLGeCIU0hPKwaBnYhFRiEzIU0hBK4Y3IP7AePa5xqSEU0hBMwRUFlxqUuNQQDGkIZoP1hD3WE8GQhmAKrigWrUePa/wwTTCkIZxbrCes/bv1eHKENIRT6LI06wkl1hPhkIZw/rBIGr5lPXo8+3/Ww8kT0hBQgcvSrCeUuCQdEGkIqMCK4tvWo8e1/2U9nDwhDQEV+A4c6wkh1hMhkYaQZq4oWE8osZ4IiTSENHNFwXpCifOJkEhDSDNXFNx3UuK+U0ikIagZt55YTyhx3yko0hDUjBUF952UWE8ERRqCmvGOgvWEEu+xgyINYU19mT1nPXhc4z12WKQhrKkvs79hPXpc+4X1WHKGNIQ1dUXB92KV+F5sWKQhrKlfj+V7sUJ8LzYw0hDYlAuR/P6EElchAyMNgU35PYoz1qPHNZ5WBUYaAptyIZKjSyWuQgZGGkKbeCGSo0slji5DIw2hTTy+5OhSiaPL0EhDaBOPLzm6VOLoMjTSENrE40uOLoU4ugyONAQ34fhywXr0uMbRZXCkIbgJx5e8ulTi1WVwpCG4CZsN/AquEq8ugyMN4Y3fbLhgPXo8+1frceQQaQjvIVsNTWOrITzSEN7YzQY+GKvELenwSEN4m2w1NI2thvBIg8C4zQa2GoS41SBAGgTGbDaw1aDEVoMAaRAYs9nArQYlbjUIkAaBMTcb2GpQ4gGFAGlQGN1s4AGFED+Dq0AaFEaeUfCzVUr8bJUCaVAY+WYD32pQ4lsNCqRB4c3hNOxajx7Xfm49ilwiDQrLw2ngs5BKfBZSgTRIDH8gkgtPQrytkiANEltceGoOF54kSIPE0KUnLjwpsQspQRokhi497VqPHte48CRBGiSG9iHZhVSyHkNOkQaNmwNpsB48rrELqUEaNAb2IdmFVGIXUoM0aAzsQ3IXUoldSA3SoDGwD7lrPXpc4y6kBmnQGNiHZBdSibuQGqRBpP8+JHchhdiFFCENIn0fgZuzHj2u8SJbhDSI9L3LbluPHtf+zXoIeUUaRNZ6aeAnKJT4CQoR0iByr5cGvgupxDVpEdKgwgFFM6xHkFukQaV3RMEBhRAHFCqkQeXkqjQHFEocUKiQBpWTIwoOKJQ+sR5BbpEGlZMjCg4olP639QhyizSonPxe9q716HGNFxQqpEHl5BUFBxRKvKBQIQ0yx79u9y3r0eMZv2knQxpkjj/0ZD16XOPsUoY0yBydXvJzl0qcXcqQBpl1zi71OLuUIQ0yR6eX/AaFEl9/kyENMkenl2esR49rnF3KkAaZo7eXb1mPHtd4dylDGnS41qDHtQYZ0qBz+PbyvvXo8YxrDTqkQWeHaw1qXGvQIQ06WzzJVvsX6/HjGGnQ2eBagxo/aqdDGnTeIA1qfE5ahzTovMmNJzW+1qBDGnQ2ufGkxo0nHdKgc48bT2qkQYc0CPEjFGr/YD1+HCMNQne5DClmPXw8Iw1Ct7gMqcVlSCHSILTD79NofWo9fDwjDUJb3JPW4jKkEGkQ2uLzb1qkQYg0CK23WgvWo8c17kkLkQahN7gnrcWXIYVIg9AaadDiCYUQaRB6kycUWnw0Vog0CK3yW7havK4SIg1Cm7yu0uIJhRBpELpHGrRIgxBpELrHw0st0iBEGpRIgxYPL4VIgxJvsrVIgxBpULrLm2wpfqBGiDQo3SINUtajxzXSoEQatKxHj2ukQekmX3KRsh49rpEGpR3SoMSXXJRIgxJpkCINSqRBiTRIkQYl0qC0w6chlUiDEmlQ2uLTkEqkQYk0KJEGKdKgRBqUSIMUX41VIg1KpEGKNCiRBiXSIEUalEiDEmmQIg1KpEGJNEiRBiXSoEQapEiDEmlQIg1SpEGJNCiRBinSoEQalEiDFGlQ+r716HGNNEiRBiXSoLTFy0sl0qBEGpQekgYl0qBEGpT4XoMUaVAiDUqkQYo0KJEGJdIgRRqU/sp69Li2w8fmlUiDEmlQukkalEiDEmlQ4idqpEiD0g+sR49rt/ilbCXSoEQalFqkQYk0KJEGJdIgRRqU/tp69LjWap2xHj6ekQYl0iB0jzRIkQalH1oPH886aXjNevh4RhqUrEePa6ukQYo0CD2zHj2uddLQth4+npEGoQ+sR49rb7ZaC9bDxzPSIPSh9ehxba3VmrcePp6RBiHSoLTeas1ZDx/PSIPQ31iPHtc2Wi0+DilEGoR+ZD16XNvqpIEPNuiQBiG+5KK0QxqkSIPQj61Hj2vdNPAqW4c0CP3EevS4dqvF+yol0iDEw0ulThlau9bjxzHSIMTrKqHlbhq+bT1+HCMNQryuEtrspoFHFDqkQYcnFEqr3TTwiEKHNOh8ZD16XFvrpoGb0jqkQYd70krr3TRwU1qHNOh8bD16XOvek261LlgPIL9Igw6XIZUeHqSB65AypEGHy5BKOwdp+APrAeQXadDhxpPS3RZ3nqRIg87/tR49rh2UgTtPOqRBhxtPQpuHaeDOkwxpkOHGk9LqYRr4OqQMaZDhWoPSG4dp4GKDDGmQ4fNvSofXGrjYoEMaZLjWoPTwKA3fsh5BbpEGmb+yHj2u3TxKAx9zUSENMlxrUDoqA7+IK0MaZDi7FLp3nAZOL1VIgwpnl0qrx2ng9FKFNKhwdqn0xnEaOL1UIQ0qnF0qHZ9d8vZShjSocHaptHOSBt5eipAGFX6EQunuSRp2rYeQV6RBhXeXQssnZeCIQoU0qFiPHtdWe2ngiEKENIhwQKH0Ri8NHFGIkAYRDiiUegcUHFGokAYRPgyptNOXBl5RaJAGEV5QKN3tSwPfgNMgDSK8oBDa7CtD6xvWY8gp0qDxgfXoce3N/jTw43YapEGDXUil9f408KEnDdKgwTVppZ2BNHBVWoI0aHBNWunuQBp2rQeRT6RB46+tR49nKwNlYB9SgzRIsAup9OZgGrgPKUEaJNiFVBrcheQ+pAZpkOAupNLOUBrYh1QgDRLchVS6O5QG7kMqkAYJ7kIKbQ6VodW2HkUukQaFj6xHj2trw2lgH1KBNCh8bD16XNsaTkPrv1oPI49IgwK/aad0cyQNu9bDyCPSoMB3IYWWR8rApScF0iDAhSelN0fTwGaDAGkQ4MKT0sZoGrj0JEAaBLjwpDR84YnNBg3SIMBWg9CYrQZ+jEKBNITHb2QrrY5LA5sN4ZGG8NhqUBq31cBmgwBpCI9bDUrjthrYbBAgDeGx1SA0dquBmw0CpCE4bjUojbnVwGaDBGkIjgcUSqMPKA7xjCI00hAcWw1Kow8oDp2xHknukIbg+GKs0MqEMvDNhuBIQ2h8q0Fp5FsNJ/ihmsBIQ2g/sh49rj2cmAZ+MDsw0hAan4VUGv4sZA93pQMjDYFxS1pp7C3pQxxfBkYaAuOWtNL4W9KHOL4MizQExtGl0qSjyy6OL8MiDYFxdCk08eiyi+PLsEhDWB9ajx7XJh9ddnF8GRRpCIsPPCmNf3V5bNd6MPlCGsLi1aXQhFeXrCgkSENQvLpUmvDq8tgcK4qQSENQvLpUmvTq8hgXIkMiDUFxFVJp8lVIVhThkYaQWE8ozVhPsKIIizSExHpCadZ6gguRQZGGkFhPKN2amQaeWAVEGgJiPaE05WkVKwoB0hAQ6wml2euJVuuPrMeTI6QhINYTSrPXE5xRhEQawmE9oTTzfIIVRVikIRzWE0pF1hO8owiINITDekJoedZ9J1YUgZGGYFhPKE1/j93DiiIU0hDM961Hj2uTPyU9iG89hUIaguH7TkJTv+/EikKBNITC952Uiq4nuCwdDGkIhe/FKk37Xuygb1sPKS9IQyisJ4QKryf4PYpgSEMgXGpQKnapgRVFSKQhEC41KBW5JH2MjcgwSEMYXGpQKr4J2cXVhiBIQxhcalAqeqnhEFcbgiANYbAJKVRiE7KLjcggSEMQ/Aiu0nq5NLARGQRpCIJLDUplNiG72IgMgTSEwCakUqEvNQxgIzIA0hACm5BK5TYhu9iIDIA0hMAmpFDJTcguNiIDIA0BcBNSqcxNyGNsRNZHGgLgJqRS2U3ILjYi6yMN9bEJqVTuJiTThmBIQ32cXCoVf47dj6fZtZGG2pg0KBX4zapx+Op8baShNjYhlapsQnZxflkXaaiNk0uhCieXTBvCIA11MWlQqjppaLXesh5aqSMNdXFyKbRS5eTyEOeXNZGGmviQtFK1k8tDnF/WQxpq4uRSqfqkgWlDXaShHk4ulepMGpg21EQa6mHSoFRn0sC0oSbSUAuTBqXyH2oY9N+sR1fSSEMtTBqUdmqm4W3r0ZU00lDHBz+0Hj2eVbwj3YdrTzWQhjr4upNS9etOx7gtXQNpqOED7kgLVb4j3cNt6RpIQw1MGpTqTxqYNtRBGmpg0iAUYNLAtKEO0lAdD6uUQkwamDbUQBqqY9IgFGTSwLShBtJQ2Y+sR49rYSYNTBuqIw1VcTyhFGjSwLShOtJQFccTSqEmDa3WO9ZDLFWkoSImDUrBJg0tXlJURRoqYtKgVPf1RD9eUlRDGqrhyaVS/dcT/fhuQyWkoRqeXCrV+07DML7bUAlpqIRJg1K9jzuNYtpQBWmohEmDUthJA9OGakhDFUwalEJPGlqt162HWYpIQxX89oTQXuhJQ6s1z72n8khDBbyrUvpO8DJwXboK0lABt52EQt52OsF16fJIQ3lMGpTCXZHux3Xp0khDaVyRVpJMGlpcly6PNJT2Y+vR49ojURo4wCyLNJTFwaVS+IPLY9x7Kok0lMVtJ6XwB5fHOMAsiTSUxB6kkuLg8hgHmOWQhpLYgxRS7UEemGMnshTSUA6faVDSHFwee2A92NJCGkphD1JJtwd5iJ3IMkhDKexBKun2IA+xE1kGaSiDPUgl5R7kIXYiSyANZbAHKSTdgzzETmQJpKEE9iCVHurTwJ3IEkhDcexBKqn3IA/tWg+4dJCG4lhOCK2o9yAP8Tq7MNJQGL9xqaS90tDDr1IURRqK4i22UthfnpiGyw0FkYaiuNKg1MxyoovLDQWRhoK40qCkv9LQwwefiiENxbCcUGrgSkMflhSFkIZiWE4oNbec6GJJUQhpKITlhFKTy4kulhRFkIYiWE4oNbuc6GJJUQBpKILlhFKzy4kulhQFkIYCWE4oNb2c6GJJMRtpmI3lhFJzl536saSYiTTMxnJCSPDjt0XwlmIm0jATbyeUmno7MYzn2bOQhlk++KH16PGsmafY4+xaD73YkYZZ2GgQaugp9jh88WkG0jADX3ZS2jErQ6u1wHbDVKRhug+tB49rFueWPZxgTkUapuLcUqn5a5CDOMGchjRMxbmlkNG5ZQ/bDdOQhmnYaFCyOrfs4QRzCtIwBZ+QVrphHYYWv1kzDWmY7BkbDUIrd6270MV2w0SkYTI2GoTMNxoOzbPdMAlpmIiNBqU/to7CEbYbJiENk7DRoBTDRsMhbjdMQBom4EaDkvWNhn5ftx6DkSINE/zEevR4Zvh0YhS3G8YjDeOx0aDUxI9iF8fn4MYiDWP9jfXgcc326cQofgdzHNIwDt9oUHpsnYIR3HwagzSMwV0npTjuOg163XocRog0jMEWpFAkd50GsRU5ijSMYgtSKa4tyGNsRY4gDSP4TKxSbFuQx7gVOYw0DGMLUimeW5DDuBU5hDQM4Rak0netAzDFrvVYjAxpGPTsH61Hj2dR3YIcwQPtAaRh0I+tR49nUR5O9HBMMYA0DOBwQinOw4kePt7QjzT043BCKdbDiR5+mqIPaejzkfXgcS3+MvCaoh9p6OHYUum/Ww/7QnhNcYI0nODYUum7Eb6cGIc2HCMNx3hTpRT3sWU/Pvp0hDQc40KDUDpl4HrDMdJwhC/LC0V+oWHQ3J9YD8o4kIZDXGhQumk93EvhesMB0nCAMij9D+vBXhJt6CINXZRBKYULDYNowy9Jw4GPrQePa+kD2BlxAAAH7klEQVSVgWuRXaSBz0drpVgG2vBL0tDxEZcghdIsQ6v1wHpkmiMNlEEpjevR42T/nCL7NHA9WindMtCG3NNAGZRSLkP2bcg8DZRBKb6fqSon76dWeaeBMiil8thysqzbkHUaKINS+mXIuw05p4EyKHkoQ9ZtyDgNlEHJRxlybkO+aaAMSl7KkPE5RbZpoAxKaZ9aDsq1DbmmgTIoeSpDtm3INA0fUQYhX2VotdpZvrXKMw28m1CK99ewq8ryHWaWafiQMgil+tZymhy/7ZJjGvhyi5LHMmTZhgzTwA9bKvksQ45tyC8NfAdSKbUvxBY3n9s36LNLA2UQ2tuxHsBCc69bD9Zm5ZYGfolGaCWt35sobdd6tDYqrzQ8+4H16PEspV+vqyarBxVZpeEDftdS6Lvuy5BXG3JKA5ejlVbdPKia5kE+l58ySgNXIJX8XYEcL59DzHzS8DFlEPJ6nWFUNm3IJg0cWgrt+b3OMCqXQ8xc0vBj69HjmfdDy2F5bEbmkYZnHE0I+T+0HPaO9bBtQhZp4GhCKY+jiUELGWw45JAG3mAr5bMB2S+DzcgM0sAGpNDeH1sPUiP+NyPdp+EZryaEctuA7Od9M9J7GrgbrZTD3ejJnN+MdJ6GD9mAFMrlBuQkvjccfKeBDzoJZbvN0DP3lvX4FfKcBrYZlHLeZuhxvOHgOA3cZlDK8TbDOH5vOPhNA8+plPK8zTDOvNdTTK9peMajCaEVz9+ALM3posJpGjizVFrN+sxylM9Fhc80sJhQyv3McpTLRYXHNLCYUGIxMY7DRYXDNHAyocTJxHj+rj/5S8OPWEzocM1porld67EcmLc0PPuJ9ejxjGtO07zta+LgLA28mVC6wWJiqnlX96ZdpYH9RyX2H2d7x9FjTE9p+Igpg9BjpgwFONqNdJQGvuYkxP5jUW6OMd2kgfuPStx/LM7LxMFLGjiyFGLKUI6PiYOPNHzwA+vR4xlThrJcTBxcpOH7TBl0mDJU4eCowkEaPmSXQegxU4ZK0r/jkHwauMugtPLQeoilK/XLkamngeuPSlx/rCPxiUPaaeDDsErf5fpjTUl/4yXpNHBiKbTH5x8DOJPudmTCafiQE0shTizDSHdVkWwa2H5U4ilVOA8SXVWkmgbWEkJ732H7MaQzScYhzTSwllBiLRFakquKFNPAuYQS5xIK839iPdJLSy8Nz7gWLcS1aJXkbkAllwbuOCmxySCU2JZDYmn4n2wyCLHJoJXWlkNSafjTX2vdetd6/Li1yiaDXEpxSCgNTy4f/HVvvmc9hlziJkMz5v/IesgXlUwanly+ffzX3VqxHkfu7G1ZDpe8tBPZckgkDX1h6CIOQXHFqVlpHFakkYY/+/Phvy5xCIYwNC+FOKSQhtEwdBGHIAiDjfjjEH8axoehizjURhjsxB6H2NMwOQxdxKEWwmAr7jjEnYbpYegiDpURBntvL1oHYLKI0/Dk8swwdBGHSghDHNrRxiHaNAwdV05DHEojDPGI9YZkpGkoEYaup9yQLGOVC05RmX8rxi9IRpmGa0ulwtD1iLcVRfFWIj7zEe5IRpiGa5cq/XVvvcu6ooA1whCnt79p3YIhsaXhyZVqYei6xabDDGwxxKwd16ZDXGkoucUwaotNh8lWNwhD3OZ3I1pXxJSGiiuJQbfe3bMegnFiiyEJ8dx0iCYNdVYSg1hXjGIlkY75t+KYOkSShmt3aq4kBu1wXtGPCUNiopg6xJCGcBOGHqYOx5gwpCiCqYN9GgJPGHp22HVgwpCwB8YHFsZpeHL5ovCPezfzAwuOJNI2b7qwsEzDk6vhFxLDbn0n14XF3g0mDOkzPM60S0OF29DV7GR4TXKPS49utI22HYzSINtgGO9pXtsOq1ssJFwxqYNFGq7VvfNYxdPH1gO2IWwwuNR8HRpPwzXpxuM0d7ceu5870AXHGq5Ds2loeB0xyvPKYo91hHsLu829z2wuDU/Mu3DI567k3toOXchCYyeaDaXhyZVLUXTh0KMNX/cdVjinzMrcgyaWFk2k4dpl/f2Fsm552XjYW9143/qPieYtvKOePKjTcP3KVyKaLgzaWU998rB5g2VExtq7yjwo0/DkxTtWpxFF3X367qb1+K5ob41dR8w9kG1MqtLw5Nqd+FYR493aSm5jcm+NVQSOdfKgmD0o0tCZLaSShWO30pk9rJAFjJhrn1kM/MX60Gm4fnUp9kXEJHef3oh972HzxhZZwCQLb4dcXQRMw5MXL8e75VjUzsbjOKcPK4832HLEbO133grThzBpeHLtSrKThVF3I+vDyuMbT6kCSmi/s1t7fVE7DddfvPIVP1Xo6fThXfv1xcraBlVANQvtd87XCESNNHSisPRC8iuI6R49XTeaQHSmCluPqALqWujOIJ5rKA1PvnrVfxT6PXq6sfZeU5cn9zbX1okCAusW4vw3y8whSqXh+levXl56wePyoYi7nULceE83h1h5TBMgNrfQPnXm3GKRRhRJQ6cIV+4sXco1CcPu7jzdWF97bzPMNGJv5b21GxtbjziURKPmO5F458y584uLz43vxIQ0XL9+7cWrVy4vdYKQ0cKhrPd3drbW19cev7e5UqYTeysr7z1eu7G+9fTR+0wSEIP5+Xa7/eBUJxZdu+c6/uJq15XLXUtLS1+5dOniRaYHVdx9v1OKna2trY31rrWeg/+80flfnu7svE8Mwvn/wGTduymHxWwAAAAASUVORK5CYII=;fontSize=13;fontStyle=0;strokeWidth=2;" parent="1" vertex="1">
          <mxGeometry x="370" y="570" width="62.5" height="40" as="geometry" />
        </mxCell>
        <mxCell id="u2gEvJjWZywR1e83eSXG-55" value="Chroma&lt;br style=&quot;font-size: 13px;&quot;&gt;Vector Data" style="text;html=1;align=center;verticalAlign=middle;resizable=0;points=[];autosize=1;strokeColor=none;fillColor=none;fontSize=13;fontStyle=0;strokeWidth=2;" parent="1" vertex="1">
          <mxGeometry x="356.25" y="610" width="90" height="40" as="geometry" />
        </mxCell>
        <mxCell id="u2gEvJjWZywR1e83eSXG-64" style="edgeStyle=orthogonalEdgeStyle;rounded=0;orthogonalLoop=1;jettySize=auto;html=1;entryX=0;entryY=0.5;entryDx=0;entryDy=0;fontSize=13;fontStyle=0;strokeWidth=2;" parent="1" source="u2gEvJjWZywR1e83eSXG-56" target="u2gEvJjWZywR1e83eSXG-63" edge="1">
          <mxGeometry relative="1" as="geometry" />
        </mxCell>
        <mxCell id="u2gEvJjWZywR1e83eSXG-56" value="" style="sketch=0;outlineConnect=0;fontColor=#232F3E;gradientColor=none;fillColor=#232F3D;strokeColor=none;dashed=0;verticalLabelPosition=bottom;verticalAlign=top;align=center;html=1;fontSize=13;fontStyle=0;aspect=fixed;pointerEvents=1;shape=mxgraph.aws4.documents;strokeWidth=2;" parent="1" vertex="1">
          <mxGeometry x="510" y="568.56" width="34" height="41.44" as="geometry" />
        </mxCell>
        <mxCell id="u2gEvJjWZywR1e83eSXG-58" value="Relavent chunks" style="text;html=1;align=center;verticalAlign=middle;resizable=0;points=[];autosize=1;strokeColor=none;fillColor=none;fontSize=13;fontStyle=0;strokeWidth=2;" parent="1" vertex="1">
          <mxGeometry x="467" y="610" width="120" height="30" as="geometry" />
        </mxCell>
        <mxCell id="u2gEvJjWZywR1e83eSXG-61" value="" style="edgeStyle=orthogonalEdgeStyle;rounded=0;orthogonalLoop=1;jettySize=auto;html=1;fontSize=13;fontStyle=0;strokeWidth=2;" parent="1" source="u2gEvJjWZywR1e83eSXG-59" target="u2gEvJjWZywR1e83eSXG-60" edge="1">
          <mxGeometry relative="1" as="geometry" />
        </mxCell>
        <mxCell id="u2gEvJjWZywR1e83eSXG-65" style="edgeStyle=orthogonalEdgeStyle;rounded=0;orthogonalLoop=1;jettySize=auto;html=1;entryX=0.5;entryY=0;entryDx=0;entryDy=0;fontSize=13;fontStyle=0;strokeWidth=2;" parent="1" source="u2gEvJjWZywR1e83eSXG-59" target="u2gEvJjWZywR1e83eSXG-63" edge="1">
          <mxGeometry relative="1" as="geometry" />
        </mxCell>
        <mxCell id="u2gEvJjWZywR1e83eSXG-59" value="Optimized prompt" style="whiteSpace=wrap;html=1;fontSize=13;fontStyle=0;strokeWidth=2;" parent="1" vertex="1">
          <mxGeometry x="341.25" y="438" width="120" height="40" as="geometry" />
        </mxCell>
        <mxCell id="u2gEvJjWZywR1e83eSXG-62" style="edgeStyle=orthogonalEdgeStyle;rounded=0;orthogonalLoop=1;jettySize=auto;html=1;entryX=0.5;entryY=0;entryDx=0;entryDy=0;fontSize=13;fontStyle=0;strokeWidth=2;" parent="1" source="u2gEvJjWZywR1e83eSXG-60" target="u2gEvJjWZywR1e83eSXG-54" edge="1">
          <mxGeometry relative="1" as="geometry" />
        </mxCell>
        <mxCell id="u2gEvJjWZywR1e83eSXG-60" value="Embedding" style="whiteSpace=wrap;html=1;fontSize=13;fontStyle=0;strokeWidth=2;" parent="1" vertex="1">
          <mxGeometry x="341.25" y="520" width="120" height="22" as="geometry" />
        </mxCell>
        <mxCell id="u2gEvJjWZywR1e83eSXG-68" value="" style="edgeStyle=orthogonalEdgeStyle;rounded=0;orthogonalLoop=1;jettySize=auto;html=1;entryX=-0.033;entryY=0.735;entryDx=0;entryDy=0;entryPerimeter=0;fontSize=13;fontStyle=0;strokeWidth=2;" parent="1" source="u2gEvJjWZywR1e83eSXG-63" target="u2gEvJjWZywR1e83eSXG-71" edge="1">
          <mxGeometry relative="1" as="geometry">
            <mxPoint x="700" y="610" as="targetPoint" />
          </mxGeometry>
        </mxCell>
        <mxCell id="u2gEvJjWZywR1e83eSXG-63" value="" style="shape=image;verticalLabelPosition=bottom;labelBackgroundColor=default;verticalAlign=top;aspect=fixed;imageAspect=0;image=data:image/png,iVBORw0KGgoAAAANSUhEUgAAAyAAAAMgCAYAAADbcAZoAAAABGdBTUEAALGPC/xhBQAAACBjSFJNAAB6JgAAgIQAAPoAAACA6AAAdTAAAOpgAAA6mAAAF3CculE8AAAABmJLR0QA/wD/AP+gvaeTAACAAElEQVR42uz9Z3Qc150uej9V3Y1GI+ecc84EwJyjRFISJVr2OMoKzknBc9Zd7708d91zzliWbXk8tkfZY49tiZQsMYk5JxAkck5EzjmH7q56P1CUZVkBIBGqup7fWrNGkiVi139vdNdTtYMAIpX7zv7fOpl0Rk9YZS/IspcgiJ6yLLgIkF0BQBZgFAQ4AAAkOAuCoJcFWYAMN1aPiIiWjIAhQRZkSYBZgDwGALKMCUHGNABAxJAsySOiKPbDKvSJornPOmXqf+GrXx1n8UjdQ59Iofa98Yb9hKMUKkMOl2QhTBDlMEgIhQA/AbKnDMETgCcAI6tFREQaMgXI/YDQLwP9AtApQ2gBpEZREJusVmuT2WWq+Tc7fjDNUhEDCNHHQ8b+/XYj0mi8KEjJEIQ4QZbDZEEMB+QwAP4co0RERHdFBuQOQGiCgEZBQpMsoMoKXdn44Ez1y089ZWaJiAGEbN6//vl37maDMRGQMwUgE0ACgEQA9qwOERHRorEAqAVQAVmuBIQCq16s+NVD32iEIMgsDzGAkCr9dP9LrhZBv0KU5BWyIKwA5HQA7qwMERGRYvUDcpEA4aokS1dnzA7XfvPlL4+wLMQAQor03F9fC5D18koZwirI8koA6QBEVoaIiEi1rABqABTIkC/rRfnKzx5+soJlIQYQWhI/+evrwaIob4OALYC8ErfXaxAREZFNk9tlCJcFCKes0B//1d6vtbMmxABCC2LfuX360d7gXEGQ74eMTQAyOH6IiIg0fyN5SxaEI5CEw06C08V9e/fOsCrEAEJ37el3Xg2FRdguCPI2ABsBOLEqRERE9ClGAJyGLByXJOH4L7/4WCtLQgwg9Ll+8tfXgwWd9JAAPAJgBccIERER3aVKyPIBQZb+9PNHn2pgOYgBhD703DuvBFmtwh6GDiIiIlq4MII/WgXDf3PdCPFGU6Oe/stLXqJBv0OWpa8AwgZwxyoiIiJaeBKAazJwwKqz7n9xz1OdLAkDCNmwffv2iWPxIRsgSE8CeBCAnlUhIiKipQsj8llBEF529Gp7d9/6fRaWhAGEbMRz77wSJFmEf4GA7wAIYUWIiIhIYToh4I9WUXz5V3seu8VyMICQCu3bv99uXBjZLcnCVwXI2wHoWBUiIiJSuL+/FZFdDnJbXwYQUoHn3nklyGoRvi8I+AYAb1aEiIiIVHqb2iMDr0vQ/wcXrjOAkAL95M3XUkVRfhrAowAMrAgRERHZCDOA92RJ+vkvHn3yBsvBAEJL7On9r60C8FMB8n3sTyIiIrJxVyDjZy/s/eYRCILMcjCA0CK5vb5j9FFZlp8FkMSKEBERkbZuYOUyCfgP53H9H/d94xtTrAgDCC2QH+/fbxLlkW8JAp4D4MeKEBERkcZ1QJZ/5jShf5lBhAGE5tG+/fvtRjH8dQH4vwEhkBUhIiIi+gdtMvCC87juJQYRBhC6B0++9JLB1UP/Rcjy/yMDEawIERER0WdqkSH/L2fv9td5sCEDCM3Bvn37xPHEoD2yjP8FIJoVISIiIpo9GWgC5P/DIMIAQrPw9P5XHhYg/H8AYlkNIiIiontSBQj/1wt7v/kuS8EAQh/zk7dfTRclvAhgDatBRERENH9k4JwsCT/+5aPfLGE1GEA073/87b88zVbL/w1Z/i4AHStCREREtCAkAH82W+Rnf/2lJ7pZDgYQzXnypZcMzu667wjA/wTgyooQERERLYohyPi3aeeJF3+z4wfTLAcDiCY889brmyBIvwaQwGoQERERLYk6QcD/9fNHHj/AUjCA2Kyn33k1VLDi9wC2sxpEREREinBYsorf/eUXH2tlKRhAbMa+ffvE0YTAxwUILwBwZkWIiIiIFGUCMv7fZsHlhQN791pZDgYQVXvmzVeTBBGvyEAuq0FERESk6FvjqzKEJ36x97FK1oIBRHWefOklg4ub7icQ8D8BGFkRIiIiIlUwQ8Avpx0n/h8uUmcAUY2fHHh5hSiLr4CLzImIiIhUSQYqZEl+/JePPpHHajCAKNb33/93o/2o4/+SBfnHAERWhIiIiEjVJFnGC86Cy/9v3969MywHA4iiPPfmK/GSKPwZQDqrQURERGRTyq3QfelXe79RxlLcOz6lnwfPHnjtq5Io3GD4ICIiIrJJSTpYrj+9/9UfQpb5AP8esYD34H/sf93bDOk1ADtZDSIiIiJN3D6fECB+/ed7v9HFWjCALKqn97+yWYDwXwD8WQ0iIiIiTd1C9wDyYy/sffwoa8EAsuD27d9vNyaM/hyy/H3Wj4iIiEizZAC/Ghm0/uvLTz1lZjkYQBbEc399LUDS4QAgr2A1iIiIiAjAZYvOuvfFPU91shQMIPPq6f2vrRIg7wenXBERERHRP+qQBOmRXz7y5FWW4vNxF6xZhY9XnhQgn2X4ICIiIqJPECDK4oVn3nr1pyzF5+MbkM+w74037Ecdrb8XgK+zGkREREQ0C39xMlmf2LfzqQmWggFkTn68/9UoPeS/yRCSWQ0iIiIimoMSq0586Fd7HrvFUjCAzMoz+1/ZAAjvAHBjNYiIiIjoLgwIEB/6+d7HLrAU/4hrQD7m6bde/RogHGP4ICIiIqJ74CFDOvnMW698maVgAPlksiw889Yr+wQBbwCwY0GIiIiI6B7ZQRD++Mxbr+yDLHPm0QdYCHxwuCBGXgXwFVaDiIiIiOabDPxhdND6JA8tZADBv/75d+5mg907ArCevxpEREREtIA33mfMBt3DLz74jSEGEI16Zv8r4YBwFEA8fyWIiIiIaKHJQAV0uO8Xex5vZgDRWvh4+5UUSMIJAH78VSAiIiKiRdShE6UtP3v4yQoGEI14ev8rmQKE4wC8OP6JiIiIaAkMQhS3v/DwY9e1duGa2wXr6f2vrRIgnGX4ICIiIqIl5A5JOvHsW6+uZACxYc8ceGWdAPkYABeOeSIiIiJaYq6ygJNP739lMwOILYaP/a/eB1k4BsCJY52IiIiIFMJBgHD46bdefYABxIY8u/+VLwB4F4A9xzgRERERKYxREHDg6f2vauJMOpsPIE+/9erXZAh/BmDg2CYiIiIihdILwBvPHnjtq7Z+oTa9C9azb722RxbkNwHoOaaJiIiISAWsEPDlFx55/E0GEJX5yf7XdomQ3wbffBARERGRupghY88LX3j8MAOISjzz1uubIEiHwTUfRERERKROMwKw++d7Hz/OAKL08LH/teWAfBLc7YqIiIiI1G1ClrH9F194/CIDiEI9u//lNBniWQDuHK9EREREZANGRFHY+PzD37xpKxdkM7tg/Xj/G8kyxNMMH0RERERkQ1wkST7207dfTrSVC7KJNyDP7H8lHBCuAvDjGCUiIiIiG9SpgzX3Z3ufalH7haj+Dcj3//u/XQTgIMMHEREREdkwfyt0x3707htuDCBL6MmXXjLY2039TYaQzDFJRERERDYuQW+2vrtv/347BpClIMuCi5v4qgxs5FgkIiIiIo1YNyaP/qeaL0Cn1oY/kxC0D4LwQ45BIiIiItIUAenL9+6yXjtw6KI6m69CT7/1yhcFQfgzbPgkdyIiIiKizyDLwNd+sffxPzGALLBn97++VoZ0AoCR446IiIiINMwsCdj+y0ceP8MAskB+vP/VKB1wA4AbxxsREREREQYAOeuFvU80qqXBqlmE/uP9+006YD/DBxERERHRhzwA4b19h19yYACZZzp5+D8BpHOMERERERH9g5SxSd0rDCDz6JkDr/0IgvBVji0iIiIiok/0pWffeuW7amio4teA/OTAyytEWTwHwI7jioiIiIjoU5kFQd7480eeuMQAcpee3f+GnwxrAYAAjiciIiIios/VJVqFzOe/+M0OpTZQsVOwnnzpJYMM636GDyIiIiKiWfOTdDiwb/9+xc4eUmwAcfHQvwBgNccQEREREdFcyCvG5dH/rdTWKXIK1tNvvbxVEMRj4EnnRERERER3lUIEWb7/51944n0GkM/xP/a/7m2GVArAj+OGiIiIiOiub/S7Zyxy6q+/9ES3ktqlrClYsiyYIb3G8EFEREREdI+31oCvQS+8pLR26ZTUmGcSg78H4EccLkRERERE8yJu+SM7O68dOFyglAYpZgrW0/tfTxBgvQkIJo4TIiIiIqJ5MyGL1sxfPPxUtRIao4gpWN9//9+NAqQ/M3wQEREREc07B0ES/6yUrXkVEUCMYw7/G0AaxwYRERER0UIQMkYx+j8V0ZKlbsBP3nwlVxSFK1DwmSRERERERDZAkgRp9S8fefLqUjZiSW/6v//+vxtFUXiN4YOIiIiIaOHv/UVZfGmpp2It6Y2/cdzx/wKQwLFARERERLQoksbk4Z8uZQOWbArWM2++mgQRBQDsOA6IiIiIiBbNtAwx4xd7H6tcih++JG9A9u3bJ0IUXmL4ICIiIiJadEYR0mv79u1bkiywJD90NCHo+4C8gn1PRERERLT4ZCB3PCHwqaX42Ys+Beun+18KsUJXAcCJXU9EREREtGRGRJ2c+PyeJ9oW84cu+hsQK3QvMXwQERERES05F9kq/Haxf+iiBpCn33r1AQDb2NdEREREREtPBnY9feC17Yv5MxdtCta+/fvtxjBSDiCaXU1EREREpBRC9cigJeXlp54yL8ZPW7Q3IOPCyI8YPoiIiIiIlEaOc/HQf3fR4s5i/JBn/vZ7H1gMtQBc2cFERERERIozJFus0b/40lN9C/2DFucNiEX/vxk+iIiIiIgUy03Q6/7fxfhBC/4G5Nn9L6fJEG8C0LFfiYiIiIgUywpRznjh4SdKF/KH6Bf6KmQILzJ8EBF9Np0owsHOCHuDHewNdjDd+f92drDT6aHX3f4YFQQB9nq7f/hvZ6wWWCUrAMBitcJsvf3XMxYzxmemMTEzjbHpSUxMT2PaYmaxiYjoU7+OZEl4EcCGhfwhC/oG5On9rzwsQDjAviQiLRMEAa4mR3g5ucDLyQWuJge4OjjC2WiCq4MjnIwmONubFqUtVknC+MwUJqanMTo9iYHxUQyMj2JwfOzDvx6dmmSnERFpmCzjwV984fH3VBdAHtm/XxeK0XJAjmM3EpEW6EQRPs5u8Hd1h7+bB7yd3eDl5AJPJ2foRfW8CDZbrRgYH0Xv6DA6hwfQOTyAjqEBDIyNQGY3ExFpQWUzXFIO7N1rXYg/fMGmYIVh9CsywwcR2XDYCHTzRKinD4LcveDn6gFfFzfoRFH112bQ6eDr4gZfFzckBYZ++M+nLWZ0Dv09kLQO9KJzeACSzFhCRGRjEkKE0UcB/Hkh/vAFeQPy5EsvGVzdddUyEMH+IyJb4Gi0R4SXH0K9fBDqcTt03FmXoWVTZjOa+rvR2NeFxt5utA72wmK1csAQEalfvZN3W/y+9fss8/0HL8gbEGd38RsMH0SkZnZ6PcK9/BDtE4Bo3wD4u3pAEAQW5mPsDQbE+QUhzi8IAGCRrGgd6MOt3i7Udrehqa8HkiyxUERE6hM11hf4FQBvzPcfPO/fpvv277cbxUiNAISx34hITbycXJAYEIr4gGCEefraxHSqpTY5M42a7nZUdbSguqsNEzPTLAoRkXo0O8ElZt/evTPz+YfO+xuQMYw8yfBBRGogCAJCPLyRGBCChIBQ+Lq4sSjzzGRnRFpwBNKCIyDJMlr6e1DZ2YrKjmZ0jwyxQEREyhY6Jox8A8BL8/r9O59/2L433rAfc7TUA0Ig+4uIlCrYw/vDm2IXkwMLskQ6hgZQ1NKA4tZbGJoYY0GIiBT6cW2FS9Sv9u6dtz3a5/UNyJij9B2GDyJSIh8Xtw9Dh7ezKwuiAAFuHghw88B9KcvQNtiHwuZ6FLXcwtg0zyEhIlLSx7VeGH0cwG/m6w+ctzcg33//343GMYcmAH7sJyJSAqPegLTgCGRHxCLEw5sFUQGrJKGmqw35jTWo6mzlFr9ERIogtzvBNWK+1oLM2xsQ45jjlwGZ4YOIllyQuxcyQ6OQGRoFk52RBVERnSgiISAECQEhGJmcQEFzPa7UV2J4cpzFISJaMkLgqDzyRQD/NS9/2vyEIll4+sBrZQKQyA4ioqW6cU0LjsDq6CQEunuyIDbEKkkobWvEtYZqNPZ1sSBEREuj/IVHvpkCQbjnV9PzEkCefeuVHbIgHGW/ENFiczTaY3lkPFZExsPZ3sSC2LjO4UFcritHQXM9rBLPFyEiWkyyLG37xReePHGvf868TMGSBfFpgPN0iWjxeDu7Yl1sCjJCInkiuYb4u7rjkazV2JKYgQs1ZbjeWIMZi4WFISJaBKIgPg3gngPIPb8BeebtV1IgCcVYgEMNiYg+ztfFHevjUpAeEgFR4EGBWjc+PYWrDVW4XFfBQw6JiBaBACn953ufLL6XP+Oe34AIVjwnCwwfRLSwAt08sTEhDUkBoRAEfuTQbY5Ge2xOSMfq6CRca6jCxdpybuNLRLSAZFn4MYCv3VuIuQc/3v9fgTqYGwEY2B1EtBB8XdywLSkLiYGhfNJBn2vaYsbF2nJcqCnDtMXMghARzT+zZBUjf/nFx1rv9g+4pzcgomz+AQSGDyKaf64mR2xKSEN2eAynWtGsGfUGbE5Ix4rIeFyoLcOl2gpYJCsLQ0Q0fwyiXvougH+92z/grh8o7tu/324Mo62A7MN+IKL54mBnxIb4VKyMTODicrpnfWMjOFZ2E2VtjdwqhYhoHj9ep50mgn6z4wd3tfjurt+AjGP4QUBg+CCieSEKInIj47A1MQMOPDyQ5omXkwu+snwDWgZ6cbjkOpr6ulkUIqJ5+Hi1GzPtBPD2ogYQQHiCtSei+RDh7YcH0pfD39WDxaAFEeLhje+svx+FzfU4UpLPhepERPdIgPj43QaQu5qC9cz+V8IBoR4AJ2YT0V1zc3DE/SnZSA2OYDFo0UzMTOP90hvIb6zhtCwiorsnC5I1+uePPtUw1/9QvMsf9wTDBxHdLQFAbkQcntm6h+GDFp2DnREPZ63CDzbtRrCHNwtCRHSXX+eyTn9X2/HO+Q3IvnP79GO9Qc0AAlh3Iporf1d3PJy1GiG88SMFkGQJl+sqcbKikNv2EhHNmdzeDNfQA3v3zmm7wTmvARntCbpfEBg+iGhudKKINTFJ2JKYAb3I3a1IGUTh9rhMDgzDmzcu4FZvF4tCRDRrQmCYMLQdwJE5ffbO+ccI4OJzIpqTQDdP/Hjzg9iRvIzhgxTJ3dEJT63dwTFKRDRHsiw+Puc8MZd/+UfvvOSvt+paAfDTmYg+/wNGELAqKgH3pWRDJ3LZGKlD98gg/nr9AtqH+lkMIqLPZzFb5KBff+mJWe9zPqc7Ap1Vt5fhg4hmw93BCd9auwO70nIZPkhVfF3c8f2Nu7AlMQOiILAgRESfTa83CHvm8h/M6a5AgLCXNSaiz5MZGoWntz6ECG8/FoNUSSeK2JyQjm+tuw+uJgcWhIjoszKCLM8pI8z60c5P/vp6sKiTmnGXZ4cQke3T63S4L3kZVkUnshhkM8anp/CX6+dR293OYhARfTLJCkPIr/Z+bVYflLN+AyLorXsZPojo03g7u+IHG3cxfJDNcTTa4/E127AjeRkETskiIvrETKGTZ2Y9DWv2U7BkTr8iok+WERKJH27aDX9XDxaDbJIAYH1cCh5btQUOdkYWhIjonz4oZ58VZvUo56f7XwqxQtcEvgEhoo8QBQHbkrKwPi6FxSDNGJoYx3/nnUVzfw+LQUT0d7KsQ/gv9jze/Ln3D7P50yRB9yjDBxF9lIOdEY+v2cbwQZrj5uCIb63bgczQKBaDiOjvBME6u92wZhVAZFn+AmtKRHd4O7viext2ItongMUgTdKLOjyavRa703K5LoSI6E5mwOwyw+d+aj79zquhghVNLCkRAUBiQAi+mLMORr2BxSACUNTSgP03LsEiWVkMItJ8BhF1csjze55o+6x/6fPfgFiE7awlEQFATngsvrpiI8MH0Uekh0TiW+t2wMloYjGISOsEqyRs+7x/6XMDiCjIDCBEWv80AbAlMQMPZ62CKPBUc6KPC/X0wfc27oSPixuLQUTavmeQ8bkB5DOnYO3bv99uDCN9AJxZTiJt0os67F22GukhkSzGIrFYrRifmcb49BTGZ6YwOTMNqyRh2mIGAMxYLLBKEgLcPCAKIowGA8QP1iGYDHYw2Rlhb7D78J/R4pmYmcbrl09yhywi0rKRkUGr18tPPWX+1HuLz/yvhZHVoszwQaRV9gYDvr5yMyK9/VmMeb5J7RkZwsDEGAbGRzE4PoqB8TEMToxhdGoCMxbLvPWfvcEIZ3sTXE0OcDU5fvB/DvBydoW3sytMBjt2yDxysDPiiTXb8Icrp1Hf08GCEJEWuTi76ZYDuHhXAUTE579CISLbvZF6fPVWBHt4sxh3SZZl9IwOo2OoH53DA+gcGkDn8ACGJycW5edPmc2YMpsxNDGG1k/5d5yMJvi4uMLH2Q0Bbh4IdPeCv6sHDDodO/AuGfUGfHPVFvzx2hlUdbayIESkPYKw/a4DiCxjO1/gE2mPs70JT6zZxpPN58hstaB1oA+NfV1o6u9Bc183Js0zim7z2PQkxnoncau368N/JgoifFxcEeTuhQhvP4R7+cHLyYUdPAd6nQ5fW7EJf7l+HqVtjSwIEWkrf0DeBuB/fPr//imee+eVIMkq8NENkca4mhzx1Nrt8HZ2ZTE+hwygY6gfNV1tqO5sQ8tAD6ySZJPX6mJyQISXH6J8AhDnHwRXkyMHwCxIsowDNy/hZlMdi0FEmvqKFK1C0PNf/OYnzkX91DcgVit28O0HkbZ4ODrjqbXb4eHIpV+fxmy1orqrFVWdrajpbMPI1IQmrntkcgLFrbdQ3HoLAODv6oE4/yDE+QUjzMuXC94/hSgI2LtsDex0elxtqGJBiEgrBEkvbQXwxpwCiABx8+3ne0SkBa4mRzzJ8PGJLJIVdd3tKGltREVHM6bMZs3XpHP49nqWc9WlcLAzIt4/GKnB4Yj1C+JWzf/0fQo8kLECkiwj71Y1C0JE2iAJW+YcQAB5JStHpA0uJgd8a90OeDJ8/IPGvi7kN9aivL0ZUwpfy7GUJmamUdBcj4Lmejjbm5ASFI5lYTEIdPdkcT4SQh7KWIFpixlFLQ0sCBFp4INPXv1Zn4n/5Nk3X4qURV09K0dk+5ztTfjWuh3wcXZjMQCMT0+hoLke12/VoGd0iAW5BwFunsgOj0F6SCQc7IwsCACrJOGP186gsqNl3v9sk50RDnZGmAx2t///B39t0Omg1+mgE0TY6Q0QBMDeYAdZxj8Fa0mWMW2ZwZTZjBmLGTNWC6bMM5g2mzE6PYmxqUmYrVZ2JBHNig7W0J/tfeqfPvA++Q2ITr8SMqdfEdk6R6M9nlizneEDQMtALy7VlqO8vRkWiTdY86FjqB/vFV3DkZJ8pAaHY1V0IoLcvbT9ZSyK+EruBrx2+eSczgkx6g3wdnaFp5ML3EyOcHVwhJvJES4mB7g5OMHZ3rRo63CmLWaMTE5gbHoKo1MTt8+wGR/FwAfn2QxMjMLCkEJEACyyuBLA7AKILMkrwPWERDbNTq/HY6u2wN/VXbM1kGUZFR0tuFhbhsa+bg6KhfoCkqwfTtEK9/LD6uhEJAaGanbhul6nw9dXbsIrF4//04npDnZGBLp7IsDNE95OrvBydoG3sytc7B0U0/47YeizdsobmhhHz+gQOocH0DMyhM7hQfSMDGHawvVTRJoiiisB/HVWAQQCuP6DyJY/DwQRX87dgBCNHjJokay40ViHi7Vl6Bsb4YBYRI19XWjs64KHozPWx6VgWVgMdKL2Fq3fOazwUMl1uDs4IdDdE4FunnBzcLKJ63NzcISbgyNifAP/HvgB9I+NoHWgF22DfWgZ6EX7YD/MVgt/MYhslCDLqz45anzMj959w01vtvYD4DYmRLb4YQDgkazVWBYeo7lrt0oSbjbV4XRVMYYmxjgYFHKjui42BdnhsTx9XYMkWULX8BCa+rrQ0NuFht5OjE9PsTBENvRrroPV42d7nxr+6D/8pzcgOou0nOGDyHZtTcrUXPiQZBlFLQ04VVGI/vFRDgIFGZoYx3tF13C2qgSbEtKQHR6ryTciWiUKIgLcPBDg5oEVUQmQAfSMDKK+pxMNvZ2o6+7gDnREKv81lwR9DoCTnxlABJnb7xLZqpyIWGyMT9PUNVd3teFwyXX0jAxxACjYyNQE/lZ4FZfqKrA9KQtJQWFciqhBAgBfF3f4urhjZVQCJFlCY183qjtbUdXZhu6RQRaJSG1uZ4vPDiCAsJwHEBLZnghvPzyYvkIz19szOoTDxddR3dXGzleR3tFh/PHaGYR6+mBnag5CPX1YFA0TBRGR3v6I9PbHfSnZGBwfQ2VnC0rbGtHY1w2ZO3YSKT9/QP6nm49PCCByKktFZFs8HZ3x1eUbNTG1ZXJmGqcqi3C1oQpWSWLnq1Rzfw9+e/YwssJisCMlC05GE4tCcHd0wsqoBKyMSsDI1ATK2poYRogUT0j/p3/y0b/5yV9fDxZ1UgsLRWQ77A0GfG/DTvi62P52u6VtjXiv6BpGpybZ8TbEZGfEtsQM5EbGa3brXvpsI1MTKGppwM2mOnQNc5oWkdJYdNaAF/c81Xnn7//hDYiok1JYIiLbIQgCvpSz3ubDx/DkBN4tvIqKjmZ2ug2anJnGu0XXcKOpDl9YtgZ+Gj67hj6Zi70D1sYkY21MMloHenGzuR5FLQ2YnJlmcYgUQGcRUgB8cgCBgBQu/yCyHZsT0hHvH2yz1ycDuH6rGkdLb3CnHA1oG+zDi6ffw6aEdKyPTeFuWfSJgj28EezhjZ2p2Shvb8bV+koeNEq0xARBlwLgxCcGEAFCsswEQmQTYnwDscmGd7wanZrEWzcuooaLzDXFKkk4UV6A8rYmfCF7DfxdPVgU+kR6UYe04AikBUegY6gfV+urUNhSD7PVyuIQLTo5+aN/9w+nPq14ZNc+ANxyhEjlXE2OeHLNNtjpDTZ5fRUdLXj10gl0Dg+wszVqdGoSNxrrYDQYEOLpwy176TM52zsgISAEyyPj4WS0R8/oEKbMZhaGaBETyNUDh1668zcffmZ///1/NxrHHEYBGFgjIvXSiSK+tXYHwrx8be7azFYrjpXdwOW6Cr6rpQ/F+AbiC9lr4GLvwGLQrFglCcWtt3CuugTdPCOIaDFMjwxanV9+6ikz8JETz+3H7OMZPojUb0fyMpsMH31jI/jNmYO4xPBBH1Pb3Y5fnzqIup4OFoNmRSeKyAyNwtNbHsLXVmzieTNEC8/o7inE3Pmbv68BEXQp4B7aRKoW4xuI1TFJNnddVZ0t+Ov1C5jkQnP6FCNTE3j14nFsT87C2tgUTsmiWREEAUmBoUgKDEVddwdOVBSgub+HhSFaABarkAKg4h8CiCzLMSwNkXqZ7Ix4JGu1Td14yQDOV5fiWPlNHjJGn0uSZRwtvYGmvm48mr0O9ga+1KfZi/YNQLRvAOq6O/B+2Q20DfaxKETzGfiB2Dt//dE9DMNZGiL1eiRrFdwcHG3meqYtZvzhyim8X3aD4YPmpKKjBb89dxgTPAOC7jKI/GDTbnxl+Qb4uLixIETzRRTC7vzlR7bhFcLAmdVEqpQdHoPkwDCbuZ6RqQm8cfkUn0DSXQly98L9KdlwsDOyGHRXBAApQeFICgxFfmMtTpQXYmx6koUhuhfy3192fCSAyHwDQqRCHo7O2JWWazPX0zk8iNcvn8DQxDg7l+bEzcEJ25MykR4SCUHgKhC6d6IgIjciDqnBEThTWYzL9RWwShILQ3R3wj8a8rHvjTfsxxytEwDX7RGpiQDg8TXbEOMbaBPXU9vdjj9dO8P9+WlODDo91selYF1sCgw6HQtCC6ZvbARHSvJR0dHMYhDNneQEF9O+vXtn9AAw4SiFMnwQqU9WeIzNhI/Kjhb86dpZWCSeUkyzD+DJQeG4PzUb7g5OLAgtOC8nF3x95SZUdbbg3aJrGBwfY1GIZk8clwaDATToAUDm9Csi1XG2N2FnSrZNXEtRSwPezL8ISebUBpqdIHcv7ErLRbgNnnlDyhfvH4Ion0CcrynFmapiTssimiVZMIR/GEAkWQgTBC5AJ1KTB9NXwGQDi2zzblXjb4VXudMVzYqLvQO2J2chMzSK6zxoSRl0OmxOSEdyYBjeKbiCpv5uFoXo8yNIOPDBInRBlMO4ARaReiQFhiI5KEz113G5rgKHivP48UOfS6/TYU10EjbEp8Ko5/kepBx+ru74zvr7cKmuAsfLb8Js5TRSok+NH6IU9mEAkWWE8TkSkToYdDrsTM1R/XXcaKxl+KBZSQgIwa60XHg6OrMYpEiCIGBNTBISA0Kw/+Yl3OrtYlGIPoEI8SNvQABOoiVSifVxqfBQ+Y1YYXM9DhRcZvigz+Tj4oZdqTmI9QtiMUgVPJ1c8K21O3ClvhJHS29wUw2ij5Nlnw8DCAAvVoRI+TwcnbE+NkXV11DW1oS3blzimg/6VI5Ge2xLykR2eCxErvMglREEAauiExHp448/551D98gQi0J0J398kDnuBBBPloRI+Xal5UCv4nMOarra8Ofr57jbFX0inShiZVQCNiWkw2SwY0FI1fxdPfDDTbtxsCgP1xtrWBCij2SOOwHEg/UgUrZYvyAkBoSqtv0dQ/3407Wz3K6SPlG8fzB2pubA29mVxSCbYdDp8XDWKkT7BuLtgsuYMs+wKKRxsicACM8dfM1ZmpZHWBAi5RIEAT/e/AD8XdX5rGB4chy/OXMIw5MT7Ez6B1znQVoxMD6K/847h9aBXhaDNM3JZHXUixOip6TjIikiJcsIiVRt+Ji2mPH65VMMH/QPTAY7rI9LxZqYJOhEkQUhm+fh6IzvrL8P7xVe45Qs0rSRMYOnXjJIXuCMCCLF0os6bE3MVGXbJVnGn66dRcdQPzuSAACiICAnIg5bEzPgaLRnQUhzn+cPZ61CoLsXDhZf45RU0iaD5KW3Wq2egsCnT0RKtSIqHu6OTqps+/Hym6jpamMnEgAg0scfu9NyVfs2j2i+LI+MQ7CHF/7r6hkMTYyxIKQpolX01EPUeYHbYRIpkr3BDhviUlXZ9rL2JpyvLmUnEjydXHB/SjaSAkNZDKIPBLl74fsbd+KNy6fQNtjHgpCGEojkpRclyU3mPutEirQqOlGV01R6R4ex/8YlHjSocXZ6PdbFpmB9bIqqt48mWigu9g747vr78eaNiyhpvcWCkCYIsuyul0TYC7xLIFIco96A1dGJqmv3tMWMP1w9ze0mtfzlIgjICovG9qQsONubWBCiz6DX6fAvOevganLAxdpyFoRsniyIRr0Agac9ESnQyqgEONgZVdfudwuvoocn/2pWsIc3dqflItTTh8UgmkNo35maAx8XN7xbeJWL08m2SbJRD0k2glOwiBTFTq/Hmpgk1bW7pLURBc317EANcnNwwn0py5AaHAF+oyjHpHkGkiRhymKGJEmYtphhlSTMWCwf/js6UYSdXg9REGD84AR6B4MdDHo99CKnzi2mnPBYOBtN+O+8szBbeUQC2SrZTg++ASFSnOUR8apb+zE0MY53Cq+w8zTGoNNjfVwK1sUmw6DTsyCLaHx6Cl3DgxicGMPw5DhGpyYxPDmOsakpDE2OY3Rq4p6fpDvYGeFs7wBXkwOc7U1wMTl8+Pc+zm7wdnblOS7zLCEgBI+v3oY3rpzElNnMgpDtEYTbU7BkLhUlUgy9qMOaWHW9/ZBlGW/mX8DkzDQ7UCvfHwDSQiKxI3kZ3BwcWZAFNDEzjc6hAXSPDqFreBA9I0PoGhnE+PTUovzsiZlpdI8MfuL/LgoivJxc4OvqBl9nN/i6usPH2Q1+rm4QucX/XYvw9sNTa3fg1UsnFqWfiRb5rsFOL0GyE/jCnEgxUoPD4WLvoKo2X6wrR0NvJztPI4I9vLErLQdhnr4sxgLoHxtBU38PGnu70Njfjd6RIcU+JpRkCT2jQ+gZHULZR/65nV6PEA8fhHv5IszLF6GePjDqDezcOQhy98J31t+HVy4ex9DEOAtCtkMQjXpREI18A0KkHGpb+9E/PooT5YXsOA1wsXfA9uQsZIZGQeDawXkzOD6Gqs4W3OrrQmNfN0YmJ1R/TTMWC+p7OlDf0wEAEAUB/m4eCPfyQ5RPAGJ8AzhlbxZ8nN3wnfX34z/Pv4+B8VEWhGwjf0Cy00uQ7fg1QqQMkT7+CHDzVFWb/1ZwBWarhZ1nw3SiiBWR8diSmAl7A59iz4fukSGUtjWisqMF7YN9Nv8YUJJltA/2o32wH5frKqDX6RDu5YsE/xAkB4XD1eTAQfEp3B2c8O11O/Cf599HP0MI2QBZEo16AeAidCKFUNu5HzeaalHb3c6Os2HJgWG4LzUbno7OLMY93YBLqOlqR0VHM6o6WjEyNaHpelisVtR1d6CuuwOHSq4jyN0LiQGhSAkKg7ezKwfMx7g5OOGptTvw+/NHMTgxxoKQqgmQ7PQA+DiLSAG8nFyQ4B+imvaOTk3iSEk+O85G+bt6YHdaLiJ9/FmMe9A9MogbTXUobK7H6NQkC/IJZFlG60AvWgd6cbz8JsI8fZEVFo3U4HDYG/iM9A53Ryd864M3IQwhpOrfeUGw4wRMIoXIiYhT1bz6Y2U3McFdr2yOo9EeWxMzkRMRC5HrPO7K5Mw0iltv4UZTHVoHelmQOWrq70ZTfzcOFl9DcmAYssJiEOXjz3VHADwcnfHUuh343bkjNrFWiLSLAYRIAXSiiKywKNW0t22wDzeb69hxNjYGV0TGY3NiBkx86nxX2of6cbGmDKXtTbDwELl7ZrZaUdjSgMKWBrg5OGF5ZByWR8TBZGfUdF08HZ3xxOpt+N35o9z6nBhAiOjuJQaEwsloUk17DxVfhyxz9zxbEe0bgN1pufB1cWcx7kJTXzfO1ZSiqqOFe0oukKGJMRwru4mzVSVID4nEmpgkTa8V8XN1x+Ort+LlC8cwbeFhhcQAQkR3ISciVjVtLW69hca+LnaaDfB2dsXO1GzEq2jtkVJYJQnFrbdwvqYUXcODLMgimbaYkXerGtcbaxDvH4wNcakI9fTRZC1CPLzxtRWb8Prlk7BIfONGDCBENAfujk6I9glQRVstViuOlt5gp6mcyc6IzQnpWBEZD53I06rnGjyuNVThXE0p5+AvIVmWUdnRgsqOFkR4+2FbUibCvfw0V4do3wA8smw13rx+nm/fiAGEiGZvWViMahZXXrtVjSHuvqJaoiAgJyIWWxMz4Wi0Z0HmeMNb1HoLJ8oLeCCcwtzq7cLvzh1FvH8Itidnwd9VW1MJM0IiMTg+iuPlBRwMxABCRLOTHhKpinaarVacryllh6lUpI8/dqXmIsDNg8WYo7ruDhwty0f7YD+LoWBVnS2o7mpFcmAYdiRnwdPJRTPXvjE+Db2jwyhorudAIAYQIvpsQe5e8FLJl+SV+kpOOVEhT0dn3J+ag6TAUBZjjloHenG07AYaejpZDJWQZRmlbY2o6GjGish4bIxP08zbvoezVmFgfIxr9IgBhIg+m1refkxbzLhQU8YOUxE7vR7rYlOwPjYFep2OBZmDkckJnKoswvXGGu72plJWScKlugrcbK7HloR0rIxKsPlzRPSiDl9fuQm/OXMIfWMjHATEAEJE/0wQBKQGR6iirVfqKzE2zVOc1TKuskKjsS05Ey72DizIHFisVlyoLce56hJubWojJmemcbA4D6VtTdiTuRK+Lm42fb0OdkZ8Y+Vm/ObsIUyZOYaJAYSIPibCyw+uJuXfIFokK67UVbLDVCDYwxu703I1uy3pvajqbMHBojz0c4G5TWrs68KvTr2LFZHx2JqUCaPeYLPX6uPihkez1+K/rpzmzljEAEJEgEGnR7CHFyK8/JASHK6KNhe1NGBkims/lMzNwRE7kpchLSQSAssxJ53DAzhYnMd1HhpwZ1pWZUcLHspciRjfQJu91sSAUKyNTeHGIcQAQqRFTkYTQjy9Eebpi3AvXwR5eEEvqms+/qXaCnakYgOtDquiE7ExPs2mn+guhImZaZyuLMKV+ipIssSCaEj/+ChevXgcORFx2JWWA4PONm+FtidnoWOoH7Xd7ex0YgAhsmU6UUSEtx/i/IIR5x8EH2c3VV9PTVcbOocH2LEKIwBIDY7AfSnZcHNwZEHmwCpJuNpQhVOVRZicmWZBNEoGkHerGi0DPfhSznqbXBsiCgK+mLMWL546iOHJcXY6MYAQ2RJXk8MHgSMY0b4BNvUk+lId334oTZC7F3an5SLMy5fFuItAfajkOnpGhlgMAgB0DA3g16ffw/2pOVgeGW9zUxidjCZ8OXc9fn/+fb7pIwYQIrXzdnZFWnAEkgJD4e/maZPz7gfGR/nqXkGc7U3YnpyFrNBom99OdL71jg7jcEk+qjpbWAz6J2arFe8WXkVNVxv2Zq22uXNDwrx8sTE+Facqi9jZxABCpDauJgekBIUjJSgcoV6+Nr/Yl2cgKINOFLEiMh5bEjNhb+A6j7mYtphxsbYcZ6tKYJGsLAh9psqOFvzq1Lv42opNCPbwtqlr25yQjobeTtzq5SGFxABCpHgmOyMS/IORGhyOWL8giIKoieuWZAk3m+o4AJZYQkAIdqXmwNPJhcWYA1mWUdjSgKOl+Rid4vk1NHvDkxP43fmjeDhzFTJDo2zmugRBwBez1+GXp97l2idiACFSqiB3L+RExCIzNBoGDZ4iXdXZipFJbr27VHyc3bArLQexfkEsxhy1DvTiYHEemvt7WAy6KxarFW/lX0D3yCC2J2XZzJRHNwdHPJy5En+6dpadTAwgREphbzAgIyQKyyPj4efqrula5DfWckAsAUejPbYmZiAnIg4i13nMydDEGI6U3kBp6y0evkb3TAZwrroU3SND+FLOOpvZXCQlKBxpwREobr3FTiYGEKKl5O/qgeWR8cgIjeRZCgAmZ6ZR09XGgbGI7qzz2JyQDpOdkQWZA7PVgnPVpThfUwqzles8aH5VdrTgN2cO4Zurt8LdwckmrumB9OWo7+nE2DSnJxIDCNGii/YNwIa4VET5BLAYH1He0QyrxO0aF0ucXxB2puWo/syYxSYDKG5pwPtlNzA0wTMOaOF0jwzht2eP4Mk12+BjA+eFOBrt8WDGck7FIgYQosUiCALi/YOxIS4VoZ4+LMgnKG7hq/nF4OXkgu3JWUgJCmcx5qh9sB8Hi/PQ2McdfWhxDE+O47fnjuCxVVts4rvjzo6OpW2N7FxiACFaKDpRRFpwBNbHpdrkibfzZXx6CvU9nSzEAjIZ7LA+LhWrYxKhF3UsyBxMzEzjdGURrtRXQuIW0bQE4++Vi8fxtRWbEO2r/jfnD2WswK3eLk7FIgYQooUIHtnhMdgQlwo3G5m/u5DK25t5Wu4CEQUB2eGx2JaUaXMHnS00qyThUl05zlQVY8psZkFoyUxbzHjjykl8OXcDEgJCVH0tjkZ73JeyDG/duMiOJQYQovkgAEgOCse2pEx4O7uyILPEk6IXRqSPP3an5cLf1YPFmKOKjhYcKbmOvrERFoMUwWy14o/XzuDR7LVIC45Q9bVkhkXjemMNmvq62bHEAEJ0L0I9fXBfSjbCvXxZjDmwShKnX80zNwdHbEvKsqkDzRZL7+gwDpVcR3VnK4tBivy8/Ov18xAFQdXruAQAezJW4sXT73HzEWIAIbobPi5u2JqYwUW9d+lWXxemLZzeMh/s9Hqsi03B+tgU6HVc5zEXkzPTOFdTiou15bwhIkWTZBl/uX4eRr1B1YeG+rm6Y0VkPC7VVbBTiQGEaLYc7IzYkbwM2eExNnNi7VLg2R/3ThAEZIZGYXtyFlzsHViQOd3MSchrqMaJikJMzEyzIKQKVknCn66dxRNrtql6d6wtiZkoaW3EyNQEO5UYQIg+82YPwLLwGOxIXsZFvfOgupMB5F6EefpiV1oOgj28WYw5quvpwKHiPHQND7IYpDrTFjNev3wS31q3Q7XrvOwNBuxIWYY38y+wQ4kBhOjT+Lt64KHMFQjz5DqP+TA6NYnuEd783Q1XkyPuS1mGtJBI8P3b3PSPjeBIaT7K25tZDFK1O1v0fmf9/fByclHlNWSEROJSXTnaB/vZocQAQvRRd+bWb4hLhU4UWZB5wgPd5s6g02FVdCI2xqfBqDewIHMwY7HgQm0ZzlaXwGK1siBkE0anJvHKxeP4wcZdqnwrLwgCdqbm4D/Pv8/OJAYQojvi/UOwJ3MlXE2cWz/fmvt7WITZfkkDSA2OwH0py3i2zBzJsoyC5nocK7vJueZkkwbGR/Hn6+fw+OqtEAX1PSSL9PZHnH8wd58jBhAio96A+1OzkRMRxykuC6SRe8DPSqC7J3an5SLcy4/FmKPWgV4cLM5j2CWbV9fdgUPF1/FA+nJVtn9nSjZqu9p5KC0xgJB2hXn64gvZa1Q7p1YNzFYrOoY45/ezOBrtsSk+DSuiEiByp7U5GZmcwKnKIlxvrIEsyywIacKV+kr4ubojNyJOdW33cXFDVlgU8htr2ZHEAEIaG5g6HbYlZWJNdBK31l1gbYO9PG/h08ahqMPqGK7zuNtge6G2DOeqSzBjsbAgpDnvFV2Dj7MbIrzV98Z0a2ImilpuwWzl7y4xgJBGBLp74ovZa+Hr4s5iLIKOoQEW4RMkBYbi/pRsePLt25yVtjXiSEk+BifGWAzSLKsk4Y/XzuCHm3bDXWXrxVxMDlgdk4izVSXsSGIAIduXGRqFPZmrYODp0YumkwHkH/g4u2FnWg7iVHyy8dKF2X4cLM7DrV7uqkYEAOPTU/jL9fP49rodqluUvjYmGVfqKjFtMbMjiQGEbJNBp8OD6SuwLDyGxVjsm8ZhBhAAcLAzYnNCOlZExaty95qlNDEzjdOVRbhSXwmJ6zyI/kFTXzfOVJVgc0K66j4TcyPicKG2jJ1IDCBke7ydXfHV5Rvh58opV4tNlmXNH0AoCiKyw2OwLSlTlXv3LyWrJOFaQxVOVhRi0jzDghB9ilOVRYj09lfdepC1scm42lAJM8/rIQYQsiUZIZF4KHMlF/gukb6xEU0vEI72CcCutFyG37tQ192Bg8V5mg+wRLMhyzL+mn8eP9n8IEx2RtW029nehGVhMbjaUMVOJAYQUj+dKGJ32nIsj4xjMZZQ7+iwJq/b29kVO1NzEO8fzEEwRz2jQzhcfB3VXW0sBtEcDE2M42+FV/EvuetV1e51cSm43ljD3RKJAYTUzWRnxNeWb0Skjz+LscS0tkuRvcEOmxPSsTIqATqR6zzmYtI88+E6D96IEN2d4tZbiPMPRmZolGra7O7ghIyQKNxo4rkgxABCKuXp5IJvrtoCb2dXFkMBBsZHNXOt8f4h2JO5Eq4mB3b8HEiyjPzGGhwvL8D49BQLQnSPDhXnIdYvEE5Gk2ravD4uBTeb63iYKDGAkPqEe/niays2caEvA8iiEgURD2YsV+WJxEvtVm8XDhbnoWOon8UgmicTM9M4XJKPL2avVU2bvZ1dEecXhKrOVnYgMYCQeqQGh+MLy9byfA+FGRy37SlYRr0B/5K7nms95mh4chzHym6isLkefN5JNP8Km+uRFRqNaN8A1bR5RVQCAwgxgJB6bE5Ix+bEDAgsheIM2PAaEJ0o4usrNyHKJ4AdPUszFgvOVZfgQm0Zt90kWmB/K7yCp7c8BL1KHszF+gbC08kF/WMj7Dy6Z1yFSQtGAPBg+nJsYfhQJKskYXJm2mav75Gs1QwfsyTj9hPZ548fwOmqYoYPokXQNzaCs9Ul6vlOFwTuXEkMIKTwgSUIeCRrNVZEJbAYCmXLC4qXhceoapeZpdQ22IffnzuCv+ZfwPDkBAtCtIjOVpegZ2RINe3NDo+FQcfJM8QAQgqkE0V8OXcDloXHsBhKDiA2+vbDxeSAnak57ODPMTI1gbduXMS/nzmExr5uFoRoCVglCYdKrqumvSaDHdJCIthxdM8YY2leGXR6fG3FRsT6BbEYCjcxY5tvQLYmZsJksGMHfwqLZMWl2nKcqSrBtMXMgiiUg50Rvi5usDfYwd5gd3vKpHkaY1NT6Bkd4lksNqSmqw113R2qWZC+IjIeNxp5JggxgJBC2BsM+MbKLYjw9mMx1BBApm3vDYi7gxOnXn2G8vZmHCm5jn4Nnf+iFgadHnH+QUgODEOYly/cHZw+9d+1ShI6hwdQ09WOsrZGtHObZNU7WpaPH/rshiAof8VkkLsXAt08Oe6IAYSWnlFvwBNrtiPEw5vFUEsAscEpWCujecL5J+kcHsTh4jzU9XSwGArjbG/C2phk5EbGwag3zOq/0Ykigty9EOTuhY3xqegaHsTZ6hKUtN6CxIPiVKl9sB/FrbeQHhKpivamh0YygBADCC0tg06Hb6zazPChMhbJtnY6EgCkBnFu8sdD5onyAuTdqoEkc8qOkhj1BmyMT8Oq6MR7Ph/Jz9UdX8pZh80J6Thamo+KjhYWWIVOlBcgJShcFQ9R0oMj8X7pDQZeYgChpaETRXx1+UZEevuzGB/ROzqM/MYarIlJhrO9iQFkEYR4+sDNwZGDD4AkS7jWUI2TFYU2+aZL1UFZEJAVGo3tyVnz/tng7eyKr6/cjNrudhwqvo7ukUEWXEX6x0dR2Fyvig1cXEwOiPT251tVYgChxScKAh7NXos4njL94Q19ZUcL8m5Vo767AzKAFZHK3YbYYrWtJ+LhXr4chADqezpwqDgPncO8+VSaYA9v7E7LRainz4L+nBjfQPxkywPIb6zF8fICm95y29acqS5BZlgUREEFb0FCIxlAiAGEFpcA4KHMlUgL5pSX0alJ5N2qxuW6ClU9bba1KTkBbp6aHod9YyM4VnYTpW2N/IBSGFeTA7YnL0NGaNSiHcoqCiJyI+KQGhSOU5VFuFJfxWl4KtA/NoLillvIUMFmGsmB4Xi38CoPLiUGEFo8u9OXIyc8VtM16Bjqx8XachS33lLllpi2NgXL18VNk+NwymzGmaoiXKqr4NasCmPQ6bAuNgXr41KW7PA2k50Ru9JykR0ei0PciEAVzlSVID0kUvE7YtkbDIj3D+FDD2IAocWxIS4VKzV8wnlzfw9OVxahuqtN1dchSba1eNBkZ9TUOJRlGTea6nC8/CZGpyb5waQgAoCU4Ajcn7IMbp+xne5i8nN1x5Nrt9/eirk0H/1jI+woheoZHUJlZwsSA0IV39b0kEgGEGIAoYWXEhSObclZmg0epyqLUKPy4GGrtHT4YGNfNw4V56FtsI8drzCB7p7YnZaLcC9lnoeUFBiKOP8gHkapcJfqKlQRQGL9AmHQ6TgNixhAaOGEevrg0ey1EDR23V3Dgzhamq/6Nx42/2Em6mz+GocmxnG0NB8lrbfAzS+VxdnehK1JmcgOi1H81Bm9qMP6uFRkhkXjWNlNFDTXQ+Z2qorS0NOJjqEBBLh5KLqdBp0ekT4BqO5sZacRAwjNP3dHJ3xtxaZ73q9eTcanp3CmqpiLN2nJma1WXK6rwJmqYj6xVhidKGJFZDy2JGbAXmVv4VzsHfCFZWuwMioBh4rz0NjXzQ5VkMt1Fdi7bLXi25ngH8wAQgwgNP/sDXb45qotij3PYr5ZrFacqynFhZoy3uzRkpIBlLbewpHSGxiaGGNBlHbjFRCCnak58HJyUfV1BLl74dvr70dRSwPeL83H8OQEO1cBilobcF/KMjga7RXdznj/EAi4yreyxABC80cURHxl+Qb4urhr4nrrezrwbuE19IwOsfNpSbUP9eNgUR4a+7pYDIXxdnbFrtQcmzoDSQCQERKJ5MBQnK8pw7nqEs7rX2IWqxWFLQ1YHZ2o6Ha6OTjC380DHUMD7DRiAKH5cX9qNmJ8A23+Oocnx3GwOA9lbU3sdFpSo1OTOFFegPymWs7LVxgHOyO2JGZgeWScKg6KuxsGnR6bE9KRFRqNI6X53OFoieU31ig+gAC334IwgBADCM2L5KAwrFLBB9+9kAHkNVTjaGk+p1vRkrJKEi7XVeB0VRGmzByLSnL7UL9YbE3KhINGtnt2d3TCV5ZvwK3eLhwszkPHUD8HwhLoGh5E60Avgj28FR5AgnGmqpgdRgwgdG+8nFywN2uNTe94NTQxhv03L6Gumwdz0dKq7GjB4ZLr6OPZDIoT7ROAXWm58HN11+T1R3j74YebdiO/sQbHywswPj3FQbHI8htrFR9AQjy8YbIzYnJmmh1GDCB0dww6Hb6yfCPsDQab/kA/XJLHJ820pHpGhnCo5DrPllEgTycX3J+SjaTAUM3XQhQE5EbEITU4Aqcri3ClvhJWiTsDLpaS1lt4IH05dKJyp/0JgoAwT19Udbaww4gBhO7OgxkrFL/3+N2aMpvxTsFlFLfeYkfTkpmcmca5mlJcrC3njZzC2On1WBebgvWxKdBraNvx2TAZ7LAzNQfLI+NxrOwm14cs1ueFeQa13W2I9w9RdDsjvBlAiAGE7tKy8BgsC4uxyWtrHejFn6+fRz+nudASkWUZhS0NOFKSj7HpSRZEQQQAGaFRuC8lWzNbjt8tLycXfGX5BtR1d+BgcR66RwZZlAVW3Nqo+AAS7uXHjiIGEJo7Xxd3PJi+wvZu+gBcqCnF8fICPm2mJVPf04FDxXnoHObNmtKEefpid3ougty9WIw5iPYNwI83P4Ar9ZU4XVmESfMMi7JAKjuaYbFaFf1WLsjdC3Z6PWYsFnYYMYDQ7OhEEV/MXmtzJ51PW8zYf+MSpwrQkukfH8XRknyUtTexGArjanLEfSnLkBYSadMbbiz0d8eamCRkhkbheHkB8htrIHH76Hk3ZTajprsNiQGhih4LoR4+qOvhxi7EAEKztCk+DYHunjZ1TUMT4/ivq6fRNtjHDqZFN2Ox4EJtGc5Wl8DCA90UxaDTYVV0IjbGp8GoN7Ag88DRaI89mSuxOjqRGysskMqOFkUHEAAI9/ZjACEGEJqdIHcvbIhPtalrquvpwH9fO4sJbglIi0wGUNhcj/fLbmBkcoIFURABQEpwBO5PWQY3BycWZAH4uLjh8dVbUdrWiCMl+RicGGNR5kl1VxvkD8axUkVwHQgxgNCsBoBOhy9mr7WpU31vNNXinYIrXO9Bi65jaABvF1xG60Avi6Ewge6e2J2Wy4WyiyQlKBzx/iG4UFOKczWlXBcwD0YmJ9A+2KfotUqB7l4QcPtBDBEDCH2q7UlZ8HFxs5nrOVddimNlN/jhR0uitK2R4UNhHOyM2JyQjhVRCRAFrvRYTAadDpsS0pEdHotTlUW43lgDmetD7kl1Z6uiA4i9wQAPR2f0j4+ys4gBhD5ZhLcfVkcn2sS1WCUJbxdcxs2mOnYsEUEnilgVnYhN8ek2faiqGriYHLAncyUyw6JwqPg6Q/o9qOlux6aEdEW3McDNkwGEGEDoUzpep8MjWash2MATQYvVij9eO8sDkIgIAJAQEIKdqTnwcnJhMRQkzNMX39+wEwXN9ThWdhMjU1wjNVetA70wWy0w6JR7++bv5sFd/4gBhD7Z+tgUm/hyNlst+MOV06jtbmenEmmct7MrdqXmIM4/mMVQKEEQkBUWjZSgcO4SdxeskoSm/h5E+wQoto0Bbh7sKGIAoX/m7uCE9XEpqr+OaYsZb1w5hYaeTnYqkYaZ7IxYH5uCNTFJ0IkiC6ICdno9NiekY1lYDI6X30RBcz2LMku3ersUHkA82UnEAEL/7MGMFYp+fTsbU2YzXr54jHOJiTRMFETkRsRia1ImHOyMLIgKuTk44tHstcgMjcahkjx0DQ+yKJ8bQDoV3qdOMBnsMGmeYWcRAwjdlhgQiniVT0+YsVjw+uUTDB9EGhbtE4Bdabnwc3VnMWyhP30D8OPNDyCvoRonKgp5htNnaB3ogyRLit0+X8DtdSC3ervYWcQAQre3RNyVlqPqa7BKEv507Qwa+7rZoUQa5ObgiG1JWcgMjWIxbIwoiFgRlYD0kEicqynFxdpynuf0CcxWC7pHhuDvqty1Fl5OLgwgxABCt22MT4eHo7Oqw8d/XT2D6q42diaRxhj1BmyMT8PqmEToRR0LYsNMdkbsSF6GzNAoHCzOQ113B4vyMW0DfYoOIGq+1yAGEJrnD4O1sUmqbb8M4O2Cy9xql0hjBAAZoVG4LyUbzvYmFkRDfF3c8eSa7ajr7sB7xdfQMzLEotwJIIN9WBYewwBCDCCkbNuTs1T91PBkRSEPGSTSmDBPX+xOz1X0yc+08O6sD7lUW4EzVcWYtpgZQAb7FN0+BhBiACEEe3gjNThCte2/0ViL05VF7EgijXA1OWB78jJkhEZBYDkIgF7UYX1cCrLDY3CmqhhX6ishybJm69E9MgQZUOzvh6cTAwgxgGjeztRs1X6J13a3453CK+xEIg0w6HRYF5uC9XEpqt8qnBaGo9Eeu9JykREahYNFeWjq1+aGJNMWM0Ymx+FqclRk+5yMJhj1Br6tIgYQrUoODEO4l58q2z44Poa/XD/PXVCINCAhIAS703I5dYNmJcjdC9/dcD+qOlvwbtE1DI6Paa4GPaPDig0gAODh6IROnutCDCDaIwoCtidnqbLt0xYzXr9yEuPTU+xIIhsW6O6J3Wm5qn1QMl9kWUZR6y2EenjD08mFA2OW4v1DEOkdgHM1pbhQUwqz1aqdADIypOgT0d0dnRlAiAFEi9JDIuHt7Kq+L2IAb924yBNxiWyYs70JW5MykR0WA0HQ9kqPW71dOFSch/ahfuhFHVbHJGJjfBqMegMHyizY6fXYmpiB7PAYHC3NR0lroyauu3d0WNHtczTac3ASA4jWiIKAjfFpqmz7+eoSlLU1sROJbJBOFLEqOhGb4tNhb9D2DfbgxNg/3TBbJCvOVZfiZlMdtidlISssWvMBbbbcHZzw5dwNWBH590Bny4YmxpUdQOwYQIgBRHPU+vajdaAXJyoK2YFENijaNwC705bD18VN03UwWy04X1OGc9UlnzplaHRqEvtvXsKVhkpOUZujCG8//HDTbhS2NOBoaT5GpyZtNIAoe92Lo9HIwUgMIFqi1rcfk+YZ/CnvLBedE9kYb2dX7ErNQZx/sKbrIAMoa2vEkZJ8DM7y5rF9sB+/O3cUCQEheCBtOdwdnTigZkEQBGSGRiEpMBQXa8txtqoEFsm21ocMTfINCDGAkIKo9e3HgZuXNLmTCZGtcrAzYnNCOlZExUMURE3XonWgFweL89Dc33NX/31lRwvqujuwLjaZ2xTPgVFvwOaEdKQFR+BQyXVUd7bazLVNTE/BbLXCoFPmIcMOXANCDCDaIQBYH5eiunZfv1XDdR9ENkIURORGxGJrUiYc7LQ9DWNkcgLvl91AYXM97vXYPLPVglOVRchvrMV9KcuQFhLJgxpnydvZFd9ctQXVXW04XHwdPaNDqr8mGcDI5Lhid03jFCxiANGQOP9g+Lq4q6rNgxNjOFxynZ1HZAMiffyxOy0X/q4emq6DVZJwraEKJyoKMGWe38PYhifH8Zfr53GprgK70nIQ5unLgTfb70i/IMRsDUB+Yy2Olxeofqv3iZlpeCq0bZyCRQwgGrI2JllV7ZVxe+oVT0slUjdPJxfcn5KNpMBQzdeirK0JR0rzMTA+uqA/p3WgF787dxSZoVHYnpwFF3sHDsRZuP2GLg7JgWE4Xl6A/MYaSLKsymuZmJlWbNu0/vaTGEA0I8jdC5E+/qpqc15DNeq6O9h5RCplp9djXWwK1semQK/QueiLpWdkCIdKrqOmq23RfqYsy7jZVIfStkb2wxw5Gu2xJ3MlVkcnLnq/aSGA6ESOQ2IA0YQ1MUmqau/QxDiOluaz44hU6M4uQ3zyDoxPTy35k/QZiwUnKwpR0FSH+1KykRwUxkE6Sz4ubnh89VaUtjXiSGm+qjZDmVRwANGLIgcXMYDYOleTI1KDw1XV5kPFeZx6RaRCYZ6+2J2eiyB3L03XwSpJuFJfidOVRZg0zyiiTf3jo/jjtTOI9PHHrtRcBLh5cMDOUkpQOBL8Q3Chtgxnq0swY7Eovs1TCv4O1TGAEAOI7cuJiFXVNpe13e0oa29ixxGpiKvJAduTlyEjNErzuy/VdXfgYHEeukcGFdm+hp5OvHj6PWSEROK+lGw425s4gGdzU6TTYWN8GpaFxeBUZRGuN9ZAVvD6ECWfmyUIAkRBhCTzbC9iALFJoiBgWVi0atprkax4r+gaO45IJQw6HVZFJ2JjfBqMeoOma9E7OozDJddRpYLzJGRZRkFzPcrbm7H2g/ND9JyXPysuJgfsyVyJnIhYHCzKQ1N/tzK/T63KPlxRrxMxY2EAIQYQmxTvHww3B/WcjnuuuhS9o8PsOCKFEwCkBIfj/pRsVX3GLITJmWmcqizC1YYqRT91/iTTFjNOVhSiqKUBO1NzEK/xE+nnIsjdC9/ZcD8KmupwrOwmRqYmlBVAFH66u17UYQYWDiRiALFFuZHxqmnryNQEzteUstOIFC7QzRO70nIR4e2n6TrIsozClgYcKcnH2PSkqq+ld3QYr18+iWifAOxKy4WfqzsH+iyDeFZYNFKCwj9cH6KUNw8WhYdhrgMhBhAb5e7ohFjfQNW091RFkSoW9hFplbO9CVuTMpEdFgNB0PZKj7qeDhwuzkPn8KDNXdeLp9/Dish4bE5Ih4nnNcyKnV6PzQnpyAiNwpGS6yhvb1ZEQFYyURA4cIgBxBZlhUar5iahd3QY+Y217DQiBdKJIlZExmNLYgbsDXaarsXQxDiOl99EQXO9zV6jVZJwqa4CBc312JyQjhVR8arayGQpeTo642srNqGhpxMHi/PQOTywpL+3SmZW+BoVYgChu5QeEqmath4tzeduGEQKFO0bgN1py+Hr4qbpOsxYLIqbYrPQJmamcbA4D9caqrEzLQdxfkH8hZilSB9//HjzA0s6RU+n8NCotvVSxABCsxDi4Q1vZ1dVtLWxrxsVHS3sNCIF8XVxw660XMSoaBrnQpBlGTebby8yHp2a1GQNekaH8NqlE0gKDMX9KdnwdHLhL8gs3DmQM94/GCcrCnGtoXpRH7SJorJnQCh9kTwxgNBdyAiNUk1bT1UWssOIFMJkZ8QWTrsBADT1deNgcR7aBvs4MACUtzejurPtw22X7Q0GFmUWHOyMeCB9OZZHxuNQcR5qu9sX5ecq+Q2ILMt8A0IMILZGFESkBKnj5PPWgV7UdXew04iWmCAIyAiJxP2p2XAyavtguuHJCRwru4HC5nrIHBr/wCJZcb6mFPmNNR+sD0ngYuJZ8nVxwxNrtn1wUOU1dI8MLejPs1PwuTwWhg9iALE9sX6BqjnZ9nRVMTuMaIlF+wRgZ1ou/DW+9arZasH5mjKcqy6F2cod+T7LnfUhBc312JWWi3AvXxZltr9vvgH48eYHcamuHGeqijFlNi/Iz1HyGypOvyIGEBuUHBSminZ2Dg+gims/iJaMm4MjtiVlIVNFUzYXSlVnC94tuobB8TEOjDloG+zD784dQUJACHan5cLD0ZlFmQWdKGJdbAqyw2NxurIIV+orIc3ztrlK3kLZwh2wiAHEtoiCgAT/EFW09UxVCac3EC0Bo96AjfFpWB2TCL2o0/wN9MHiPDT1dXNg3IPKjhbUdbdjXWwK1selwKDjLcRsONgZsSstFxmhUfM+Du0VPAVrhm8YiQHEtoR5+cLRaK/4dg5NjKGsrZEdRrSI7uzKsz05Cy72DpquxejUJI6V3cTN5jrFH9imFmarFacqi5DfWIv7UpYhLSQSXB0yO0HuXvjO+vtR3NKA98tuYGhi/N4DiJ1yz+wZn55ipxMDiC1JCgxTRTtvb0fIL32ixRLs4Y3dabkI9fTRdB2skoRrDVU4UVGwYHPvtW54chx/uX4el+oqsCstB2GeXB8yqwcEuH1+V1JgGC7XVeBMVTGmLXc/RpX8kGF8epIdTgwgtiQxQPnTryySlaeeEy0SV5MDticvQ0ZolOafRld1tuBg8XX0j41wYCyC1oFe/O7sESQHhWNnajbcHJxYlFkw6HRYH5eCjNCou96NTVB4ABnjGxBiALEd/q4eqlgAWNLauCSnwhJp7SaG8/Fv6xwexOHiPNT1cMvvxSYDKG1rRE1XGzbEp2JNdBL0Oh0LM8uHB49mr0VORCwOFuehfbB/1v+tg9Fe0XUen55mBxMDiK2I9VPHicVX6ivZWUQLiDsS3TYxM/3BDkNVi3oCNf2zaYsZx8pu4lpDFbYlZfGN3ByEe/nhhxt3o7ClAUdL8zE69fkP8FxNyl7jxYeQxABiQ6J9lR9AOob60TrQy84iWgCBbp7YnZ6LcC8/FgO3d7iq7Gxl+FCQoYlxvJl/ATcaa7ErLRcBbh4syizc2UAiMSAEpyuLcbm+4jNPEncxOSr6ergInT6LyBKoKC3qdKq46ShsbmBnEc0zBzsjdqfl4gebdjN8fESMbyCe3boHu9NyFX0omxY19HbixdPv4c38C7N6ok+32RvscH9qNp7ZugcpQeGf+u95O7kwgJB672lZAvWI8PKDQeHzaiVZRlErAwjRfNGJIlZFJ2JTfBrsDXYsyGfUKCU4HMfKbqKguZ7b7iqELMsoaK5HZUcLNiWkY2VUAnQin33OhpeTC76yfANqutpwqOQ6ekaG/vF/d3ZVdPtHJifYicQAYgtiVDD9qr6ngx86RPMkISAEO1Nz4KXwJ51K4WLvgC8sW4MVkfE4VHwdTf08eFApJs0zOFxyHXm3qrEzNQfx/sEsyizF+gXhJz4BuNpQhVMVhZg0zwAAvJ2UHUD6x0fZecQAYgsiffwV38bC5np2FNE98nVxw660XFU8dFCiYA9vfGfD7QPfjpbewPDkOIuiEL2jw3j98knE+gVhV2oOfFzcWJRZ0IkiVkcnIj0kAsfLCpDfVAtvZ+U+mBifnsLUB0GJiAFExez0esUv5DNbrShvb2ZnEd0lk50RWxLSsSIqHqLAaSr34s6Bb4kBoThXU4oLNaUwW60sjELUdLXhlz0dWB4Zjy0J6TDZGVmUWXAymvBw1irkRsbBVcGL0Pn2gxhAbESIh4/ib0jqutvv6URXIs3eLAsCMkIicX9qNpyMJhZkHtnp9diamIHciFgcK7t5Vwe+0cKwShIu11WgoLmewXuOgty9FN0+HgRKDCA2IszLV/FtrOjg2w+iuYr08cfutFz4u3Kr0oXkanLEo9lrsTIqAQeL89Dc38OiKMTkzDQOFufhakMVdqXmII7rQ1SPAYQYQGwlgHj6KLp9siyjqrOVHUU0S24OjtiWlIXM0CgWYxEFe3jju+vvn9OBb7Q4ekeH8drlk4j2DcDutOXw5foQ9QYQTsEiBhD1EwQBIR7eim5jy0Avv8iJZsGoN2BjfCpWxyRBL+pYkCX6TJ3LgW+0uOq6O/DiqfewKjoRG+PTeL6LGgPIGAMIMYConqejs+IX6FV0tLCjiGZx07s9OQsu9g4siALcOfAtJyIWh0vyUdXJzzGlsEhWnK8pRUFzHbYlZWFZWDQEQWBhVKJndIhFIAYQtQtU+GIz4PYCdCL6ZMEe3tidlotQhU+l1CpvZ1c8tmoz6no6cLg4D53DgyyKQoxOTeLAzUu4Wl+JXWm5iPD2Y1EUbmhinKegEwOITQQQhW+/O2WeQcdQPzuK6GNcTQ7YnrwMGaFR4LNb5Yv2CcCPNj+A/MZaHC8v4E2UgrQP9eP3548iISAEu9Ny4eHozKIouK+IGEBsQICbp6Lb19DbBUnmxpZEdxh0ug/nrxv1nL+uJqIgIjciDilB4ThdWYQr9VWQZK4PUYrKjhbUdbfz90vB+ECSGEAYQBbFrd5OdhLRB/iE1jY42BmxKy0XuZFxOFx8HdVdbSyKQpitVpyrLkVBcz02J6QjJzyW60MYQIgBhOaTi70DnO2VfTBZQw8DCBEArItN4Y49NsbH2Q3fXL0VZe1NOFqSz+1FFWRkcgLvFFzBzaY67E7LRbDCd4vUTgAZYBHoc/HIUYXzdnFVdPumLWZ0DPPDhggAw4cNSw4MwzNb92BHchan/ShMc38PfnPmEN7Mv4CRyQkWZAlNmmcwyJBOs8A3IEoPIE7KDiDtg/2Quf6DiLTwhanTYX1cKjLDonGs7CYKmuv5+acQMoCC5nqUtzdjfVwq1sYkQa/jOTuLrWOoH/yNoNngGxClBxBnZQeQtsE+dhIRaYqLvQO+sGwNfrBxF8K9fFkQBZm2mHG8/Cb+7diB2wGRJVlUTX09LAIxgNhGAHFRdPvaGUCINMcqSShqacC0xazpOgS5e+Hb6+/HF3PWwdXEwyWVZHhyHG/mX8B/nj/KRdGLqLGvi0WgWeEULIXzUvgUrFYGECJNqevuwMHia+geGYKj0R6b4tOwIioBokZ3IRIAZIREIjkwFOdrynCuugRmq5UDRSFu9XbhxdMHkRESiftSshW/qYuaSbKEpr5uFoIYQNROFARFb+U5bTGjb2yEHUWkAT0jQzhYnIfa7vYP/9n49BQOFuehsKVB8ye9G3R6bE5IR1ZYNI6U5KO0rZGDRiFkWUZBcz0qOlqwKSENq6ISoRM5AWS+tQ32a/6tKDGA2AQXk4OiPyR7R4e5AJPIxk2aZ3CuugQXa8thlT75QL7WgV78x9nDSAgIwQPpy+Hu4KTZerk7OOEryzegZaAXB4uuoWWgl4NIIabMMzhSko+8hmpsT85CSlA4izKPeCYYMYDYCFeTo6Lb1zs6zE4islGyLKOwpQFHSvIxNj05q//m9inVHVgfl4J1sSkwaHgXohAPb3xvw04UtjTgaGk+RqcmOagUom9sBH+6dhbRPgHYmZYLf1d3FmUeNPRy/QcxgDCALNKHOBHZ4o1EJw4V593VgWJmqwUnKwpx/VYNtidnISM0Clo9o1oQBGSGRiEpMBQXa8txtqoEFonrQ5SirqcDL556D9nhMdiWlAlHoz2LcpckWUYz138QA4itBBBl76rSxzcgRDZlYHwUR0rzUdbWdM9/1p1diPIba7A7bTkC3Dw0W1ej3oDNCelIC47A4ZLrqOps5WBTzI2zhLxb1Shta8TWxAzkRsZBFLg+ZK46hvoxaZ5hIYgBxCYCiIOy34D0MIAQ2QSz1YLzNWU4W10Cyzzv4HR7F6L3uAsRbp/r9NiqLajr6cCh4jx0DQ9y8CnExMw03i26hsv1ldiVmoM4/2AWZQ4YqokBxIa42Cv7DcjgxBg7iUjFZABFzfV4v+wGhicnFu7nfLALUWVHCzYnZmBFZLymdyGK9gnAjzY9gKsNVThVWYTJmWkORoXoHR3Ga5dPIjEgBPen5sDLyYVFmYXKjhYWgRhAbIWS56NaJQkT01PsJCKVahvsw8HivEXdt3/SPINDxXm41lCFnanZiPcP0Wz9daKI1dGJyAyNwunKIlypr4IkSxyYClHR0YLqrjasiIzHlsQM2BvsWJRPMTI5wUOJiQHEljjYGRX9gcMNeIlUeLMwNYFTFUW43lizZNto944O4/XLpxDtG4DdabnwddHuLkQOdkbsSstFbmQcDhVfR01XGwepQlglCZfqKlDQXI/NCemaPnDzs8NaM+8HiAHElpgU/MRlZGqCHUSkspupaw1VOFFRgCmzMg4Lq+vuwK9OvcenzAB8nN3w+OqtqOpswcGiPPSPj3LQKsTEzDQOFufhZlMddqXlIsLbj0X5CE6/IgYQG6P0NyBEpA5VnS04WHwd/QrcOptPmf9RvH8IYnyDFBcWCWgf6sfvzx9FQkAIdqflwsPRWfM1mbFYUM8DCIkBxHYIggCjgp8Gjk7zUC0ipesaHsSh4jzU9XQovq0fPmVursPutFyEe2n3KbNOFLEqOhEpQeF4v+wGCpvrOcVFQW4fuNmOtTHJWB+XCju9dm+larvb533nPGIAoSVk1OsV/RRwmvt9Eyn6Zv5ERSHyGqpVt7C5fbAfvz93FCnBEbg/ZRncHJw0248uJgc8mr0WK6MScLA4D839PRzcCmG2WnG6qhg3mmqxI3kZ0jV64Gb3yBAHAzGA2BKDTtldw2kBRMojyRLyG2txvLwA4yrepU4GUNJ6C5UdzVgVnYiN8Wkw6g2a7ddgD298d8NOlLU14khJPrdAV5DhyQn8Nf8CLtVVYHdaLsK8fDV1/etik9HQ06GKt6ykLDzuU6nJUNQpun3TFgYQIiWp7+nAi6fewzsFV1QdPj7KbLXiXHUpfn78bRRofBqSACAlKBzPbtuDLYkZMOh0HPQK0jbYh9+dO4I/XTurqYCoE0V8dcUm+Lu6cxAQA4hNBBAdAwgRfb7+sRH86dpZvHThGDpt9GTt4ckJvJl/Ab85c0jz05AMOj02J6Tjp9sfQaZGp/0olQygtK0RPz/+Dk5VFsGskbUR9gYDvrFyC5ztTRwExACi+gDCNyBE9Dm/g++X3cALJ/6G0rZGTVxz60AvfnvuCN6+eRmjU9reCMPV5IhHs9fiqXU7EODmwV8IBTFbLThZUYgXTryDCo1sUevu6IRvrNys+OnjxABCnxdAFP4GxCrxxF6ipSDLMm421eH5Y2/jXHUpLJJVc9d/vbEGzx8/gAs1ZZr/LIr09scPNz2APZkr4Wi05y+IggyMj+IPV07hD1dOaWJaVrCHN76YvZZv5Wh297ksgTLpRGZDIvpHzf09OFich9aBXs3XYspsxpHSfFxvrMHO1GzE+4dothaiICA3Ig6pwRE4XVmEK/WVfEikIBUdLajt7sCmhDSsjUm26e/35KAwbIhPw5mqYnY8MYCokSzLCm8f+4hosQxPTuD90nwUtTTwPIiP6R0dxuuXTyHWLwi7UnPg4+Km2VqYDHbYmZqD3Ig4HCq5jurOVg4QhTBbLThWdhMFzfV4dNkaBHt42+y1bk3MQMdQP6o4/ugz8DE7A8jdtY+3QUQLzipJuFxXgZ8ffxuFDB+fqaarDb84+a5N7QJ2t7ydXfHNVVvw5Jrt8OPuRIrSMzKE/zh7BO+X3bDZt1SCIOBfctdr+mEAMYCoN4CwBESaVtXZguePv42DxXnc9GGWJFlC3q1qPH/8bVyuq4Ck8Ve10b4B+BHXhyhynJ6rLsWvT7+H9qF+m7xGo96Ar6/YBHuDHTucGEDU9gGlZAKXmREtiI6hAfzn+ffx+uVTGBgfZUHuwsTMNA4W5+HXp99DQ2+npmuhE0XkRsTh2a17kBsRB1HgZ7dSdA4P4j/OHMaFmjKbfOjo7eyKPZkr2dHEAKIqCv80stNz+RDRfN80H+JN84KEuTeunEK/xsOco9EeezJX4uktDyHWL4iDQyEskhVHSvPxxuVTmJiZtrnrSwuOQHZ4DDuaGEDUwqzwrTWNDCBE88IqSbhUV4F/e38/LnHa0IKo7GjBCyfewfHyAsxYLJquhY+LGx5fvRVfWb4BHo7OHBwKUdXZghdPv2eTO9w9kL4cvlwPQgwg6qD0L0mj3sBOIrpHNV1t+OWpd3GoOA+T5hkWZAFZrFacqSrG88cPoLC5XvPr7FKCwvHs1j3YlpTJN9oKMTg+ht+dO4or9ZU2dV0GnR5fzt0Ag8LPNyMGEAIwo/BFp3YMIER37c7Wsa9eOoGekSEWZBENT07gr/kX8NuzhzV/nopep8PG+DQ8t+0RZIZGcWWfEoKyZMV7Rdew/8Ylm9oly8/VHbvSctnBxACidErf9YZTsIjm7s7heb84+TdUdbawIEuoub8Hvzl7GG/duIiRqQlN18LV5IBHs9fiext3IcSGz6dQkxtNtXj54jGbWheSGxGHhIAQdi4xgCiZVZIU/fTDgVs6Es2aDKCguR7PHz+ACzVlPKVaKf0iy7jZVIefHTuAU5VFsFitmq5HiIc3vrdxF76yfAPcHJw4QJbYrd4u/Pvpgzb1lvSRrFVwMprYucQAomRKfgviYs8PEKLZaOzrxq9Pv4c38y9gdGqSBVGgGYsFJysK8cLJv6G8vVnTtRBwe33IM1sfwob4VOg5b39J9Y+P4j/OHkZ9T4dNXI+T0YTd6ZyKRQwgiqbkV6/O9g7sIKLPMDw5gTfzL+D3546gfbCfBVHDzd7YCP7r6mn854X30Tk8oOlaGPUGbE/Kwk+5PmTJTZpn8OqlEyhta7SJ60kLjkBqcDg7lgGElGpsWrlPS535BoToE5mtFpyqLMLPjh1AAXdbUqWGnk68eOog3iu6ZpNnM8yFm4MjHs1ei6fW7oC/qwcHxxKxShL+nHceN5vqbOJ6HkxfwfsIBhBSbACZmlJs25yMJj4RI/qY+p4OPH/8HZysKITZamFBVEySJVypr8TPjh1AUUuD5usR6eOPH21+AA9lrIQj1wAu2Zjcf+MiLtVVqP5aHI322Jmaw05lACFFBhAFvwHRiSKc+PSC6B9Ud7ZhaGKMhbAhEzPTNjP15Z5vGAQByyPj8NPtj2B1dCJ0Im8hFpsM4FBxHk5XFqn+WtJDIhHjG8hOZQAhxQUQhS9Y9XJyYScREWmMyWCHXWm5eHrLQ4j357aqS+FERSHOVJWo/joezFjBjQ4YQEhxAWR6StHt83JyZScREWmUt7MrHlu1Gd9ctQXezvw+WGzHy2+qfjqWl5MLNsansTMZQEhJhibGFd0+T74BISLSvDj/YDy95SHsTsuFyWDHgiyiw8V5uNpQpeprWB+bAh8XN3YmAwgpxeDEqKLb5+3MAEJERLfXBa6KTsRPtz+C3Ig4iAK3KVkMMoD3Cq+ioLle1WNndxrPBmEAIcUYGFf2Yla+cicioo9yNNpjT+ZK/HDTbkR4+7EgixRCDty8hNrudtVeQ4xvIOL9g9mZDCCkBFPmGUyaZxTbPh9nN+hFLh4jIqJ/FODmiW+vuw+PrdoMD0dnFmSBWSUJf7x6Bu1D6j30dGdqDndWYwAhpRgcV+40LJ0owtfVjZ1ERESfKN4/BM9texi703Jh1BtYkAU0bTHj9UsnMajSrcC9nV2RGxHHjmQAISVQ+jSsQDdPdhIREX2qO+tDnt32MDJCo3iI7QIamZrAa5dOYspsVmX7tyRmwGRnZEcygNBS6xkdYgAhIiLVczU54IvZa/HdDTsR7OHNgiyQ7pFBvHXjAmQVtt3BzogNcansRAYQWvoPEmUHkAB3BhAiIpq9UE8ffH/jLnxh2Rq4mBxYkAVQ3t6MM1XFqmz7yqh4uNhzXDCA0JLqUXgACXL34immREQ0JwKArLBo/Ov2R7AlMYPfIwvgZEUhqjpbVddug06PDfF8C8IAQkuqe2QIsqzcF6l6UYdgd75KJyKiu7vZ3JyQjme27kFyYBgLMo9kWcZfr59H39iI6tqeExELNwcndiIDCC0Vs9WCAYXvaMG93omI6F54Ojrjqys24lvrdiDAzYMFmSeT5hn8d95ZWCVJVe3Wizpsik9jBzKA0FLqGh5kACEiIpsX6e2PH256AA9lrICj0Z4FmQftg/04Xn5Tde3OCouGJ8+QYQChpfzw6FN0+0I9fXh4EBERzc+NiSBgeWQ8frr9EayPS+H3yzy4UFuOuu4OVbVZJ4pYG5vMzmMAoaXSOtCr6PYZ9QaEcEtFIiKaRyaDHXYkL8NPNj+IWL8gFuQeyLKMN29cwPj0lKranRUWA2d7EzuQAYSWJIAo/A0IAMT5B7OjiIho3vm4uOHx1Vvx2KrN8HZ2ZUHu0sjkBN4pvKKqNht0OqyMSmTnMYDQUhifnsKgwheix/kxgBAR0cKJ9w/B01sewu60XNgb7FiQu1DW1oSytiZVtXllVDz7mwGElkrbgLLfgvi7ecDV5MiOUpGUoDD4u7qzEEQqUdHRgvbBfk3XQCeKWBWdiJ9ufxg5EbEQBIEDY47eK7qGyZlp1bTX3mCHnPBYdhwDCC2F5oEeRbdPABDPaViqEuzhjR9tfhAPZayAg52RBSFSuI6hfvz6zEEcuHkJo1OTmq6Fk9GEhzNX4YebdnMnxjkamZrA4dJ8VbV5ZXQCRIZNBhBafLd6uxTfxsSAEHaU2j4APtht5l+3P4LV0YncbYZI4WRZRn5jLZ4/fgDna8pUd77DfAt088S3192HL+dugDsPrpu1m421qtoVy93BCfH+vMdgAKFF1z7YjymzWdFtjPYN5JN0lTLZGbErLRdPb3mIH/JEKjBlNuNoaT5eOPEOStsaNV+P1OBwPLvtYexIXgaj3sAB8nlBFsDfCq/AIllV0+YVUfHsOAYQWmySLKGpv1vRbdSJIlKCwtlZH+03yKpqr7ezKx5btRmPrdrC3WaIVKBvbAR/unYWr1w8ju6RQU3XwqDTYX1cCp7dtgcZIZHghJ3PHztX66tU095o30B+LzGA0FJQwzSstOAIdtRHTJtnVNnueP/gD3ebMXH3ESLFq+1uxy9Pvod3Cq6o7qyH+eZqcsQXc9bh+xt3IczTl4PjM5ysKFTNeiIBwIpIvgVhAKElCCCdim9juLcfXOwd2FkfmFRpAAH+vtvMc9sfRm5EHBcAEimcJEvIu1WN54+/jSv1lZBkba8PCfbwxnfW34cvLFvD76VPMW0x40R5gWramxUWDYNOz45jAKHF1DrQp/it80RBQFoI34LcMTQxrvprcDKasCdzJXebIVKJiZlpvFd0Db88+R5qu9s1XQtBEJAVFo3ntj+M9XGp0Is6DpCPyW+qRceQOrZ3tjfYITkwlJ3GAEKLSZIl1Kpg1wru1/137So4xX62Aj7YbeYryzfA3ZG7zRApXffIIF65eBx/uHIKfWMjmq6FUW/AjuQsPL31IUR6+3NwfIQsyziuorcgmWHR7DQGEFps1V2tim+jj4sbn5R/oNWGAsgdKUHheG7rw9iWlAk7PV+FEyldRUcLXjjxDo6W5it+N8WF5uXkgqfW7cCDGSv4NuQjqjpbFb/RzR3RPgE8+JgBhBZbTVebKvZV4luQ25r7ezAyNWFz16XX6bAxPg0/3fYIciPieBoxkcJZJQnna8rwf95/C5frKiDJsmZrcWcx81PrtsPRaM/B8YFjZTfV0X+CgMzQKHYYAwgtptGpSXQMKn+uZkpQOM8Ewe1X2+XtzTZ7fS4mB+zJXInvbdiJEA9v/oISKdzEzDQOFufh388cRGNfl6ZrEebpi2+t3QETv6sA3N5ps75HHYcTZnEaFgMILb4qFUzD0ut0WBYWw84CcP1WNWz9WWOIhze+t3EXHs1eC1cTd5shUrr2wX78/txR/HfeWQxOjGm2Dn6u7vj6ik2cjvWBkxWFqmint7MrAt092WEMILSYytqaVNHOVdGJ0IkcYh1DA6jsaLb56xQAZIZG4bltj2BjfBr0On6hEymZDKCktRE/P/42TlQUYsZi0WQdIrz9sDMthwMCQGNft2rWgvDgYwYQWvQb2n5V7Gji5uCIVB5MCAA4UV4Iq6SNPfnt9HpsS8rEc1sf5hcEkQqYrVacrizC88ffRlFLA7S4OmR5ZDwifbg7FgBcqCljACEGEPpkZW2Nqmjn2phkcHky0Dk8gLPVJZq6ZndHJ3xl+QZ8e919CHDjq3IipRueHMdfrp/Hb88eRutAr6auXQDwcOYqiAJviyo6WtA7Oqz4dno5uSDAzYO/uAwgtJhKVTINK8DNA9G+gewwAGeqitGisS914Pb0hh9u2o09mSvhZDRxIBApXHN/D35z9jDeunHRJnfx+6wb2nQepAtZlnGxtlwVbU3mWxAGEFpcbYN96B8fVUVbN8SlssNwexvMP1w5hQGV9Nu8ftAIAnIj4vDT7Q9jbUwy1wYRqeAm9GZTHZ4/9jbOVpfAYrVq4ro3xKXyrT2Am811mJiZVnw7UwLD2FkMILTYiltuqaKdkT7+nFv7gdGpSbx66QSGJsY1ef32Bjvcn5qNp7c8hHj/YA4IIoWbtphxrOwmXjjxDsram2z+en1c3BDELcVhsVpxs6lOFf3l4ejMX1QGEFpMN5tqVbNYcFtSJjvsA72jw/jNmUPoGOrXbA28nV3x2KoteHLtdvi7unNQEM2CvISHB/aPj+KPV8/gP8+/j46hAZuuMxc335anki3k4/yC2FkMILSY+sZG0KyS7fLCPH0RxyfeHxqZmsDvzx/FjaZaTdch2icAP9z0AHan5fIwMKLPIQhLPzmoobcTvz79Hv5WeAXj01M2WedYP65bBG4/LGvsVf5hlby3YAChJVDQVK+atm5NzODc2o+YMpux/8Yl/OHKKc1OyQIAnShiVXQi/nX7I1geGc9daIgUTpJlXGuoxs+OHcClugqb22Lcx9mN5xh9IO9WteLbGOXjz/5iAKHFVtx6C2aVLA4McvdCCs8F+ScVHS14/vjbOFVZBLPVotk6ONgZ8VDGCvxo8wOI9gngwCBSuEnzDA4V5+GXJ99FdVebzVyXThTh58KpocDtg48nzTOKbqNBp0ekN9eZMoDQopoyz6BcRQsD709ZBoNOz477GLPVgpMVhXj++Dsobr2lyYPA7vB3dceTa7fjays2wdPJhYODSOF6Rofw2qUTeO3ySVWcHzEbTvbcMhwALJIV5SrY9j+G2/0zgNDiu9ZQrZq2ujk4YX1cCjvtUwxNjOHPeefwmzOH0Nzfo+laJAWG4tmte7A7LRf2BgMHB2neUi5Cn43qzlb84uTf8E6B+teHOBjsOOA+UNyq/B03I7z92FEMILTYGvu6VLUrybrYZLg5OLHjPkPrQC9+e+4I9t+8hNGpSc3W4c76kOe2PYJlYTGKWIRLtFTUMP6tkoS8W9X4+Yl3kHerGpKszve5dno+9LijvqdD8d9DAW6efFDFAEJL4WpDpWraatDpcX9KNjvtc8iyjBuNtXj++AGcrymFRbJqthbO9ibsXbYaP9i4C2FevhwcRAo3Pj2Fdwqu4Nen30NDb6cKwx778A5JllHW1qjsm1lBQJgX34IwgNCiK2ppUPxCsY9KDQ5HLPfunpUpsxlHS2/gFyf+hoqOZk3XIsjdC99Zfz++lLMObg6OHBykKbIK3yZ0DA3gP8+/jz9eO4OB8VF2okqVKDyAAEAEAwgDCC2+GYsFNxrVdabEnsyVMPI196z1jY3gD1dO4+WLx9A1PKjZOggA0kMi8dy2h7E5IZ2bGhCpQFlbE35+4h0cK7+JaYuZBVGZpr4eTMxMKzuAcB0IAwgtjav1laqab+vu4ITtyVnsuDmq6+7Ar069h3cLryr+C2EhGXR6bEnMwHPbHkZacAR4yAyRslmsVpytKsHzx99GQXO9pnf7UxtJllCj8K2WA909oRN5W8sAQouuf3wUpSp4TfpRKyLjEc45/Xf1ZXC1oQr/duwAzlWX2txBYHPh5uCIf8ldD73Ig6iI1GBkcgJv5l/ApIYfoKhRdWerotunF3Xwd/VgRzGA0FI4V12qqqdKgiDg4cxVMPAU07syOTON98tu4Fen3kVtdzsLQkRECxNAutoUP8si2MOLHcUAQkuhY6gftSo7kdbHxQ07U3PYefege2QIr1w8jtcvn7KZg8CIiEg5Jmam0TKg7POpgty92VEMILRUztWUqq7NyyPjkRgQys67R1WdLfjFyb/hUHEeplS0KxoRESlfQ0+XotvHNyAMILSkHxCdaBnoVV27H8laBReTAzvwHlklCZfqKvCzY2/j+q0aVW7dSUREytPYp+wA4uvixindDCC0lE6UF6iuzY5Gezy6bC1Pu54nY9OTeLvgMn59+iBu9XaxIEREdE+a+7sVvQ5EFET4OLuxoxhAaKnUdrer8qYz2jcAmxPS2YHzqH2oH78/fxRvXDnFg8CIiOiuTZnN6BjqV3QbfV0YQBhAaEmdqChQZbs3xachISCEHTjPKjta8MKJd3CivAAzFgsLQkREc6b0h5s+Lu7sJAYQWuoPCTVuzSoIAr6Us45PMRaA2WrF6api/Oz4AeTdqub6ECIimpO2wT5Ft4/3DgwgpAAnygtUedqsUW/AV5ZvhFFvYCcugJHJCbxTcAW/PXdElRsWEBHR0mgf5BQsYgChz9Ey0IvS1kZVtt3XxQ1fzFkHkYvSF0xzfw/+48whvJl/ASOTEywIERF9pt6xYUVP4/V0coZO5O0tAwgtuSOl12G2qnPOf2JACB7MWMFOXEAygILmevzbsQM4VVkEi9XKohAR0Sd/Z8gyOocHlHtjK4hwMzmyoxhAaKkNTYzjcl2FatufGxGHtbHJ7MgFZrZacLKiEP927AAKmuvB1SFERPRJ2hW+E5a7ozM7iQGElOBMVQlGpyZV2/77kpchNTiCHbkIhifH8Wb+Bbx0/n3Fb7dIRESLr0vBb0BuBxAndhIDCCnBtMWs2m15gds7Yz2avQbRPgHszEXS0NuJX58+iHcKrmB8eooFISIiAEDf6Iii2+fhwADCAEKKkd9Yi+b+HtW2Xy/q8I1VmxHh7cfOXCSSLCPvVjX+z/v7b68Pkbg+hIhI8wFkXNkBhFOwGEBIQWRZxrtFVyGp+OwHg06Pb6zcghAPb3boIpq2mHGyohC/PPkuqjpbWRAiIg0bmhhX9AMpNwcuQmcAIUVpH+zHlfpKVV+DvcGAJ9ZsQ5C7Fzt0kfWODuP1yyfx8oVj6BoeZEGIiDRIlmUMjI0qtn3ORhM7iQGElOZEeQGGJ8dVHkLs8MSabQh092SHLoG6ng68ePo9HCrOw+TMNAvyAYFn1rBfiTSiX8HTsByN9uwgBhBSmmmLGQeL8lR/HQ52Rnx73X1cmL5ErJKES3UV+LdjB3C5rgKSLGm+JlsSM7AjeRmMegMHiC18QQoiciPisCdjJYtB9DHDCj681sFoD1HgLS4DCClOWXsTytqbVH8dRr0B31i1BfH+wezUJTIxM42DxXl48dR7qOvp0HQtDDod1sel4Nlte5AeEgk+N1evGN9A/GTLg9iTuZJPU4k+gZK39hcAOBqN7CQGEFKidwquqPpskI/e9H195SZkhUWzU5dQ5/AgXr5wDG9cOYX+sRFN18LV5Igv5azD9zfuQqinDweHing5ueAryzfgiTXb4OvixoIQqTCAAIATHxwwgJAyjU9P4d2iq7YxkAURe7NWY01MEjt2iVV2tOCFE3/D+2U3MG0xa7oWwR7e+O76+7F32Wo423NRpJLZGwy4LyUbz2zdg5SgcBaE6HMDyISi22ey4xsQJdOzBNpW1taEopYGpIdEqv5aBEHAztQc+Di74d2iq7BKXJOwVCySFeeqS1HQVI9tyZnICo3W7EJeQRCwLCwGyYHhOFNVjEt15RybCuufrLBobE/KYkgkmlMAUfYbEK7FYwAhhXu38CoivP3garKNfbNzImLh4+KG/7p6mid4L7GRqQnsv3EJV+orsTstF+Fe2j1E8vYT9mXIiYjFsbKbKG1r5ABZYsEe3tidlquaaXIyu4wUZNI8o+j22el5i6tknIJFmDTP4MDNy5Bl2/l6C/fyxXfX3w8vJxd2sAK0D/bj9+eO4i/Xz2NoYlzTteAag6Wn1jU63NSAlGRG4VNs7fgGhAGElK+mqw0Xasts6pq8nV3xo80PIDWY87mVQAZQ1NKA548f4PoQcJelpaD2Xcr4BoSUFUAsim4fp2ApG99P0YeOlRUgzMsXYZ6+NnNNRr0BX87dgCifarxXdI1z7xXAbL29PqSwuR7bk5chIzRKs09275wzkRoUjlOVRbhSX8XzVBZIQkAIdqflwsPRmcUg0kAA4RQshX//sQR0hyRL+HPeOUzY4MnWuRFx+N6GnXB3dGJHK8Tw5ATezL+A35w5hOb+Hk3XwmRnxK60XDy99UHE+QVxcMyjQDdPfHvdffjGys0MH0TzyCJZFf1QTy/q2EkMIKQWQxPjeLvgsk1eW5C7F364cTeSAkPZ0QrSOtCL3547gv03L9nEuTT3wsfZDd9cvRVfXbERnrxZvidORhMezlyFH27ajQhv29j8gGtASIkhhL8vdFcBkSWgjytra8LF2nKbPFPD0WiPr63YhILmehwsuqb4XTy0QpZl3GisRVlbIzbGp2FVdKKmn14lB4Yh3i8YF+vKcbaqRPPrZeZCJ4pYGZWAzQnpsDfYsSBEGqXVrd8ZQEjVjpbmw9fFDbE2Oh0kMzQK0b4BePvmZVR1trLDFWLKbMbR0hu4Ul+FbUmZyAyN0u6Hs06HDXGpyAqLxqmKIlxvrLGpneoWQrRvAHan5cLXxd02gzq7mGguEYQlUDBOwaJPJMky/pp/AYPjYzZ7jS72DvjGqi14MH057A3cLUNJhibG8Gb+Bbx88Ri6hgc1XQsXewfsyVyJ723YiRAPbw6OT+Dt7Ipvrt6KJ9dst9nwwdspojne4PINCAMIqdP49BT+cPU0zFaLzV6jAGBFVAKe3fowUoMj2OkKU9fdgV+deg/vFl61yc0R5iLEwxvf27gLj2avhYvJgYMDgMlgh52pOXh6y0OaWLzPNyCkvO9Q5d7kcwoWAwipWMdQ/+1DCm38Ol1MDvhy7no8sWYbDy9UGEmWcLWhCj87dgCX6yo0vU2tgNvTB5/b9jA2xKVCr9PmOhlREJAbEYefbn8Ea2KSoBP5VUa0NDf5yv7uIAYQUrGilgacrizSxLXG+Abi6a0PYUtiBgw6LpFSkomZaRwszsMvT76Lmq42TdfCqDdge3IWnt26B8mBYZq69ghvP/xw024e4Ei01OEDyt7q1mK1spMUjHdYNCunKgrh7uCErLBo2/+lEHXYnJCO7PBYHCu7gcLmek59UJDukSG8eumEzS84ng0PR2d8dcVGNPR24lBxHjqGBmz2Wl1NjtienKXpgyuJlMROb1D0NCczA4ii8Q0IzYoM4O2Cy6jtbtfMNbuaHPBo9lp8f+MuhHr6cBAozJ31IYeK8zCl8e2UI7398aNND+DR7LVwMpps6toMOj3Wx6Xg2W17kMnwQaQYRoVv3qLkM0qIAYTmwCpJ+NO1M+gcHtDUdQd7eOO7G3bi0ey1cLY3cSAobExeqqvA/3l//wfrQ7T7rkoQhNvrQ7Y/jPVxKTaxLiIhIATPbtuDHcnLYNRzpzoiRQUQhf9OcgoWAwjZkCmzGW/lX9TezR1uL/796fZHsC42RdOH5CnRnfUh/376IG71dmm6FiaDHXYkL8OPNz+IGN9AVV5DkLsXvrvhfnxj5Wa4OzhxgBMxgMyZLe/gaQu4BoTmzM9Vu3PujXoD7ktZhtyIWBwuyUdFRzMHhIK0D/Xj9+ePIiUoHPenZMPdUbs3r74ubnhizTZUdLTgSMl19I2NKL7NzvYmbE/KQlZYNLfQJFI4Bzujotun9am5DCBkcxIDQzVfA08nF3x95SY09HTiYHGe5qalKV1pWyMqOpqxIjIeW5MyNT19JzEgBHF+QbjWUIUTFYWK/FLWiSJWRMZjS2ImDwUlUgmln0c0rvGzoxhAyLYGjKhT7bSOhRDp448fb34AhS0NOFKSj7HpSRZFIe6sDylpa8TmhHTkhMdq9qm6ThSxKjoRGaFROF1ZhCv1lYpZL3N7N7Pl8HVx46D9PDL34yPlcLZXdgCZmGYAYQAhmxHlG8DFoB9zZ/Fvgn8wztWU4mJtOawSD0BSipHJCbxTcAXXb9Vgd1ouwrx8NVsLBzsjdqXlIjM0GgeL89DYt3TrZbydXbErNQdx/sEcpEQq5KLwTVkm+AaEAYRsR4J/CIvwKUx2RuxIXoZlYTE4XHIdVZ2tLIqCtA324XfnjiA5KBw7U7PhpuHFzYHunvjO+vtQ1dmCd4uuYXB8bFF/T9bHpvAEcyK1BxCFT8GaNDOAMICQTRAAJATwaeXn8XZ2xWOrtqCyowWHVbL4Vytk3F4fUtPVhvVxqVgbkwS9Trs7msX7hyDKJwBnq0txoaZ0QQ/uEgUBuRFx2JqUqfjFq8r9EObCfFJQAFHwFKwps5kzERhAyFYEunvB1eTIQsxSQkAIYhW++Ferpi1mHC+/iWsNVZo/Xdug02NrYgZyI2JxrOwmCpvrMd8rDSJ9/LE7LRf+rh4cfPeUoLkGhJTD08lFsQ+lCRQAAFM5SURBVG0bmRxnBzGAkK2I8wtiEebozuLf1OAInCgvQH5TLWTeRCjG8OQ43sy/gBuNtdiVloMAN0/N1sLV5IhHs9ciOzwWB4vz0DHUf+83KI7OuC81G8mBYRxs84FvQEghTAY7RR/MOzw5wU5SOE7ApVmL8PFnEe6Ss70JD2etwg837UaEtx8LojANvZ148fRBvJl/AaNT2t7JLMLbDz/atBuPZq+96xsMg06PLYkZeGbrHoaP+cSHF6QQXs6uim7f0MQYO0nh+AaEZkUnigj18GEh7lGgmye+ve724t/3ivIwMD7Koijm3k5GQXM9ytubsTY2GevjtHvi/Z2d3ZICQ3Gxthxnq0pgkT5/fYgAcJE/kQb4KD2AcAoWAwjZhmB3b9jpOVzmy+3Fv4G4XFeBM1XFmLaYWRSFmLaYcbKiEIXN9dienIWUoHDN1sKoN2BzQjrSQyJxrOwmStsaP/XfDXL3wu70XIR5+nIQEdk4b4UHkBFOwWIAIdvAaUPzz6DTYX1cCjJCI3G09AaKWxrACRbK0Tc2gj9dO4tYvyDsSs2Bj4YPyvNycsFXlm9AdWcrDpVcR+/o8If/m4vJATuSl2l6IT+R1vi6uCu6fXwDwgBCDCD0OVxNjvhSzjqsjk7EoeLraOrvZlEUpKarDb/o7kB2eAy2JWXC0Wiv2VrE+Qcj2jcQ1xqqcLqqGBkhkdiSmAl7Aw8nJdKSYA8vRbev7yMPSYgBhFRKFERNnx69eB/o3vjO+vtQ0FyPY2U3MTLFV8hKIckS8m5Vo6y9CVsTM5ATEQdRozsS3dnZbWVUAgTuykSkOU5Gk6K35LdKEgbGuQhd8feWLAF9nkB3Txj1fMK5GARBQFZYNJ7b/jDWx6VqdhG0Uo1PT+FvhVfx4ql3UdfTofmxSkTaE6Twtx/94yOQZB5CyABCqhfmyd2vFptRb8CO5Cz8dPsjyAyNYkEUpnN4EC9fOIY3rpxCP0+6JyINCXZXdgDp5fQrBhCyDf5uPL14qbg53D4c7qm12+Hv6s6CKExlRwteOPE3vF92gzuZEZEmBCk+gPChEAMI2YRADZ8OrRRRPgH40eYH8VDGCjjYGVkQBbFIVpyrLsXPjh3ADZ50b5PMVguLQITbUy/DFb4mtGd0iB3FAEJqpxNFxW+3p5lfVkHA8sh4/OuOvVgflwKdyF9fJRmdmsT+G5fw6zMH0djXxYLYgDubD7x84TiLQYTbDyRNCn8I1jHYz45SAe6CRZ/Jz9WdN7oKYzLYYUfyMiwLi8Hhkuuo6mxlURSkfbAfvzt3FAkBIXggbTncHXkiuBrV9XTgUHEeuoYHFX/oGtFiifTxV3T7rJKE7pEhdhQDCKldAKdfKZa3syseW7UFdd0dOFich+6RQRZFQSo7WlDX3Y5V0YnYGJ/GneRUom9s5HNPfV8qnNxHSy3KW9kBpHtkEBbJyo5iACG14/oP5Yv2DcCPNz+Ay/UVOF1ZjCnzDIuiEGbr7fUhRS0NuC8lG6nBETwtXKGmzDM4XVWMy3UVsErK3MKTY4eW0u0zwZR9KHHH0AA7igGEbEEAd8BSBZ0oYm1MMjJDo3C8vAD5jVwMrSRDE+P4c945XK2vxK60XMXvIqMlsiwjv6kWJ8oLMDo1yYIQfYowLx/YG5T9JrdjiOs/GEDIJnDus7o4GU14OHMVlkfG41BxHm71cjG0kjT2dePfzxxCVlg0tidlwdnexKIsaX904WBxHtq5aJXocyUGhCq+ja2DfewoBhBSO6PeACcjb5DUKNDNE99edx+qOlvwXlEeBsZHWRSFkGUZNxprUdJ6C+tiU7A+NgV6HU+8X0zDkxM4VnYDhc31qlpXwXeatJQSAkIU3T6LZEXbAAMIAwipnqeTM4ugcvH+IYjxDcK1hiocLy/gYXkKMmOx4GRFIfIba7EtKZMn3i8Cs9WCy3WVOFNVzN8FojnwdXGHl5OLotvYOtDLBegMIGQTAcTRhUWwATpRxKroRKQEheNUZRGuN9ZwfYiCDE2M4c38C7jRVIvdabnwd+W6q4VQ1dmCd4uuYXB8jMUgmqNEhb/9AICmvm52FAMI2QIPhb8B6RkdgqejC88pmSUXkwP2ZK5EVlg0DhbnoXWgl0VRkIaeTrx46iByI2KxNSmTJ97Pk7bBPhwqzkOjDdyccBcsWipJgcpf/9HU38OOYgAhW6D0NyDnq8vQ2NeFXWm5iPcPZofNUqinD76/cRfK2hpxuCQfQxN8IqwUkizhakMVilpvYX1sCtbEJDFg36WJmWmcrizClfpKSDbyxo/vLWkpeDm5INjDW/G/G3wDwgBCthJAFP4GpHdsGH1jI3j98kkkBoRgZ2oOPJ04bWw2BAApQeGI9QvC2aoSXKwrh8XKubNKMTkzjffLbuBmcx12peYg1i+IRZklqyThUl0FzlQVYcrMdR5E9yorLFrxbewc6sfEzDQ7iwGEbIGHo8IDyOjwh39d0dGCmq52rI7hqdNzYdQbsD05CzkRsThSko+y9iYWRUF6Robw6qUTiPcPwc7UbG6L/TkqOlpwpOQ6+sZGWAyieSAAyAhR/gYZtd3t7CwGELIVLvYOim3bxMw0xqen/uGfWaTbp07nN9ZiU3waVkQlQBQ4a3q2YfOrKzaiobcTh4rzeJqswlR1tqC2uw0rIuOxJTED9gY7FuVjDyMOlVxHdWcri0E0j8K9/eDu6KT8ANLFAMIAQjbBoNPBTq/c4fFZTzjHp6dwsDgPBc312J2eizBPX3boLEV6++OHmx7A9Vs1OFFR8E8hj5bOnalFo1OT+FLOOggM15iYmcbJikJca6iGJEscJETzLDNU+dOvzFYLGvu5/oMBhGyCo8IPIJzNwum2wT789uwRJASE4IH05XB3cGLHzoIoCFgeGYe0kAicqy7BpdoK7q2uAG4OjtiWlMXzQnD7MMfClgYcKcnH2PQkBwfRAjAZ7JAWHKH4djb0dnENIwMI2Qono72i2zc8OTHrf7eyowX1PR1YH5uCtbEpMPDU6Vl/+exIXoassGgcLr6O6q62/3979x0dx3mYjf6ZLei9916IXgiAIFgkNomURFJWoeS4RsVO4uRzEZ045373RvnOPV+ubdmOnS92bFFy7NixREqWWCSSIsVOovdeF73XxWIXi92duX9QkiWZFAESC8zsPr9zeMRDscw872Cxz86878tQ1oGrRoudaTnYnpzJHdMBdI4P42RdGUbmZnhxENlRYXyKrJ+E+FAHvzexgJDj8JR9AVlY0e9fslpxtrkGZT3t2JdVgPzYJK6pv0wh3n54dtuD6BwbxvG6Mozp+cZvLQgAsqLisT+nCH68e4dZ4wLONFWhuq+LFwfRGrz+FCdsUMSxtgz3c8BYQMhRyP0OiH4Fd0A+XVxeq7iMG10tOJi3GTEyX9tcTpJDI/DtPY+isrcDZ5o4P8SeovyDOH/pYx8eXO5oxIW2ej5mQbRGUsOiFLHq3vDsFKYW5jlgLCDkKOR+B2R+8d6e++6fnsD/uXASRfEp2Ju5EV4yn/MiF2qVCsUJG5AVGYczTdWo0LU7zCZvcuDj7oGHsgp5hw43Nxar7u3E6cYq6BeNvDiI1lBJUpoijrNpqI+DxQJCjsTDRd4FxLQKGw5JkoTynnbUD+iwJz0PW5LSuev0Cgrq4xu3YHNiGk7UlaF7YoSh3MsLsVqN7SmZ2Lkhh3vYAOibGsfxujIMTE/w4iBaY6E+/tgQFs0CQiwgtPbkPvHMZFlatb9r0bKEk/XlKO1uxb6sAmRHxfMCWKYIvwD81f0PoXWkH8dry3gr/C6kR8TgQG4xAmW+8eda0JuMONdSi3JdOyTeWfszEpgJ2d/OtBxFLPM9adBjZI57VrGAkGNdGDK/E7CaBeTjL2b/VXoBG8KisD93E0K8/XghLFNaeAySQyI/elZ/yWplKHcQ7huAg7nFSAwJd/osrDYbr51lELh0BtlZoJcPcqOV8SFc01AvB4wFhBzuwpDxcp8SALMdCsiH2kYH0fneMArjbs4Pkft8GDldM7vSclEYl8JPsT+Dh4sr9qTnoSQpDSqBj/y1jvTj7doyTPPu2TJe+/j1RPa1Y0O2Yl6Xavq6OWAsIORwF4ZKvgXEarPafeKzTRRR1tOGxqFe7M3ciKL4VKi48/Sy+Lh74PGNW1AYn4LjtaXo53P8AG5O4C9JTMOe9Dy4u7g6fR7Ds9OcP7RCvANC9uTr7okCBex8DgAjc9N8/IoFhFhA1riAiOKa/VsL5kW8WX0dVzubcSBnE1LDonhxLFNMQDD+dtcBNA7qcKq+AjPL2L3eUSWHROBAbjHCfP2d/rowLplxvqUW17tauILaCvEOCNnTnvQ8xSzEUsP9gFhAyEEvDLV8X4TENSwgHxrXz+LI1bOcMLxCAoDsqHikhUfjUnsjLrbVw+JEezkEeflwYYMP2ESRe8gQyVSwty8K45Vx90OSJNT293DQWEDIIS8MlXwvDZskrtu/3TLcj/bRQZQkpuHBzI1cMnWZtGoN9qTnoSg+Bacbq1DT1+XQn+W6aDS4PzUbOzZky/pu4lrpHBvGifoyjM7N8IuBSIYezi5UzNyProkRzJkWOGgsIOSI5Hwbdj3ugHyiAIkirnY2o2FQh4eyCpHHTeOWzdfdE08X3YfC+BScqCvD8KxjPcMrCAIK45KxN7MA3m7c3HJifg4n6svRNjLAi381ri++0pAdxAWFIiMiVjHHW9XbyUFjASFHZVvnN/lKMGcy4g8Vl3GjuxUHc4sRHRDMUJYpMTgc39z9KCp07Q7zSE58UCgO5BYjyj/I6cd30bKEcx/M8+BryerhHBCyh4ezCxVzrAvmRTQM6jhoLCDkuAVEvs/pq2X2SEvf1Dj+7cJJbIxNwr6sAvi4efACWgaVIKA4YQNyohM+mpSsxDerfh6eeDi7CDnRCU7/+bQkSajQ3ZznYTCbeJETyZyPuwdiAkIUc7xVvZ2wOtE8QhYQcjpWGb8RlOPjYZIkoaq3Ew2DupvP/qdmy3ovFTlx17pgf84mbE5Mw+nGKsV8uqVVq7E1OQO70nI5FwhA//QEl10mUpiHsgoVs8S8BKBc185BYwEhRybvOyDynZ+yZLXiveYaVOjasTezABtjk3gxLVOQlw++tHmnIiYsp0fE4NHczfD39HL6cZszLTjFwgJEjiY+KAz5Cvoe1Tk2hIn5OQ4cCwg5MjnfAVHCqkKzxgW8VnEZ1b2d3P9hhZJDI/Ct3Y/iRncrzjXXwGTHXe9XKtIvEAfzihEfFOb047RkteJiewMutzc41dLKRI5ArVLh8Y1bFPXYaGl3KweOBYQcnU3mj2BpVGpYRfm/6ekcH8ZPzr2N4oRUPJi5ER7cAXvZY7wtOQP5MYk421yN8p72dd20zsvVHXuzNqIoLgWC4NwzPSQAdf3deKehkkthEinUfalZCPXxU8zxThn0aBnu58CxgJCjk/ubew8XV+gXjYrIUpRE3OhuRe1AD3akZmN7SqZidptdb56ubngsfwu2JmfgRF052kcH17wIlSSm4YGMfLhpXZx+PIZmpnC8rhS6yTFenEQKFeLjhz1peYo65isdTev6IRSxgNAasdissj4+dxcXxRSQD5mWzHi3sRLVfTcfy0oJjeSFttxvmN5+eG7bg2gc6sWp+gpML8zb/d9MC4/G/pxNCPb2dfr85xdNON1Yhaq+Tkh8E0CkWCpBhc8X3aeoRVKMS2ZUcu8PFhByDsYls8wLiHIfZRrTz+LlK2eQHBqBg7mbFXUbfL1lRcYhPTwGpd2tONtcjUWLZdX/jWBvX+zPKUJaeIzT520TRbtmTURra2dajuL2Krre1SL7D0WJBYRWidw3hnOEuRSdY8P4ybm3sC05E7vScuGm5VKuy6FWqbA1OQPZUfE43VSF6t7OVVl9yV3rgj0Z+ShJTOMjcgCah/twsr4CUwY9LzoiBxDhF4DdabmKOmarzcbJ5ywgxAIiH46y2Z9NFHGpvQHVfZ3Yl1mAgrhkp5/kvOxrwN0DTxVuR0liGo7XlaFvavyu/h6VIKAoPhV7MzfC09XN6XMd08/geF0ZOseGeZEROQgXjQZfKN6huA9XKns7ML/ITU1ZQMiJCoi8H8Hy9fB0qLznF004WnUV17tbcDCXy7yuRHRAML6xcz8aB3U4VV+BGaNh2X82ITgMB3M3I8IvwOlzNC2Zca6lFte7WiFKIi8sOeL0G7pLn8srQYi3n6KO2SaKuNjWwMFjASGnKiBL8r4D4ufu6ZC5D81M4ecX3+FGdyskAMiOikdaeDQutTfiYlv9Z+5N4evuiX1ZBciPTYKz328SJREVug6caaqW/Z1PIlq5nOgEFMQlK+64y3vaVvSBErGAkCMUEJm/EXG0OyCf1jLcj86xYezYkI37U7OhVdCKJetJq9ZgT3oeCuKScaq+Ag2Duk/8fxeNBjs25OC+lCxmipvzkI7XlWFMP8OLRylNm2gFgr198WTBVsUdt9Vmw4W2eg4gCwg5G9OSGZIkyXY+gqPeAfk4i82K95prUKHrwCPZhciOTuD7j2Xy9/DClzbvRM/EKE7UlWF4dgp5MYl4KLsIvu4eTp/PlEGPk/UVaB7u48VC5KDctFp8dctuuGqUt8BJua4dcyYjB5EFhJyNKEkwmBfh7eYuy+ML8PSGWqWS9Y7tq2XWaMDvyi4ivqsVB/OKEekXyAt0mRKCw/DN3QcxadBzPw8AZqsF77fW4WpHs+w3GyWiuycIAp4uul9x8z4AwMK7Hywg5NxmjAbZFhC1SoUAT29MzM85zXjoJkfx0/PHkR+TiIezi2Q7NnL8Ruzs5UMCUNPXhXcaKriijNIHkmgZHkjPQ0aEMvcyutLRCD3vfrCAkPOaMugRExAs2+ML9fFzqgICAJIkobqvC83D/didnoutSRncs4I+U+/UGI7XlmFwZpJhKL5NMwK6s+yoeOxKz1PksRvMJlxq58pXLCDk1KYX5L36hDN/qr1oWcKp+gqUdbdhX1YBsqPiecHSJ+hNRrzbWImavi5+cO4oOJB0BzEBwXi6aLtiu+p7zbVYtFg4kCwg5NwFRN47IIf6+Dv9GE0a9Piv0gtIDYvCgZxNCPHx44Xr5Cw2Gy63N+BiewOWrFYGQuQkgr198ey2B6FVK/Ot3fj8LMp72jmQLCDk7GZkfgeEk7H/pH10ED8aG0ZRfAp39HZirSP9eLu2DNML8wyDyIl4urrhma0PwMPFVbHn8E5DJTdBZQEhAqZk/iYmxMcPWrUGFhs/5QVubihX1tOGxqFePJixEZsSUqES+NC4MxiencLxujL0TIwyDCIn4+7iiq9t34sgLx/FnkPH2BBahvs5mCwgRMCscQE2UZTtJGeVICDCLwB9U+McrI9ZMC/ijzXXca2zGQdyNyE1LIqhOCjjkhnnW2pxvasFosQJAkTOxkWjwV9u2YMIBT8RYBNFHK8t42CygBDdJEoiphb0sl5HPMo/iAXkNsbnZ3Hk6llkRcXhkewiBHh6MxQHYRNFXO9qwbmWWixalhgIkRPSqjV4duuDiA8KVfR5XGpvxPj8LAeUBYToT0Zmp2VdQGICgnGdw/SZGgd70ToygO0pmdi1IRcuGn7ZK1nbyABO1Jc73RLURPTx8qHGV0p2ISE4TNHnMWM04P3WOg4oCwjRJw3PTiMnOkG2x5cYEs5BWgarzYYLrfWo6u3EnvQ8bIpPhcD5IYoyMT+Hk/UVaB3hc9JEzsxFo8FXS/YgOTRC8edyoq6M8zhZQIhuVUCmZH18vu6eCPD05qo/y6Q3GfFm9XWU97TjYG4x4hR+694ZmCxLuNhWj6sdzbCKNgZC5MTctC54dtsDiAtU/mt3++ggmob6OKgsIES3KCBz07I/xsTgcBaQFRqcmcTPL55CfmwSHsoqhI+7B0ORGVGSUKFrx5mmaiyYFxkIkZPzdHXD89v2ItJf+UvQW202vFVbykFlASG6Nb3JCIPZBC9Xd9keY0JwGCp7OzhYKyQBqO7rQtNQH3am5WB7ciY0ajWDkYHuiRGcqCvD8Ow0wyAiBHp649ltDyLY29chzudscw2mDHoOLAsI0e0Nz04jJTRStseXEhYJ4YM31LRyZqsFpxurUNrdir2ZBdgYm8RQ1smcaQGnG6tQ09fF65lu+aEBOZ/ogGD85ZY98HZzd4jz6Zsax5WORg4sCwiRsguIj5sHIvwDMTQzxcG6B7PGBbxWcRlVvZ04kFuMcF9/hrJGlqxWXGirx+WORlhtnOchJ+4urtiWnCmLY+GyEc4nLTwGXyze4TCrF1psVrxWcZn7FhELCN1ZvwL22UgLj2EBWSVd48P413NvYVPCBuzN3AgPF1eGYicSgNq+LrzbWIk5k5GByIhKELApYQMezMiHp6sbA6E1tz0lEw9nF0IlqBzmnN5pqMQkH70iFhBajp7JUUiQ96dvG8KicL6lloO1SkRJQml3K+r6u7FjQw62p2RCrVIxmFU0ODOJ43Vl6J0cYxgykxgSjoO5xQj3DZBdYSUneGOmVuPx/C0oiEt2qPPqGh/Gja4WDjCxgNDyLJgXMaGfRYiPn2yPMSYgGF6u7jCYTRywVWSyLOHdxkpU9918LEvOj+IphX7RiNONVaju7eQbSpkJ9PLBI9lFyIyMleXx8REsx+fv4YWvlOx2iJWuPm7RYsHRyqt8zSMWEFqZnslRWRcQQRCQFRWH0u5WDpYdjOln8fKVM0iPiMH+nE0I8vJhKCtkFW242tGE91vrYbZaGIiMuGq02JWWi20pGdCouBIcrY8N4dF4unC7Qz7yd6K+DDNGAweZWEBoZXSTYyhO2CDrY8yNTmABsbOW4X60jw6iJDEND2Tkw03rwlCWoXWkH8fryrnspMwIAPJjk/BwdpEiVhjip8eOSSWosDs9F7vTciEIjnefq7a/G5U6LpVPLCB0F7rHR2R/jPFBofB19+BkXjuziSKudjajuq8Le9LzUJKUDpXAh0NuZXx+FifrytE2OsgwZCY6IBgHc4sRGxjCMGjd+Ht44QvFOxz2OpyYn8Ob1dc50MQCQndnzrSAmQUD/D29ZHuMgiAgOyoeVzubOWBrwLhkxvG6MlT1deJg7mbEB4UylI9lc7apGmU97RAlkYHIiJ+HFx7OLkROdALnVND6fb8CUJSQikeyN8FNq3XIczRbLfjPG+f5yCmxgNC96Z4YQYGnvFflyI9NYgFZY0MzU/jFxVPIiU7Aw9lF8PPwdNosRElEaXcb3muugXHJzItDRrRqDXZsyMb9qVnQqvmtj9azBHviyYJtDr+ox5vV1zGun+WAEwsI3Zu20QHZLwsY5R+ECL8ADM9Oc8DWkASgbqAHzcP9Tvsmr2NsCCfqyjDGb7iyIgDIjUnEQ1mFTl2OSR7XYmF8CvbnbHL4+XOl3a2o7e/moBMLCN279tEh2ERR9vtBFMWn4u3aUg7YOrDYrHivuQYVunY8nF3kFI+5TBr0OFVfjubhfl4AMhMdEIwDuZsQF8jHA2l9hfn647H8EsQHhTn8uQ7OTOJEXTkHnVhAaHUsWpagmxxFUkiErI8zPzYJ7zRUwmKzctDWyaxxAb8vu4grHU0OO9F3yWrF5Y5GXGith1W0cdBlxMfNA3sy8lAUn8oFEmhdffjo384NOU6xmev8ogm/ufE+XxOJBYRWV+vIgOwLiLvWBVlRcajp6+KArbOB6Qn8+8VTKIxLxt7MAkUsdXonkiShqrcTp5uqML/IjS9l9Q1Nrcb25EzsTMuBq0bLQGjdCIKAvJhEPJRVAF9353j0z2Kz4tfXz2GW+30QCwittubhfuzP2ST749yWnMECIqM37BW6DtQN9OD+1Gzs2JCt2M3eBqYncLyuDH1T4xxYmUmPiMGB3GIEenozDFpXySEReDi7yOF2M//M13kARyuvYmB6ghcAsYDQ6psy6DExP4dgb19ZH2eUfxDig0KhmxzjoMnEkvXm/JCavi7sz9mE9IgYxRz7rHEB7zZWoq6/m5vByUy4bwAO5hYjMSScYdC6ivALxENZBUgNi3K6cz/TWIW6gR5eBMQCQvbTMtyP+1KzZH+c21IyWUBkaNKgx6+vn0NKaCQO5hYjxMdPtsdqsdlwqb0BF9saOKdIZjxd3bA3c6NTzfMQRe4pI0eR/oHYk56H9IhYp9xbpqq3Exfa6nkhEAsI2VfTUJ8iCkhGRCwCPL0xvTDPQZOhjrEh/PjcW9icmIYH0vPg7uIqm2OTADQM9OBUQyWfZ5YZtUqFLUnp2J2eB3cHX8r005Zs3NBNTqIDgrE7LRdpETFOu6llz8Qo3qi+xouBWEDI/vqmxjC1MC/7Z61VgoD7UjLxFpfklS2bKOJaZzNq+7vxYEY+NiVsWPdPs4dmpnC8rgy6yVEOkMxsCI/GgZxNsn8E1F7MFscqIEpcFUoQBGRExGBbciYSgsOc+utxeHYa/3njPGy8M0csILQWJAC1/d3YnZYr+2Mtik/FhbZ6zJmMHDgZWzAv4o81N1Da3YoDucXrstLa/KIJZ5uqUdHbAUniTA85CfH2w4HcTU75bP3HTRj0LCDrxE3rgsK4ZGxJzuBCBwAm5ufw8pUzMC2Z+QJFLCC0dqp7OxVRQDRqNXZsyOHGhAoxMjeDX14+vaYrGtlEEaXdrTjbXINFyxIHQUbctS7YsSEH21MynWIPhc8iShJG52Yc5nwEAGoFrIYX5R+ETQmpyItJ5NLOH5g1LuDlK2dgMHMZcmIBoTU2adBjcGYSUf5Bsj/WTfGpuMi7IIrSMtyPjrEhu+/p0DrSj5P1FZiYn2PoMqISBGxK2IAHM/Lh6erGQACMzE471EIIapVa1vMmMiJisTUpQ9aLZKwH/aIR/3H5XcxwbhyxgNB6qenrUkQB4V0QZbLabLjQVo+qvk7syyzAxtgkCKs0P2RMP4uT9eVoHx1k0DKTHBKB/bnFCPf1Zxgf0zCoc6jzkfsdLWd/3O9WjEtm/OryGUw52KOAxAJCClM30INHcjYpYgnM4oQNuNbZjEm+cCqO3mTE65VXcKGtHjs35CAvJvGu37wMzUzhQls9God6Oc9DZgK9fPBIdhEyI2MZxqdIDlhAtGq+/VCSRcsSXr5yBmP6GYZBLCC0vuYXTegcG1LEJ0VqlQoPZRfitzfe58Ap1MT8HF6vvIKT9eXIiIxFVmQsYgND4fEZy/faRBEjc9NoGxlAw2AvRuamGaTMuGq02JWWi20pGdAoYE7Aemge6nO4D0/cXVw4sAqxYF7EkatnMTgzyTCIBYTkoaynTTG3qrMi47g7ugMwLplRqetApa4DAODn4YUgLx94uLjC3cUFS1YrTJYlzJuMGNXPcIlImRIEAQVxydiXWQBvN3cGchsSgPdb6xzuvDi3Rxn0i0b86jLvfBALCMlMy3A/Zo0G+Hl4KeJ492UV4ucXT3HgHMis0cDNAhUmPigUB3KLFTGHbL1V6Toc8pNnTxltPEq3NmM04FeXT/PRZWIBIfkRJQml3W3Yl1WgiOONDQxBpF8ghmanOHhEa8zX3QP7sgqRH5vktDtHr8ScyYiTDRUOeW4evAMia9ML8/jl5dOYXphnGGQXKkZA96pc1w6raFPGBS8IeGzjllVbTYmI7kyr1uCBjHz8w75DN1czYyR3ZLHZ8LvSCw670RvvgMjX6NwM/s+FkywfZFe8A0L3bMG8iPoBHTbGJinieGMCglGckIrS7jYOHpEdCQByYxLxcHYhfN09GcgySZKEP5RfQu+U485X8+K8H1nSTY7iP6+fh5E7nBMLCCnBja4WxRQQANiXWYDGwT7u5EpkJ9EBwTiQuwlxgaEMYwWsNhteq7yCxqFehz7PAA9vDrbM1PR14VjVNcU80UAsIETon55QzM7oAODu4opHcorwWsVlDh7RKvJx88C+rNXdONJZGMwm/PbG+06xUl+AJwuIXEgAzjXX4HxLLbg7ErGAkOJc6WjCX2y6XzHHuzE2Cc1DfQ7/SSPRWlCrVChJTMMDGRvhptUykBVqGNThjzU3sGBedIrzDfBiAZEDq2jDsaprqOnrYhjEAkLKVD/Qgz3peQj29lXMMX8uvwQ9k6NO802fyB6youLwcHYRAvmp9opNGvQ4UVeO1pF+pzlnN60L3LXciHC9LZgX8Z83zqOXe2MRCwgpmShJuNBWj6cKtyvmmL3d3PF4/hb8tpQ7pBOtVIRfAA7kFCMxJJxhrNCiZQnnW+twrbPZ6TbL5ONX6294dhq/LX0fU9zjg1hAyBHU9ndjT3qeor7BZEXFIT82ibegiZbJw8UVe9LzUJKUDhXneayIJEmo6e/GOw0VmF90zkUwQn38eCGso+q+LrxZfR0Wm5VhEAsIOQabKOJSewMey9+iqON+NG8zdBOjmOGO2kS3pVapsCUpHbvT8/gIzV3omRjF8boyDDv5Rqhhvv68GNaB1WbD27WlKNe1MwxiASHHU6nrxK60PPi6eyjmmN21LvjS5p34+cV3uAQh0S0kh0bgYG4xQn345nGl5kwLON1YhZq+Lq4yBCDcN4AhrLFZowG/Lb2AgekJhkEsIOSYrKINVzoasT9nk6KOOzogGI/kFOHt2lIOItEHgr19sT+nCGnhMQxjhSw2Ky61N+JiWz0sNn6wwQKyPlpH+vGHiiswcXNBYgEhR1fa3YbtKVmKugsCAFuS0tEzMYqGQR0HkZya+4fzPBLToFapGMgKSLi5qdvpxkrMmYwM5OPXldYFvh6eDGJNCrAN7zZW4npnM++8EQsIOcsLnxVnm6pxqHCb4o79UOE2jMxNY2J+jgNJTkclqFCckIoHMzfCw8WVgaxQ39Q4TtSVoZ+PutxSuF8AuGyB/Q1MT+C1iisYn59lGMQCQs6lqq8T21IyFHe73VWjxVdKduPfL5yEybLEgSSnkRwSgf25xQjnJOEVmzMZ8W5jJWo5z+MzxQWGMgQ7sokizrfU4kJbA0RJZCDEAkLOR5IknKgrx9fv26e4Yw/18cMXN+/EK1ff44s4ObwgLx/syypAdlQ8w7iLN3yl3a0401QNs9XCQO4gPogFxF7G9LN4reIyBmcmGQaxgJBz6xofRvvoIFLDohR37CmhkXg0bzP+WHOdA0kOyU2rxa60XGxNzoBGpWYgK9QwqMOp+gou371MgiAgNjCEQawyURJxpaMZZ5urYeViB8QCQnTTOw0VSA6NVOSGZZsTN2BifhZXO5s5kOQ4bwQB5Mcm4eHsIni7uTOQFRqancKJujL0TIwyjBUI9fGDO+cVrarBmUm8WX2ddz2IBYTo00bmZlDd14nCuBRFHv8jOZswYzSgaaiPg0mKFx8UigO5xYjyD2IYKzS/aMLZpmpU9HZAkjjTY6U4/2P1GJfMeKehApW6Ds45IhYQots501SN7Kh4uGq0ijt2lSDgC8U78OrV99A5PszBJEXy8/DCI9mFyI5O4CpEK2QTRVztbMb7rbVYtHCex91KDo1gCPdIAlCp68C7jZVYMC8yEGIBIfosepMR55pr8UhOkTK/UFRqfGXLbvzq8mkur0mKolVrsGNDNu5PzYZWzXkeK9U83I9T9eWYNOgZxj1QCSokh0YyiHswPDuNt2pvoHdyjGEQCwjRcl3tbMbGuCTF7oLrqtHi+e178R+X3sXQ7BQHlGRNAJAVFY9Hcorg7+HFQFZoYn4OJ+rL0TYywDBWQWxgMNy1LgziLsyZFnC+pQ4VunaIfPSPWECIVkaURByvLcPX739IsY+AuGld8My2B/DLS6e5wRPJVnRAMA7mFnPFobtgXDLjveYalHa3cQnuVaTElRDlcC1eaK3H9e4Wrm5FLCBE96J7YgR1/d3Ii0lU7Dn4uHngr3c8hF9dPoORuWkOKsnq2tyTkYdN8akQBM70WAlRElGh68CZpmo+W28HG8KiGcIyfbi3zHvNNdwMl1hAiFbLqYYKpIVHw03Bt+O9XN3x9fv24eUrZ/g4Fq3/C7laje3JmdiZlqPIhR7WW8fYEE7UlWFMP8sw7MDX3RMR/oEMYhnFo7K3A+db6jBnWmAgxAJCtJr0JiNO1VfgiYKtij4PT1c3fP3+h/DK1bPomxrnwNK6SI+IwYHcYgR6ejOMFZo06HG6sQoNgzqGYUc50fFcee0zLFmtqNC141J7I4sHsYAQ2VOFrh3Z0fFIUfiqKO5aFzy3bS9+W3oenWNcopfWToRfAA7kFiMxOJxhrNCiZQnnW+twrbMZNpHzPOwtOyqeIdyCccmM610tuNbZDOOSmYEQCwiRvUkA3qi+hhceeEzxj4y4abV4duuDeKP6Gqp6Ozm4ZFeerm7Ym7kRRfGpUHGex8pedyTpo3keBrOJgawBfw8vxHAxhE/QLxpxpaMJZd1tMFu5rwyxgBCtqZkFA95trMLn8jYr/lzUKhWeKtyOEG8/nG6s5M60ZJdrrCQxDXsy8rmc6V3omRjF8boyDHPO1pri41d/MjgzifKedlT3dcLCVa2IBYRo/ZR2tyInKh4JwWEOcT47NmTDy9UNb9Zc56MdtGrSwqOxP2cTgr19GcYKzSwYcKqhgvM81kludKJTn/+iZQnVfV0o7W7DmH6GFwQRCwjJgSRJ+O/yS/jOA5+Dh4urQ5xTYXwKgrx98bvSC9AvGjnIdNeCvX2xP2cT0sK5hOlKWWxWXGpvxMW2en7avE7CfQMQ6aSrX43pZ1He04YKXQcfsyJiASE5mjMt4I3qa/jy5l0Oc07xQaH45u6D+G3p+1whi1bM3cUVO1KzsT0lE2qVioGsgASgcVCHk/UVmDUaGMg6Kk7c4HTfyxoHe9EwqINucowXABELCMld42AvKns7UBiX4jDn5OPugb++/2G801CBq53NHGS6I0EQkB+TiEdyiuDl6s5AVmhwZhLHa8vQO8U3f+tNq1YjLzrB4c/TtGRGy8gAqvs60TU2zPl/RCwgpDTHa8sQHxSGIC8fhzkntUqFA7nFiPALxNu1pbwVT7eVHBqBAznFCPP1ZxgrNGcy4t3GStT2dfENoExkR8XD3UEeq/20BfMi2kYHUdffjY6xYYgS5/sRsYCQYpmtFvy+7CK+sfMRaFRqhzq3grhkxAWF4vdlFzE4M8nBpo8EefngkZwiZETEMowVsthsuNxxc57HktXKQGSkOMFxHr+SAAzPTKF1dABtIwPon56AJLHqErGAkMMYnJnEiboyPJa/xSHfaP7tzv0421yDS+0N/Abm5Ny0WuxKy8XW5AyHK9xroX5Ah3caKjDDeR6yEx0QjLigUEWfw6JlCZ1jw2gbHUDbyCAXFCFiASFHV9rdhtjAUGyMTXK4c1OrVHgoqwCpoZF4veoKZhb45snZCIKAwrhk7M0sgLcb53ms1NDsFE7UlaFnYpRhyNT9qVmKO+Y5kxG9k6PQTY5BNzmG0blpiPyQiIgFhJzLm9XXEO4bgAi/AIc8v8SQcBx+4HGcaarC9a4WfqNzEvFBoTiQW4wo/yCGsULziyacbapGRW8H7x7KWKCnNzIj42R/nBabFdV9Xej9oHBML8xz8IhYQMjZWWw2/OeNc/jW7kcdZn+QT3PRaHAgtxgb45JxrOoqhma4Q7Oj8nX3xL6sAuTHJnFX6BWyiSJKu1txtrkGi5YlBiJz21IyoRLkf5XXD+jwZvV1DhgRCwjRJ80sGPCHisv4yy17FPEN7W5F+gXi73YewKX2BlzgZFqHK5n3p2bj/tRsaNWc57FSzcP9OFVfjkmDnmEogIeLq2KWUq8b6OGAEbGAEN1a28gA3mmowP6cTQ59nmqVCrvSclEYl4JzLbUo17XzMRMFEwBkRcXjkZwi+Ht4MZAVmpifw4n6crSNDDAMBdmxIRsuGvm/rVgwL6JzbJgDRsQCQnR7VzqaEOTlg82JaQ5/rj7uHnh84xZsSkjlhmoKFRcYioeyCxGv8FWA1oNpyYxzLbW43tXKvRUUxtPVTTGv0XUDPby+iFhAiO7seF0Zgrx8kRwa4RTnG+UfhL/Z8TDqBnpwrqUWE/NzvAhkLsIv8OYKZ2FRDGOFRElEaXcb3muugXHJzEAUaFdaLlw1WmUUkH4+fkXEAkK0DDZRxH+Vvo+/3bUfId5+TnHOgiAgLyYROdHxqO7rwrmWWi7bK0OBXj54ICMfedEJEAROMV+pjrEhnKgrw5h+lmEolK+7BzYrZOPBqYV59PHOMhELCNFymSxLOHL1LL6xYz983T2c5rxVggqFcSnIj0lCha4dF9sauPmaDIT5+mPHhhzkRsdDJagYyApNzM/hVEMFWob7GYbC7U7Pg0YhiyxU6jrA2XVELCBEKzKzYMDLV87gb3Y87LDL896OWqXC5sQ0FCdsQNvoAM631KF/eoIXxRqL8AvE9pRM5Mck8o7HXTBbLbjS0YQLrfWwijYGonChPv4oilfGyleiJKKyt4ODRsQCQrRyY/oZ/PraOXztvr3Qqp3vEhYEAWnhMUgLj0HX+DAutzeifXSQn+rZkUpQISMyBlsS05EYEs5A7oIkSajQdeBMUzUMZhMDcRCP5hUr5g5g68gg9CYjB42IBYTo7vROjeHX18/h2a0PQq1y3sdfkkIikBQSgUmDHhW6dlTqOvnmbhV5u7mjIC4ZmxPTuJzuPeiZGMXxujIMz3KzTUeSGRmLpBDlLAxS3tPGQSNiASG6N51jw3i98gqeLrrPoTcqXI4gLx88lFWIBzM2ommoD+U9beiaGOFeIndBJaiQEhaJgthkZEbGOnXBvVczCwacaqhAw6COYTjamweVGo9kFynmeOdMC2gfHeTAEbGAEN272v5uCIKApwq3O30JAW7OE8mJjkdOdDzmTAuoG+hB/YAOA5wrckfRAcHIj0lEbkwCvFzdGcg9WLJacaGtHpc7GmG1cZ6HI7p/QzYCvXwUc7zlPe0Q+YEMkXwKiASIfNtGSlbT1wUBwFOF2zkp+GN83T1xX0oW7kvJwqRBj/qBHjQO9WJ4ZorzRXBzLk20fxDSI2KRHRWHYG9fhnKPpA++Ht9trOSz9g4sxNsPu9JyFHO8VpsNpd18/IpIVgVEkCQz+KaNFK66rwuCIOBQwTaWkFsI8vLBrrRc7ErLhd5kROvoANpGBtA5Ngyz1eI0OWjVGqSERiItIhrp4THwduOdjtXSNzWOE3VlXJnNCYr7EwVboFGpFXPM1f1dnBtHJLsCAmGJn4aSI6jq7YQAAU8UbOXjWJ/Bx90Dm+JTsSk+FVbRht7JMegmx9AzMYq+qXFYbFYHKhxqxAaGIjE4DIkhEYgJCOacjlU2ZzLi3cZK1PZ18c6aEyhOSEV8UJhijlcCcLWjmQNHJLcCIqoEs8DnIslBVPZ2wGy14C823c83mst5AVCpP1pJC7i54/zgzCR6J8cwODOJodkpTBr0ipjMLggCgrx8EOUfhEj/QMQEBCM6IFhRn9QqicVmw+WORlxsq8eS1cpAnICvuwceyipU1DF3jg1hTD/DwSOS3fsPSLwDQg6lYVAHs9WCL2/eBRcN11lYCbVKhdjAEMQGhnz0a2arBSNz0xiemcLY/BymDHpMGvSYWTBAlMR1KRp+Hp4I9vJFkLcvQrx9Ee4bgAi/QLhptRzENVA/oMM7DRWYMRoYhpMQBAFPFd0HN62Loo77SkcTB49IjgVEApYYAzma9tFBvHzlDJ7ZugfuTrZj+mpz1WgRFxiKuMDQT/y6TRQxYzRgemEe84sm6E1GzC8ab/580YglqxWLliVYbDYs2W7+/HZ3Uty0WriotXDRaOCmdYGb1gUeLq7wcfeAl6s7fN094O3mDj8PTwR6+kCj5l2N9TA0O4UTdWXomRhlGE5me0omkhW05wcADM1MoYNL7xLJs4AIEsy8A0KOqHdqDL+49C6e2/4gfNw8GMgqU6tUCPLyQZCCluKkuzO/aMLZpmpU9HZwbxknFOkXiH2ZBYo77vOttZyXRCRTKlGAhTGQoxqZm8bPzh/HEHdgJloxmyjiWmczfnDmDZTr2lk+nJBGrcbTRfcpbk7dmH4GzcP9HEAiub62CJJgBj8jIAc2ZzLiPy69gy8W70RqWBQDIVqG5uF+nKovx6RBzzCc2GP5JQjz9VfccZ9rqWVhJpJzAYEkch8QcniLFgtevfYeDuYWoyQpnYEQ3cbE/BxO1JejbWSAYTi5zYkbUBiXorjjHtfPomGwlwNIJOcCIggqvcQ7IOQEREnCW7WlmDYa8FBWIfcKIfoY45IZZ5trUNbdti6rm5G8xAQE40BusSKP/T3e/SCSfwGBYJuExP0SyHlcbm/EwPQEvrR5J7xcuRM2OXsxF1Gh68CZpmosmBcZCMHL1R1fLtmlyD10BqYn0DDQw0EkknsBkST1FOeAkLPpmRjFz94/ga+W7EaEXyADIafUMTaEE3VlGNPPMgwCcHN1uy9t3glfd09FHv+7jVV8R0OkhAIiirYpFXeMJic0s2DAv104icfySxT5nDPR3Zo06HG6sQoNgzqGQR8RADyxcSsSgsMUefxtIwPoGh/mQBIpoYBIKtUkYyBnZbXZcLTyKganJ7E/ZxM3uCOHtmhZwvmWOlzraoZN5DwP+qQ9GfkoiEtW5LFLkoR3G6s4iERKKSC+LYOzhvQoGwC+8yKndaO7FbrJMXyxeAdCfPwYCDkUUZJQ+cE8D4PZxEDozxTEJWN3ep5ij7+6rwsjc9McSCKFEADg8NEjEwCCGAc5OxeNBo/mbkZhPB/JIsfQMzGK43VlGOZmnHQbyaEReHbrg4rbbPBDixYLfnDmGOYXWa6JFOKY5oOfTLGAEAFLViuOVl1F5/gwPpdfAnetC0MhRZpZMOBUQwXnedBnigsMxVdL9ii2fADAuZYalg8ihfmwgEwCSGUcRDfV9neja3wYT2zcivSIGAZCimGxWXGpvREX2uphtdkYCN1WhF8Antm6By4ajWLPYUw/i+tdLRxMIgUXECL6mPlFE359/Rw2xibhc/klcNVoGQrJlgSgcVCHk/UVmDUaGAh9pmBvXzy3bS/cXVwVfR4n6sq4oAKRggvIAKMgurXqvi70TI7iUME2JIVEMBCSnb6pcRyvK8PA9ATDoGWVj7+67yF4uyl7I9b6gR50jA1xQImUWkAkQeoVJIFpEN3GzIIBv7p8GvmxSdifswmerm4Mhdad3mTEuZZalOvaIUncfo3uLNTHD1/bvg8+7h6KPg/jkhnH68o4oERKLiAAOEuR6A4k3Lwb0jIygIeyCrApYQNY22k9WGw2XOtsxvutdTBbLQyEliXKPwjPb98LD4U/dgUAJ+vLOfGcSOkFRGVT90oqPkNJtBymJTPerL6Omr5uPL6xBKE+/gyF1kzrSD/eri3D9MI8w6Bliw8KwzNbH4CbVvlz2brGh1Hd28lBJVJ6AVHbFnVWFZcbJVoJ3eQofnLubWxNysCu9Fwu2Ut2NTQzheN1ZdBNjjIMWpHMyFj8xaYd0KqVv9+w2WrB0aqr4AOHRMr20RMkh48emQXgy0iIVs7T1Q0PZuRjU0IqVIKKgdCqmTMZcba5GlW9nZznQSu2LTkD+3M2QRAc44HRt2tLuewukfId+/ji370AcpgJ0cotmBfxx5obuNrZjP05RUgL594hdG+WrFZc72rhPA+6KypBwIHcYmxJSneYc+oYG8INlg8ix3iN+vAnAieiE92zifk5vHrtHH51+TT6psYZCN21+sEenGmqZvmgFXPVaPHlkt0OVT6MS2a8XnmFj14ROYiP7oBIktQLgWv6EK2GzvFhdF4YRnJoBB7KKkSUfxBDoRUpjEtBoKcPfld2gav90LIFefngKyW7EebrWItj/LHmOvQmIweYyEF8NCNt81MHEwXgYUZCtHqmF+ZR0dOOUf0sQn384KXwjb9obfl7eiE7Kh49E6MsIXRHmZGxeHbbXvh5eDrUeVXqOnChrZ4DTOQ4Wj4qIFsP7XcDhL9kJkSrb0w/i7LuVgzNTsHP0wt+Hl4MhZbF3cUFG+OSoF80YXh2ioHQn1EJAvZmFeDRvBKHWOnq4yYNevzmxnnYRG4VQOSQBaToLx7Tq0TpHwDurUZkLxPzc6jUdaB7YgTebh4I9PLhFxzdkVqlQkZELEJ8/NA5NgyraGMoBADw8/DEV7fsQX5sksO9llhsVrx85QxmTQscaCIHKyCfeL06fPRIHwAu30O0RsJ9A7AlOR35MYnQqjUMhO5oemEevy+7iP7pCYbh5HKi4/F4/ha4O8DO5rfyeuUVVHHDQSJHdOwT92o3P3lwlwCkMBeitWEwm9Ay3I8b3W1YMC8i0NsHHg76ZoJWh7uLKwrikqFSqdA7Nca9QZyQq0aLJzZuxd7MAof94KJc147zLXUcbCLH1PKJAlJyaH+mAGEbcyFaW1abDX1T47je1YKB6Qm4aLQI8vJ2mM3DaHWpBAGJweFIj4jFwPQEJ6g7keSQCDyz7UEkhYQ77DkOzU7ht6XvQ2S5JnKOArLl0MEQAE8wF6L1M2nQo26gB+U97ZhfNMHH3YOrZ9Etebu5ozA+BWreDXF4Hi6u+Fx+CfbnFjv0XdIF8yJ+deUMFsyLHHQiZykg2556RJIk4W+YC9H6W7Ja0Tc1jtLuVrSNDsIq2uDv4QVXjZbh0EdUgoCE4HDkRCdgYn4OUwvzDMXB5ETH45mtDyA+KMyhF62wiSJevf4ehmenOehEDl5APvFa9uLFFzWGiah5AG7Mhkiebzbjg8KQHR2PrMg4ePPOCH1Kw6AOJ+vLMWvkykFKF+LthwO5m5AaFuUU5/tG1TWU69o58ESO79iffZhy+OiRGgB5zIZIGWUkMzIWaeHRCPTyYSgE4Obdswtt9bjS0QSLzcpAFMbdxRV70vNQkpgGtUrlFOd8tbMZJ+rKOPhETlJA/mzHopInD+QAKGQ2RPImAZgxGtA+OohrXS2oG+jB9MI8VCoV/Nw9oeIEdqelVqmQFBKBwrgUmC0WjMxNg7NDlPChggrFian4SsluJIVEOM3XcPvoIF6vvMJrlMh5tPzZq9sLx175giBJv2M2RMrlqtEiITgMicHhSAgOQ6R/EAuJExvXz+J0UxWah/r4Jk+GBEFAXnQC9mTkI8jJ7mQOzUzhF5fegdlq4YVA5Dz+/BGs7/3h13FWtU3HbIgch5tWi/igMCQEhyEmIASR/oGczO6EhmencL61Dk1DfVwxSw7FA0BWVDweyMhDqI+/053/lEGPf794istIE7GA3HT46JEBAFHMh8gxqQQBwd5+iAkIRnRAEKL8gxDi4+eQpcQmihjTz2J4duqDH9MI8/XHwbzNcNZ7QqNzM7jQVo/6gR7utbAuX38qZEfFYceGbET4BTplBgazCf9+4RQmDXpeEEQsIB8VkKMAnmQ+RM5DAODv6Y1QH3+E+foh1McfId6+CPD0hqer/BfGM1stmDToMTk/h4kPfozNz2J0bgY2Ufyz339/ahYezi5y6jGfWTDgelcLKnTtMFmW+EVgZ64aLYriU7AtORP+nl5Om4PZasF/XHoXgzOTvCiIWED+5IWjR74pAP/KfIjowzdOAZ7eH/zwgp+HF7xc3eDl5g5vNw94ubrB09XNLvNMJEmCcckMk2UJhkUT5kwLmDMZMWs0QL9oxJzJiJmFecyZjCv+u/dmFmBXWo7Tj6/ZakF1byeudbVgYn6OF/wq8/f0wuaEDShO2AB3B95EcDmsNhtevf4eOseGeWEQOXEB0dzqV9Uq4boo8rY8Ef3pDerI3DRG5m6/QZgAwM3FFW4aLVw0GrhotHDTauGmcYHwQTHRqtXQqjV/9nfbRBE2UcSS7eZEVNPS0s3S8UHxsJczTVVwd3FBSWKa0xfMkqR0lCSlQzc5hgpdOxoGdViycgnfu6VWqZAREYui+BSkhEZ+9DXgzGyiiN+Uvs/yQUS3fgT6gw0JZwB4MSIicugXQUHA04XbkR+bxDA+VQzrBnpQ09cF3eQYJ60vU7hvAPJjk1AQlwQvV24U+vHy8buyC2ga6mMYRHTsth/JvHD0yAUB2MGMiMjRqQQBXyjegeyoeIZxCwvmRbSNDqJhUIe2kUGIkshQPibUxw850QnIiYpHiI8fA/kUUZLwWsVl1PZ3MwwiAm73CBYACJJ0EYLAAkJETvEG6Q/ll6FWqZEREcNAPsXT1Q0bY5OwMTYJ+kUj2kYG0TYygM7xISxanG//BpUgIDogGKlhUciKjEOYrz8vktt+bYl4veIKywcRfbJn3O5//P0brxSIolTJiIjIWahVKny+6D7kRCcwjGWwiSJ6J8fQPjaInolRDM5M3nLFMUfg7eaOlNBIbAiPRkpoJDycfDL5cq+P35ddRONQL8Mgoo+7/R0Qj6aBmoX0qDEJCGVOROQsb5j+u/wSLDYbCuKSGcgyCltiSDgSQ8IBABabFb1T49BNjKJvahyDM5MwLpkVeW4h3n6IDQpBfFAo4gJDEeztywFfAYvNht/cOI/20UGGQUR/5jOX5Th89MhvAXyJMRGRs70wPppf4vSrY62GGaMBgzOTGJqZwph+BuPzc5gy6GVzp0StUiHUxx/hvv4I8/VHuG8AovyDFLH3jVyZrRa8eu099EyMMgwiupXb3wH5wBkWECJyNhKAt2tuwGK14r7ULAZyD/w9vODv4YWsyLiPfk2UREwvGDAxP4cZowH6D/Z1mTMZoTcZP9j3xbwqJUUQBHi4uMLX3RMBnl6f2M8m0NMHgV4+UKtUHKhVsmBexCvX3sPA9ATDIKLb+swCYgPOqAEbADWjIiJnKyGnGipgtlqwJyMf3MVh9agEFYK8fBDk5fOZv2/JaoXJYoZpaQlW0fbRr9lEEdML8zAumeGm1UIQBKhVKrhqtNCo1PBwdYWnixs8XFzh4erGsVsjUwY9jlw9i0mDnmEQ0We64+vy4aNHygBsYlRE5KxyohPwdOF2aNT8LIboVgamJ/DqtXMwmE0Mg4ju5Nid7zsLwmnmRETOrH6gB7+8choL5kWGQfQpHWND+OXl0ywfRLRsyykgZxgTETm73skx/PzSO5hamGcYRB+40dWCV66+B7PVwjCIaPUKiFdTfyWAYUZFRM5uXD+Ln50/Dt0kV/ch5yZKIt6uLcVbtaUQJZGBENGK3PGB5kuXLkklhw7GgvNAiIhgsdlQN9CDYG9fhPpwB2xyPvOLJrx67T00DPYyDCK6Gy3LWntQhO11ZkVE9KcS8rvSCzhRV+awO38T3crw7DT+7cIJ6CbHGAYR3bXlrU4oScLhY6/oAMQyMiKiP0kIDsMXi3fC282dYZBDq9R14K3aG7DYbAyDiO7FseXtviQIEoA3mRcR0Sf1TIziR+/9EZ3jnCpHjslqs+GN6ms4WnWV5YOIVoVqBb+Rj2EREd3CgnkRR66cxcW2BkiMgxzIxPwcfvb+cZT3tDMMIlo1K9og9vDRI10AEhkbEdGtZUXG4cnCbXDXujAMUrTqvi68VXODS+wS0Wo7plnJ75YkvCkI+HvmRkR0a41DveidGsOTBduQFh7NQEhxTJYlvF1zAzX93QyDiOxCtaLfLKn4GBYR0R3ML5rw62vv4c3q61iyWhkIKUbH2BB+dPZNlg8isithpX/ghaNHmgQgg9EREd1ZiLcfni7ajuiAYIZBsmWxWXGyvgJl3a2cx0RE9nZMvdI/seXQQRcAe5kdEdGdLSwtorK3ExabFQnB4VAJAkMhWemZGMWr195D++ggwyCitdCiWemf0Ko1/2WxWv4FgBvzIyK6M1EScbGtAR1jQ3hi41ZE+QcxFFp3xiUzTtaXo7q3k3c9iGhN3dVHcd899sp/S5L0ecZHRLTCF11BQH5MIg7kFsPDxZWB0LpoHenHm9XXMWcyMgwiWmvHNHfzpwQRL0sCWECIiFZIkiRU93WhY2wI+3M2IS+GK5vT2pmYn8PxujI+bkVE6+ruHkaWJOHwsVfaASQzQiKiu5cQHIbH87cgxMePYZDdLFmtuNzRiAut9bCK3M2ciNbVMdVd/TFBkCDhFeZHRHRveiZG8ZPzb+N0YxUWLUsMhFaVBKCqtxP/3+mjeK+5huWDiGThrpdj+eZ/vxyq1QgDALSMkYjo3nm6umFXWi5KEtOgVqkYCN2TzvFhvNtQicGZSYZBRHJy7J7Wgzx89MgbAB5njkREq8fPwwu70nKwKT4VApftpRUanZvBuZZaNAzqGAYRybKAaO7lTwuC9FNJElhAiIhW0azRgDerr6NC14GHswuRGBzOUOiOJg16nG2qRv1AD5fVJSJZu+eP1r579EipBBQzSiIi+0gOjcCutFwWEbqlifk5vN9ah9r+HoiSyECISO7u7Q7IBxXmx5BwlFkSEdlH59gwOseGEekfiJ0bcpAVFQ8+mEWjczO41N6A2v5uiBLveRCRctzz97Anjx5Vx0LfDoCL2RMRrYEIv5tFJDsqjnNEnFDv5BgudzSieaiPj1oRkRIdW5XvXIdff/l/QBB+yjyJiNZOsLcv7kvJQn5sIrRqDQNxYDZRRMOgDlc7mzEwPcFAiIgF5MWTv/QwmNT9AAKZKRHR2nLXuqAgLhmbE9MQ7O3LQByIccmM8p52XO9qwZxpgYEQEQvIxx1+/cj/hoB/ZKZEROsnPigUW5MzkBkZC5XAvUSUanBmEuU97aju64LFZmUgRORQBWTV7tlbbNJPtRrh2wDcmCsR0frQTY5BNzkGPw8vbIpPwcbYZPh7ejEYBZhfNKG6rxPlPe2YNOgZCBE5rFWdvfjd14+8LAl4jrESEclHlH8QNsYmISc6Ad5u7gxERiw2G1pH+lHd14X20UHYRC6jS0QO79iqFpB/OPrLGBvUHQBcmS0RkbyoBAGJIeHYGJuMzMhYuGq0DGUdiJKE7vERVPd1ommoD2arhaEQEQvIvTh89MjPAfw1syUiki9XjRapYVFIC49GWng0PF359Kw9mSxLaB8dRPNQH9pHB2GyLDEUImIBWS3fevOX4RqbqhsQeJ+fiEgBBEFATEAw0sJjkBYehQg/Lmi4GiYNerSNDKBluB89k6N8vIqIyF4FBAC+e/TIv0rAN5kvEZHy+Hl4YkNYNBJDwpEQFAYfdw+GsgzziyZ0jQ+jc3wYXWPDmDEaGAoR0VoVkH88+mqwBWIPAC69QkSkcIFePogPCkVCcBjig8IQ5OXDUHDzDkff1Dj6p8ahmxzF6NwMdyYnIlqvAgIAh4++/ANA+C4zJiJyLD5uHogNCkGEXyAifAMQ4RcAPw/H/rxpzmTEyNw0hmam0D89jr6pcSyYF3kxEBHJqYD84x9/E2ixWnQAvJkzEZFjc3dxRYRfACJ8AxDuF4AwH38EeHorbnL7/KIJUwY9JgxzGJ2bwcjsNIZmp2BcMnOQiYjkXkAA4LtHj/yzBPw/zJmIyDm5arQI8PRGgKc3Ar28P/q5r7snPF1d4eHiBq1avSbHYhVtmF80Yc60gHnTzf/OmYyYXpjHpEGPKYOeS+ISEa1BAdHY82/3dLd932BSfxVADLMmInI+ZqsFI3PTGJmbvu3v0ao18HR1haeLGzxdb/5w1WghCICb1gUAoBZUcPlg3xKNWg2NSo3Fjy1le3NZWwk2UYRpaQmLlps/TB/+WDLzLgYRkUwI9v4HXjh65EsC8FtGTURERETk9I6p7P0v/OjJZ38H4DqzJiIiIiIiuxcQCIIkitJhgKsTEhERERGxgKyBHz/9fBkE/J5xExERERGxgKwJm6T9HoAFRk5ERERExAJidz859JUhSNL3GTkREREREQvImrAJvi8B0DF2IiIiIiIWELv7yaFDJkB6DpyQTkRERETEArIWXjr0/AUAv2P0REREREQsIGtCq9F+GxDGGT8REREREQuI3f3LY1+ZkgR8h/ETEREREbGArIkfPfns7wGc5BAQEREREbGArAk1bH8LYJ7DQERERETEAmJ33z/09X4J+L85DERERERELCBrwrtl8N8AXONQEBERERE5PkEOB/GdP7warVKL9QD8OSRERERERA7rmEoOR/Hjzz8zAEn6HxwPIiIiIiLHppLLgbz01PO/EyTp9xwSIiIiIiIWkLU5GEH8hgT0cliIiIiIiFhA7O77h74+p5LwRQA2Dg0REREREQuI3f3wqeeuQxD+N4eGiIiIiIgFZE14BQ38LwEo4/AQEREREbGA2N2LO1602myqQwAmOERERERERCwgdvfjzz8zAEhPg/NBiIiIiIhYQNbCS4eevyBA+p8cJiIiIiIiFpA18cMnn/s+gGMcKiIiIiIiFhD7EwTJCPMzAFo4XERERERELCB29/ND3zCoIDwGQM8hIyIiIiJiAbG7Hxx6th2C9GUAEoeNiIiIiIgFxO5eevL54xCE/5fDRkRERETEArI2JeSJZ/4JkvRbDh0REREREQuI/QmCpJ8VnxOA9zl8REREREQsIHb3q69/3aKC7XEATRxCIiIiIiIWELv7/qGvzwHSAQEY4zASEREREbGA2N1Lh57XCSrhEQALHEoiIiIiIhYQu/vBE89WCYL4NAAbh5OIiIiIiAXE7n745NdOCZD+DtwjhIiIiIiIBWRNSsih538hAd/mkBIRERERsYCsiR8deu6nkKR/5rASEREREbGArImXnnr+RUnCDzi0REREREQsIGviR4ee/R6AX3B4iYiIiIhYQOxPEKSXnnz2G4D0CoeYiIiIiIgFZE1KiFfw0F8BeJPDTERERETEAmJ3L+540doHn6cg4DccaiIiIiIiFhC7O3bokM2refAZQcIRDjcRERER0foSnOZMJUk4fOyVlwB8h8NORERERLQujqmc5lQFQXrp0HMvQML3OO5EREREROtD5Wwn/NJTz32fJYSIiIiIiAVkTUuIJAl/DUDkJUBERERExAJidz966tn/kAThywDMvAyIiIiIiFhA7F9Cnnz296Ig7gQwyUuBiIiIiIgFxO5+/OTXbtiAzQA6eDkQEREREbGA2N1PDj3XpdVoSwBcYxpERERERCwgdvcvj31lyuxl3A0JrzENIiIiIiL7EBjBp0iScPjokX+CIPwTwyAiIiIiWlXHeAfkzyqZIL301PMvSgKeB1fIIiIiIiJaVSwgt/GjJ587IoiqEgnoZRpERERERCwgdvfDp5+pcdFoCwTgHNMgIiIiImIBsbt/eewrU73w2QdJ+mdw53QiIiIionvCSegrcPj1I/sh4L8A+DINIiIiIqIV4yT0lXjpqedOqkRpM4BWpkFEREREtHIsICv0g6efb7XBZyME4WdMg4iIiIhoZfgI1j144fUjjwoCXgYQxDSIiIiIiO6Ij2Ddix899dzbFquUCeBdpkFEREREdGe8A7IaJEl44dgr/0MAvg/AlYEQEREREd0S74CsTo0TpB8deu6napW4EUADAyEiIiIiujUWkFX0/Se+1myDTzEg/RCAlYkQEREREX0SH8Gyk++89kqOSoWXAamQaRARERERAeAjWPbz46efrfcKHiiRgG8BWGAiRERERES8A7Imvv3mqwlqm+2XgLCbaRARERGREzvGArKGvnvsyJOShF8ACGQaREREROSMBYSPYK2hHz753DGLVcqAJPwagMhEiIiIiMjZ8A7IOvnua6/mSyrxXwFsYxpERERE5CT4CNZ6O/z6kf2SgJ8JQBzTICIiIiJHLyB8BGudvfTUcydF+KRDwvcAzDMRIiIiInJkvAMiI3//5stRok34PoDPc2yIiIiIyAHxESw5+oc3fpVhE1X/BOAJFhEiIiIiYgGhNXH4jZezIQr/E8CTTIOIiIiIWEBoTXzntZeLBZXq/xIgPcI0iIiIiIgFhNbEd18/skUShP8FSDuZBhERERGxgNCaOHzs5fslSfWCAOlhcI4IEREREbGA0Fr49tEjSWpB+DtI4vOA4M5EiIiIiIgFhOzu8B9/EQKL5m8gCN8AEMREiIiIiIgFhOzuxZO/9Fgwqv5SEoRvAUhiIkRERETEAkL2LyIvvqiaT48uUQFfkiB+iY9nERERERELCK2Jb731az+1xXpIgPANANlMhIiIiIhYQGhNvHD05Y0qqL4mQfoCAE8mQkREREQsIGR333rr134aq+0pScJTArAdgJqpEBERERELCNndP/7xN4FWm/VhUcKTAqR9LCNERERExAJCa+LbR38TqYLlCQF4EkAJuMkhEREREbGA0Fp44c0jsbDiMUHAXtx8TMuNqRARERERCwjZ3bePHnVXS4YtUIm7IWE/gHSmQkREREQsILQmvvvGr5Mlm3UfBGEvIN3PfUaIiIiIiAWE1sSLF1/UzE9E5gDCVgHYCOA+ADFMhoiIiIhYQGhN/P0fXomQNNIWCcJWSNIWAHkAVEyGiIiIiAWEBYTs7nu//7m/qHHNFSFmCRCyJEHIAaR0cDNEIiIiIhYQorXw4osvqubSoxI0kpAjQcyCIGQB2ABI8ZxTQkRERMQCQrRmvvf7n/tbtNoElSAkSCISoBIiIEnhABJulhTeOSEiIiJiASFaI98+eiRAEMUglUodKAi2QFFUBQqCECgJYqBKUgVJkIIAyQcQvAFoAKgFwAcAJMADgOsHf5U/0yQiIiJa2wLy/wOSfJ5VFYsarwAAACV0RVh0ZGF0ZTpjcmVhdGUAMjAyMy0wMy0xOFQxMjoyMjoyMCswMDowMIHoI6sAAAAldEVYdGRhdGU6bW9kaWZ5ADIwMjMtMDMtMThUMTI6MjI6MjArMDA6MDDwtZsXAAAAAElFTkSuQmCC;fontSize=13;fontStyle=0;strokeWidth=2;" parent="1" vertex="1">
          <mxGeometry x="620" y="567" width="46" height="46" as="geometry" />
        </mxCell>
        <mxCell id="u2gEvJjWZywR1e83eSXG-66" value="OpenAI API" style="text;html=1;align=center;verticalAlign=middle;resizable=0;points=[];autosize=1;strokeColor=none;fillColor=none;fontSize=13;fontStyle=0;strokeWidth=2;" parent="1" vertex="1">
          <mxGeometry x="598" y="610" width="90" height="30" as="geometry" />
        </mxCell>
        <mxCell id="u2gEvJjWZywR1e83eSXG-71" value="" style="dashed=0;outlineConnect=0;html=1;align=center;labelPosition=center;verticalLabelPosition=bottom;verticalAlign=top;shape=mxgraph.weblogos.json;fontSize=13;fontStyle=0;strokeWidth=2;" parent="1" vertex="1">
          <mxGeometry x="735" y="560.1" width="40" height="39.8" as="geometry" />
        </mxCell>
        <mxCell id="u2gEvJjWZywR1e83eSXG-72" value="" style="dashed=0;outlineConnect=0;html=1;align=center;labelPosition=center;verticalLabelPosition=bottom;verticalAlign=top;shape=mxgraph.weblogos.json;fontSize=13;fontStyle=0;strokeWidth=2;" parent="1" vertex="1">
          <mxGeometry x="745" y="570.1" width="40" height="39.8" as="geometry" />
        </mxCell>
        <mxCell id="u2gEvJjWZywR1e83eSXG-73" value="" style="dashed=0;outlineConnect=0;html=1;align=center;labelPosition=center;verticalLabelPosition=bottom;verticalAlign=top;shape=mxgraph.weblogos.json;fontSize=13;fontStyle=0;strokeWidth=2;" parent="1" vertex="1">
          <mxGeometry x="755" y="580.1" width="40" height="39.8" as="geometry" />
        </mxCell>
        <mxCell id="u2gEvJjWZywR1e83eSXG-78" style="edgeStyle=orthogonalEdgeStyle;rounded=0;orthogonalLoop=1;jettySize=auto;html=1;entryX=0;entryY=0.5;entryDx=0;entryDy=0;fontSize=13;fontStyle=0;strokeWidth=2;" parent="1" source="u2gEvJjWZywR1e83eSXG-76" target="u2gEvJjWZywR1e83eSXG-79" edge="1">
          <mxGeometry relative="1" as="geometry">
            <mxPoint x="520" y="319" as="targetPoint" />
          </mxGeometry>
        </mxCell>
        <mxCell id="u2gEvJjWZywR1e83eSXG-76" value="" style="sketch=0;outlineConnect=0;fontColor=#232F3E;gradientColor=none;fillColor=#232F3D;strokeColor=none;dashed=0;verticalLabelPosition=bottom;verticalAlign=top;align=center;html=1;fontSize=13;fontStyle=0;aspect=fixed;pointerEvents=1;shape=mxgraph.aws4.users;strokeWidth=2;" parent="1" vertex="1">
          <mxGeometry x="394" y="280" width="78" height="78" as="geometry" />
        </mxCell>
        <mxCell id="u2gEvJjWZywR1e83eSXG-77" value="Human Annotator" style="text;html=1;align=center;verticalAlign=middle;resizable=0;points=[];autosize=1;strokeColor=none;fillColor=none;fontSize=13;fontStyle=0;strokeWidth=2;" parent="1" vertex="1">
          <mxGeometry x="373" y="247" width="120" height="30" as="geometry" />
        </mxCell>
        <mxCell id="u2gEvJjWZywR1e83eSXG-83" style="edgeStyle=orthogonalEdgeStyle;rounded=0;orthogonalLoop=1;jettySize=auto;html=1;entryX=0.05;entryY=0.746;entryDx=0;entryDy=0;entryPerimeter=0;fontSize=13;fontStyle=0;strokeWidth=2;" parent="1" source="u2gEvJjWZywR1e83eSXG-79" target="u2gEvJjWZywR1e83eSXG-80" edge="1">
          <mxGeometry relative="1" as="geometry" />
        </mxCell>
        <mxCell id="u2gEvJjWZywR1e83eSXG-79" value="UI" style="whiteSpace=wrap;html=1;fontSize=13;fontStyle=0;strokeWidth=2;" parent="1" vertex="1">
          <mxGeometry x="522" y="304" width="60" height="30" as="geometry" />
        </mxCell>
        <mxCell id="u2gEvJjWZywR1e83eSXG-80" value="" style="dashed=0;outlineConnect=0;html=1;align=center;labelPosition=center;verticalLabelPosition=bottom;verticalAlign=top;shape=mxgraph.weblogos.json;fontSize=13;fontStyle=0;strokeWidth=2;" parent="1" vertex="1">
          <mxGeometry x="620" y="289.1" width="40" height="39.8" as="geometry" />
        </mxCell>
        <mxCell id="u2gEvJjWZywR1e83eSXG-81" value="" style="dashed=0;outlineConnect=0;html=1;align=center;labelPosition=center;verticalLabelPosition=bottom;verticalAlign=top;shape=mxgraph.weblogos.json;fontSize=13;fontStyle=0;strokeWidth=2;" parent="1" vertex="1">
          <mxGeometry x="630" y="299.1" width="40" height="39.8" as="geometry" />
        </mxCell>
        <mxCell id="u2gEvJjWZywR1e83eSXG-82" value="" style="dashed=0;outlineConnect=0;html=1;align=center;labelPosition=center;verticalLabelPosition=bottom;verticalAlign=top;shape=mxgraph.weblogos.json;fontSize=13;fontStyle=0;strokeWidth=2;" parent="1" vertex="1">
          <mxGeometry x="640" y="309.1" width="40" height="39.8" as="geometry" />
        </mxCell>
        <mxCell id="Bts73GTdKF_WyHnC4_nE-1" value="" style="image;sketch=0;aspect=fixed;html=1;points=[];align=center;fontSize=13;image=img/lib/mscae/Monitor.svg;fontStyle=0;strokeWidth=2;" vertex="1" parent="1">
          <mxGeometry x="797" y="398" width="50" height="50" as="geometry" />
        </mxCell>
        <mxCell id="Bts73GTdKF_WyHnC4_nE-2" style="edgeStyle=orthogonalEdgeStyle;rounded=0;orthogonalLoop=1;jettySize=auto;html=1;entryX=0.47;entryY=0.074;entryDx=0;entryDy=0;exitX=1.004;exitY=0.438;exitDx=0;exitDy=0;exitPerimeter=0;entryPerimeter=0;fontSize=13;fontStyle=0;strokeWidth=2;" edge="1" parent="1" source="u2gEvJjWZywR1e83eSXG-82" target="Bts73GTdKF_WyHnC4_nE-1">
          <mxGeometry relative="1" as="geometry">
            <mxPoint x="471" y="467" as="sourcePoint" />
            <mxPoint x="653" y="576" as="targetPoint" />
          </mxGeometry>
        </mxCell>
        <mxCell id="Bts73GTdKF_WyHnC4_nE-3" style="edgeStyle=orthogonalEdgeStyle;rounded=0;orthogonalLoop=1;jettySize=auto;html=1;entryX=0.508;entryY=0.95;entryDx=0;entryDy=0;entryPerimeter=0;fontSize=13;fontStyle=0;strokeWidth=2;" edge="1" parent="1" source="u2gEvJjWZywR1e83eSXG-73" target="Bts73GTdKF_WyHnC4_nE-1">
          <mxGeometry relative="1" as="geometry">
            <mxPoint x="715" y="338" as="sourcePoint" />
            <mxPoint x="799" y="394" as="targetPoint" />
          </mxGeometry>
        </mxCell>
        <mxCell id="Bts73GTdKF_WyHnC4_nE-4" value="Logging and&lt;br style=&quot;font-size: 13px;&quot;&gt;&amp;nbsp;Monitoring" style="text;html=1;align=center;verticalAlign=middle;resizable=0;points=[];autosize=1;strokeColor=none;fillColor=none;fontSize=13;fontStyle=0;strokeWidth=2;" vertex="1" parent="1">
          <mxGeometry x="707" y="405" width="100" height="40" as="geometry" />
        </mxCell>
        <mxCell id="Bts73GTdKF_WyHnC4_nE-5" value="Reference files" style="text;html=1;align=center;verticalAlign=middle;resizable=0;points=[];autosize=1;strokeColor=none;fillColor=none;fontSize=13;fontStyle=0;strokeWidth=2;" vertex="1" parent="1">
          <mxGeometry x="588" y="250" width="110" height="30" as="geometry" />
        </mxCell>
        <mxCell id="Bts73GTdKF_WyHnC4_nE-6" value="Extracted information" style="text;html=1;align=center;verticalAlign=middle;resizable=0;points=[];autosize=1;strokeColor=none;fillColor=none;fontSize=13;fontStyle=0;strokeWidth=2;" vertex="1" parent="1">
          <mxGeometry x="705" y="620" width="150" height="30" as="geometry" />
        </mxCell>
        <mxCell id="Bts73GTdKF_WyHnC4_nE-11" value="&lt;div style=&quot;font-size: 16px;&quot;&gt;Data Ingestion&lt;/div&gt;" style="text;html=1;align=center;verticalAlign=middle;resizable=0;points=[];autosize=1;strokeColor=none;fillColor=none;fontSize=16;fontStyle=1;strokeWidth=2;" vertex="1" parent="1">
          <mxGeometry x="35" y="210" width="130" height="30" as="geometry" />
        </mxCell>
        <mxCell id="Bts73GTdKF_WyHnC4_nE-13" value="&lt;div style=&quot;font-size: 16px;&quot;&gt;&lt;div&gt;Text Extraction system&lt;/div&gt;&lt;div&gt;&lt;br&gt;&lt;/div&gt;&lt;/div&gt;" style="text;html=1;align=center;verticalAlign=middle;resizable=0;points=[];autosize=1;strokeColor=none;fillColor=none;fontSize=16;fontStyle=1;strokeWidth=2;" vertex="1" parent="1">
          <mxGeometry x="324" y="388" width="200" height="50" as="geometry" />
        </mxCell>
        <mxCell id="Bts73GTdKF_WyHnC4_nE-14" value="&lt;div style=&quot;font-size: 16px;&quot;&gt;&lt;div&gt;Logging and Monitoring&lt;/div&gt;&lt;div&gt;&lt;br&gt;&lt;/div&gt;&lt;/div&gt;" style="text;html=1;align=center;verticalAlign=middle;resizable=0;points=[];autosize=1;strokeColor=none;fillColor=none;fontSize=16;fontStyle=1;strokeWidth=2;" vertex="1" parent="1">
          <mxGeometry x="324" y="210" width="210" height="50" as="geometry" />
        </mxCell>
      </root>
    </mxGraphModel>
  </diagram>
</mxfile>
